<svg xmlns="http://www.w3.org/2000/svg" xmlns:xlink="http://www.w3.org/1999/xlink" width="500" zoomAndPan="magnify" viewBox="0 0 375 374.999991" height="500" preserveAspectRatio="xMidYMid meet" version="1.0"><defs><clipPath id="3898c01169"><path d="M 0.75 0 L 373.5 0 L 373.5 375 L 0.75 375 Z M 0.75 0 " clip-rule="nonzero"/></clipPath></defs><g clip-path="url(#3898c01169)"><path fill="#b76e79" d="M 369.734375 127.566406 L 262.953125 239.328125 L 109.527344 304.539062 C 109.527344 304.539062 84.488281 265.050781 92.863281 227.691406 L 40.695312 243.71875 C 40.695312 243.8125 40.695312 243.945312 40.695312 244.039062 C 40.785156 247.570312 40.785156 251.191406 40.785156 254.679688 C 40.785156 262.964844 40.742188 271.523438 42.328125 279.675781 C 44.09375 288.824219 47.898438 297.519531 53.375 305.082031 C 56.683594 304.21875 60.257812 305.441406 62.296875 308.386719 C 62.75 309.066406 63.113281 309.789062 63.339844 310.558594 C 64.515625 310.46875 65.691406 310.558594 66.871094 310.921875 C 70.402344 311.964844 72.984375 314.90625 75.15625 317.851562 C 79.324219 323.464844 82.71875 329.625 86.933594 335.242188 C 91.144531 340.808594 96.304688 345.972656 102.828125 348.554688 C 103.597656 348.871094 104.546875 349.324219 104.59375 350.140625 C 104.636719 350.546875 104.410156 350.910156 104.230469 351.269531 C 101.195312 356.707031 97.347656 361.640625 92.773438 365.808594 C 87.609375 370.605469 81.226562 374.546875 74.160156 374.953125 C 73.480469 375 72.757812 375 72.078125 374.953125 C 71.035156 369.929688 69.136719 362.457031 66.054688 357.25 C 66.054688 357.25 68.5 366.261719 68.863281 374.636719 C 67.550781 374.410156 66.238281 374.140625 64.878906 373.777344 C 65.828125 364.539062 61.253906 351.632812 61.074219 351.089844 C 62.75 358.246094 62.25 368.976562 61.980469 372.917969 C 60.984375 372.601562 60.03125 372.28125 59.035156 372.011719 C 58.222656 371.738281 57.269531 371.378906 56.953125 370.5625 C 56.726562 369.972656 56.863281 369.292969 57.042969 368.660156 C 58.175781 364.042969 58.265625 359.152344 57.269531 354.484375 C 55.957031 348.238281 52.789062 342.53125 50.75 336.507812 C 48.894531 331.027344 48.121094 324.734375 50.433594 319.527344 C 49.753906 319.027344 49.164062 318.394531 48.667969 317.625 C 46.449219 314.363281 46.898438 310.109375 49.480469 307.34375 C 43.730469 299.375 39.789062 290.136719 37.890625 280.492188 C 36.214844 271.933594 36.257812 263.101562 36.257812 254.632812 C 36.257812 251.507812 36.257812 248.25 36.167969 245.078125 L 0.800781 255.902344 L 143.492188 65.34375 L 373.355469 0 L 308.054688 82.597656 C 324.855469 88.9375 340.160156 92.921875 369.734375 127.566406 Z M 369.734375 127.566406 " fill-opacity="1" fill-rule="nonzero"/></g></svg>