<svg xmlns="http://www.w3.org/2000/svg" xmlns:xlink="http://www.w3.org/1999/xlink" width="500" zoomAndPan="magnify" viewBox="0 0 375 374.999991" height="500" preserveAspectRatio="xMidYMid meet" version="1.0"><defs><clipPath id="0b13e7efd7"><path d="M 149.113281 148.871094 L 225.613281 148.871094 L 225.613281 226.121094 L 149.113281 226.121094 Z M 149.113281 148.871094 " clip-rule="nonzero"/></clipPath></defs><g clip-path="url(#0b13e7efd7)"><path fill="#b76e79" d="M 225.125 175.152344 L 203.128906 198.175781 L 171.523438 211.609375 C 171.523438 211.609375 166.363281 203.472656 168.089844 195.777344 L 157.34375 199.078125 C 157.34375 199.097656 157.34375 199.125 157.34375 199.144531 C 157.363281 199.871094 157.363281 200.617188 157.363281 201.335938 C 157.363281 203.042969 157.355469 204.808594 157.679688 206.484375 C 158.042969 208.371094 158.828125 210.160156 159.957031 211.71875 C 160.636719 211.542969 161.375 211.792969 161.792969 212.402344 C 161.886719 212.539062 161.960938 212.691406 162.007812 212.847656 C 162.25 212.828125 162.492188 212.847656 162.738281 212.921875 C 163.464844 213.136719 163.996094 213.742188 164.445312 214.351562 C 165.300781 215.507812 166 216.777344 166.867188 217.933594 C 167.738281 219.078125 168.800781 220.144531 170.144531 220.675781 C 170.300781 220.742188 170.496094 220.832031 170.507812 221 C 170.515625 221.085938 170.46875 221.160156 170.433594 221.234375 C 169.808594 222.355469 169.015625 223.371094 168.074219 224.230469 C 167.007812 225.21875 165.695312 226.03125 164.238281 226.113281 C 164.097656 226.121094 163.949219 226.121094 163.808594 226.113281 C 163.59375 225.078125 163.203125 223.539062 162.570312 222.464844 C 162.570312 222.464844 163.070312 224.324219 163.148438 226.046875 C 162.875 226 162.605469 225.945312 162.324219 225.871094 C 162.523438 223.96875 161.578125 221.308594 161.542969 221.199219 C 161.886719 222.671875 161.785156 224.882812 161.730469 225.695312 C 161.523438 225.628906 161.328125 225.5625 161.121094 225.507812 C 160.953125 225.453125 160.757812 225.375 160.695312 225.207031 C 160.648438 225.085938 160.675781 224.949219 160.710938 224.816406 C 160.945312 223.867188 160.964844 222.859375 160.757812 221.898438 C 160.488281 220.609375 159.835938 219.433594 159.414062 218.195312 C 159.03125 217.066406 158.875 215.769531 159.351562 214.695312 C 159.210938 214.59375 159.089844 214.460938 158.984375 214.304688 C 158.527344 213.632812 158.621094 212.753906 159.152344 212.1875 C 157.96875 210.542969 157.15625 208.640625 156.765625 206.652344 C 156.421875 204.890625 156.429688 203.070312 156.429688 201.328125 C 156.429688 200.683594 156.429688 200.011719 156.410156 199.359375 L 149.125 201.589844 L 178.519531 162.335938 L 225.871094 148.871094 L 212.421875 165.886719 C 215.882812 167.195312 219.035156 168.015625 225.125 175.152344 Z M 225.125 175.152344 " fill-opacity="1" fill-rule="nonzero"/></g></svg>