<svg xmlns="http://www.w3.org/2000/svg" xmlns:xlink="http://www.w3.org/1999/xlink" width="500" zoomAndPan="magnify" viewBox="0 0 375 374.999991" height="500" preserveAspectRatio="xMidYMid meet" version="1.0"><defs><clipPath id="1bcc3cecb9"><path d="M 149.355469 148.871094 L 225.855469 148.871094 L 225.855469 226.121094 L 149.355469 226.121094 Z M 149.355469 148.871094 " clip-rule="nonzero"/></clipPath></defs><g clip-path="url(#1bcc3cecb9)"><path fill="#b76e79" d="M 225.582031 220.109375 L 225.433594 218 L 222.324219 177.316406 L 222.28125 176.328125 L 222.175781 175.378906 L 221.945312 174.417969 L 221.667969 173.605469 L 221.355469 172.9375 L 221.003906 172.382812 L 220.597656 171.910156 L 220.191406 171.566406 L 219.71875 171.257812 L 219.070312 170.929688 L 218.378906 170.648438 L 217.636719 170.40625 L 216.851562 170.207031 L 216.457031 170.132812 L 215.351562 170.023438 L 214.773438 169.980469 L 213.449219 169.917969 L 211.515625 169.917969 L 210.492188 169.921875 L 210.488281 169.921875 L 210.425781 169.894531 L 210.40625 169.828125 L 210.414062 169.085938 L 210.363281 168.308594 L 210.300781 167.929688 L 210.191406 167.601562 L 210.035156 167.320312 L 209.835938 167.089844 L 209.621094 166.925781 L 209.375 166.796875 L 209.09375 166.707031 L 208.773438 166.652344 L 208.707031 166.617188 L 208.679688 166.546875 L 208.691406 165.726562 L 208.671875 164.914062 L 208.617188 164.109375 L 208.523438 163.316406 L 208.398438 162.535156 L 208.242188 161.765625 L 208.050781 161.011719 L 207.824219 160.269531 L 207.566406 159.550781 L 207.277344 158.847656 L 206.953125 158.160156 L 206.597656 157.492188 L 206.214844 156.851562 L 205.800781 156.226562 L 205.351562 155.628906 L 204.875 155.046875 L 204.355469 154.488281 L 203.808594 153.949219 L 203.242188 153.449219 L 202.648438 152.972656 L 202.019531 152.519531 L 201.359375 152.097656 L 200.683594 151.707031 L 199.980469 151.347656 L 199.039062 150.914062 L 198.078125 150.523438 L 197.09375 150.167969 L 196.089844 149.851562 L 195.066406 149.574219 L 194.023438 149.335938 L 192.957031 149.136719 L 191.875 148.976562 L 191.230469 148.914062 L 190.503906 148.875 L 188.550781 148.875 C 188.550781 148.875 187.492188 148.882812 187.492188 148.882812 L 186.433594 148.875 L 184.476562 148.875 C 184.476562 148.875 183.753906 148.914062 183.753906 148.914062 L 183.109375 148.976562 L 182.023438 149.136719 L 180.960938 149.335938 L 179.917969 149.574219 L 178.890625 149.851562 L 177.890625 150.167969 L 176.90625 150.523438 L 175.945312 150.914062 L 175 151.347656 L 174.296875 151.707031 L 173.621094 152.097656 L 172.964844 152.519531 L 172.335938 152.972656 L 171.738281 153.449219 L 171.171875 153.949219 L 170.625 154.488281 L 170.113281 155.050781 L 169.632812 155.628906 L 169.183594 156.230469 L 168.769531 156.851562 L 168.386719 157.492188 L 168.03125 158.160156 L 167.707031 158.847656 L 167.417969 159.550781 L 167.160156 160.273438 L 166.933594 161.011719 L 166.742188 161.769531 L 166.585938 162.539062 L 166.460938 163.320312 L 166.367188 164.113281 L 166.3125 164.914062 L 166.292969 165.730469 L 166.304688 166.550781 L 166.277344 166.621094 L 166.210938 166.65625 L 165.890625 166.710938 L 165.609375 166.796875 L 165.359375 166.929688 L 165.148438 167.089844 L 164.949219 167.324219 L 164.792969 167.605469 L 164.683594 167.933594 L 164.621094 168.3125 L 164.566406 169.089844 L 164.578125 169.832031 L 164.554688 169.894531 L 164.492188 169.925781 L 163.464844 169.921875 L 161.535156 169.921875 L 160.207031 169.980469 L 159.632812 170.023438 L 158.527344 170.132812 L 158.132812 170.210938 L 157.34375 170.40625 L 156.605469 170.648438 L 155.910156 170.933594 L 155.265625 171.261719 L 154.792969 171.566406 L 154.386719 171.914062 L 153.976562 172.382812 L 153.625 172.941406 L 153.316406 173.609375 L 153.039062 174.417969 L 152.808594 175.378906 L 152.703125 176.328125 L 152.660156 177.316406 L 149.554688 218 L 149.402344 220.109375 L 149.371094 220.96875 L 149.457031 221.535156 L 149.59375 222.0625 L 149.785156 222.566406 L 150.023438 223.035156 L 150.257812 223.394531 L 150.515625 223.726562 L 150.8125 224.050781 L 151.132812 224.34375 L 151.496094 224.628906 L 151.882812 224.882812 L 152.304688 225.121094 L 152.75 225.328125 L 153.734375 225.683594 L 154.808594 225.9375 L 155.964844 226.082031 L 157.148438 226.117188 L 157.835938 226.105469 L 176.910156 226.101562 L 177.339844 226.09375 L 180.4375 226.0625 L 187.492188 226.050781 L 194.546875 226.0625 L 197.640625 226.09375 L 198.074219 226.101562 L 217.148438 226.101562 C 217.148438 226.101562 217.832031 226.117188 217.832031 226.117188 L 219.019531 226.082031 L 220.175781 225.933594 L 221.25 225.683594 L 222.234375 225.328125 L 222.675781 225.117188 L 223.097656 224.882812 L 223.488281 224.628906 L 223.851562 224.34375 L 224.171875 224.046875 L 224.46875 223.726562 L 224.730469 223.390625 L 224.960938 223.03125 L 225.199219 222.5625 L 225.390625 222.058594 L 225.527344 221.53125 L 225.617188 220.96875 Z M 174.101562 161.417969 L 174.429688 160.851562 L 174.820312 160.292969 L 175.269531 159.769531 L 175.777344 159.261719 L 176.355469 158.769531 L 176.976562 158.316406 L 177.660156 157.882812 L 178.402344 157.472656 L 179.203125 157.097656 L 180.03125 156.761719 L 180.898438 156.46875 L 181.785156 156.214844 L 182.695312 156.007812 L 183.597656 155.855469 L 184.460938 155.757812 L 186.140625 155.640625 L 187.496094 155.601562 L 188.851562 155.640625 L 190.527344 155.753906 L 191.394531 155.855469 L 192.296875 156.007812 L 193.207031 156.214844 L 194.09375 156.464844 L 194.960938 156.761719 L 195.785156 157.09375 L 196.585938 157.472656 L 197.332031 157.878906 L 198.015625 158.3125 L 198.636719 158.765625 L 199.214844 159.257812 L 199.722656 159.765625 L 200.167969 160.289062 L 200.5625 160.847656 L 200.890625 161.417969 L 201.160156 162.019531 L 201.566406 163.21875 L 201.863281 164.445312 L 202.027344 165.480469 L 202.113281 166.535156 L 202.085938 166.617188 L 202.007812 166.660156 L 201.613281 166.734375 L 201.269531 166.855469 L 200.980469 167.023438 L 200.742188 167.238281 L 200.578125 167.460938 L 200.453125 167.71875 L 200.367188 168.011719 L 200.320312 168.335938 L 200.289062 169.097656 L 200.308594 169.828125 C 200.308594 169.828125 200.289062 169.890625 200.289062 169.890625 L 200.230469 169.914062 L 196.949219 169.921875 L 192.390625 169.871094 L 188.183594 169.839844 L 187.496094 169.839844 C 187.496094 169.839844 186.808594 169.839844 186.808594 169.839844 L 182.601562 169.871094 L 178.042969 169.921875 L 174.761719 169.917969 L 174.703125 169.890625 L 174.679688 169.832031 C 174.679688 169.832031 174.703125 169.097656 174.703125 169.097656 L 174.667969 168.335938 L 174.625 168.007812 L 174.539062 167.71875 L 174.414062 167.460938 L 174.25 167.238281 L 174.011719 167.023438 L 173.722656 166.855469 L 173.378906 166.734375 L 172.984375 166.660156 L 172.90625 166.617188 L 172.878906 166.535156 L 172.964844 165.484375 L 173.128906 164.445312 L 173.425781 163.222656 L 173.828125 162.019531 Z M 174.101562 161.417969 " fill-opacity="1" fill-rule="nonzero"/><path fill="#e6cfc3" d="M 225.582031 220.109375 L 225.433594 218 L 222.324219 177.316406 L 222.28125 176.328125 L 222.175781 175.378906 L 221.945312 174.417969 L 221.667969 173.605469 L 221.355469 172.9375 L 221.003906 172.382812 L 220.597656 171.910156 L 220.191406 171.566406 L 219.71875 171.257812 L 219.070312 170.929688 L 218.378906 170.648438 L 217.636719 170.40625 L 216.851562 170.207031 L 216.457031 170.132812 L 215.351562 170.023438 L 214.773438 169.980469 L 213.449219 169.917969 L 211.515625 169.917969 L 210.492188 169.921875 L 210.488281 169.921875 L 210.425781 169.894531 L 210.40625 169.828125 L 210.414062 169.085938 L 210.363281 168.308594 L 210.300781 167.929688 L 210.191406 167.601562 L 210.035156 167.320312 L 209.835938 167.089844 L 209.621094 166.925781 L 209.375 166.796875 L 209.09375 166.707031 L 208.773438 166.652344 L 208.707031 166.617188 L 208.679688 166.546875 L 208.691406 165.726562 L 208.671875 164.914062 L 208.617188 164.109375 L 208.523438 163.316406 L 208.398438 162.535156 L 208.242188 161.765625 L 208.050781 161.011719 L 207.824219 160.269531 L 207.566406 159.550781 L 207.277344 158.847656 L 206.953125 158.160156 L 206.597656 157.492188 L 206.214844 156.851562 L 205.800781 156.226562 L 205.351562 155.628906 L 204.875 155.046875 L 204.355469 154.488281 L 203.808594 153.949219 L 203.242188 153.449219 L 202.648438 152.972656 L 202.019531 152.519531 L 201.359375 152.097656 L 200.683594 151.707031 L 199.980469 151.347656 L 199.039062 150.914062 L 198.078125 150.523438 L 197.09375 150.167969 L 196.089844 149.851562 L 195.066406 149.574219 L 194.023438 149.335938 L 192.957031 149.136719 L 191.875 148.976562 L 191.230469 148.914062 L 190.503906 148.875 L 188.550781 148.875 C 188.550781 148.875 187.492188 148.882812 187.492188 148.882812 L 186.433594 148.875 L 184.476562 148.875 C 184.476562 148.875 183.753906 148.914062 183.753906 148.914062 L 183.109375 148.976562 L 182.023438 149.136719 L 180.960938 149.335938 L 179.917969 149.574219 L 178.890625 149.851562 L 177.890625 150.167969 L 176.90625 150.523438 L 175.945312 150.914062 L 175 151.347656 L 174.296875 151.707031 L 173.621094 152.097656 L 172.964844 152.519531 L 172.335938 152.972656 L 171.738281 153.449219 L 171.171875 153.949219 L 170.625 154.488281 L 170.113281 155.050781 L 169.632812 155.628906 L 169.183594 156.230469 L 168.769531 156.851562 L 168.386719 157.492188 L 168.03125 158.160156 L 167.707031 158.847656 L 167.417969 159.550781 L 167.160156 160.273438 L 166.933594 161.011719 L 166.742188 161.769531 L 166.585938 162.539062 L 166.460938 163.320312 L 166.367188 164.113281 L 166.3125 164.914062 L 166.292969 165.730469 L 166.304688 166.550781 L 166.277344 166.621094 L 166.210938 166.65625 L 165.890625 166.710938 L 165.609375 166.796875 L 165.359375 166.929688 L 165.148438 167.089844 L 164.949219 167.324219 L 164.792969 167.605469 L 164.683594 167.933594 L 164.621094 168.3125 L 164.566406 169.089844 L 164.578125 169.832031 L 164.554688 169.894531 L 164.492188 169.925781 L 163.464844 169.921875 L 161.535156 169.921875 L 160.207031 169.980469 L 159.632812 170.023438 L 158.527344 170.132812 L 158.132812 170.210938 L 157.34375 170.40625 L 156.605469 170.648438 L 155.910156 170.933594 L 155.265625 171.261719 L 154.792969 171.566406 L 154.386719 171.914062 L 153.976562 172.382812 L 153.625 172.941406 L 153.316406 173.609375 L 153.039062 174.417969 L 152.808594 175.378906 L 152.703125 176.328125 L 152.660156 177.316406 L 149.554688 218 L 149.402344 220.109375 L 149.371094 220.96875 L 149.457031 221.535156 L 149.59375 222.0625 L 149.785156 222.566406 L 150.023438 223.035156 L 150.257812 223.394531 L 150.515625 223.726562 L 150.8125 224.050781 L 151.132812 224.34375 L 151.496094 224.628906 L 151.882812 224.882812 L 152.304688 225.121094 L 152.75 225.328125 L 153.734375 225.683594 L 154.808594 225.9375 L 155.964844 226.082031 L 157.148438 226.117188 L 157.835938 226.105469 L 176.910156 226.101562 L 177.339844 226.09375 L 180.4375 226.0625 L 187.492188 226.050781 L 194.546875 226.0625 L 197.640625 226.09375 L 198.074219 226.101562 L 217.148438 226.101562 C 217.148438 226.101562 217.832031 226.117188 217.832031 226.117188 L 219.019531 226.082031 L 220.175781 225.933594 L 221.25 225.683594 L 222.234375 225.328125 L 222.675781 225.117188 L 223.097656 224.882812 L 223.488281 224.628906 L 223.851562 224.34375 L 224.171875 224.046875 L 224.46875 223.726562 L 224.730469 223.390625 L 224.960938 223.03125 L 225.199219 222.5625 L 225.390625 222.058594 L 225.527344 221.53125 L 225.617188 220.96875 Z M 208.449219 167.578125 L 208.640625 167.59375 L 208.828125 167.644531 L 209 167.730469 L 209.148438 167.847656 L 209.273438 167.988281 L 209.367188 168.148438 L 209.425781 168.320312 L 209.445312 168.503906 L 209.445312 169.851562 C 209.445312 169.851562 209.390625 169.914062 209.390625 169.914062 L 209.382812 169.914062 L 201.304688 169.925781 L 201.261719 169.90625 L 201.242188 169.863281 L 201.242188 168.515625 C 201.242188 168.515625 201.257812 168.335938 201.257812 168.335938 L 201.316406 168.160156 L 201.40625 168 L 201.53125 167.859375 L 201.679688 167.742188 L 201.851562 167.65625 L 202.039062 167.601562 L 202.234375 167.585938 L 208.449219 167.574219 Z M 200.308594 169.832031 C 200.308594 169.832031 200.289062 169.890625 200.289062 169.890625 L 200.230469 169.917969 L 196.949219 169.921875 L 192.390625 169.871094 L 188.183594 169.839844 L 187.496094 169.839844 C 187.496094 169.839844 186.808594 169.839844 186.808594 169.839844 L 182.601562 169.871094 L 178.042969 169.921875 L 174.761719 169.917969 L 174.703125 169.890625 L 174.679688 169.832031 C 174.679688 169.832031 174.703125 169.097656 174.703125 169.097656 L 174.667969 168.339844 L 174.625 168.011719 L 174.539062 167.71875 L 174.414062 167.460938 L 174.25 167.238281 L 174.011719 167.023438 L 173.722656 166.855469 L 173.378906 166.738281 L 172.984375 166.660156 L 172.90625 166.621094 L 172.878906 166.539062 L 172.964844 165.484375 L 173.128906 164.445312 L 173.425781 163.222656 L 173.828125 162.019531 L 174.101562 161.417969 L 174.429688 160.851562 L 174.820312 160.292969 L 175.269531 159.769531 L 175.777344 159.261719 L 176.355469 158.769531 L 176.976562 158.316406 L 177.660156 157.882812 L 178.402344 157.472656 L 179.203125 157.097656 L 180.03125 156.761719 L 180.898438 156.46875 L 181.785156 156.214844 L 182.695312 156.007812 L 183.597656 155.855469 L 184.460938 155.757812 L 186.140625 155.640625 L 187.496094 155.601562 L 188.851562 155.640625 L 190.527344 155.753906 L 191.394531 155.855469 L 192.296875 156.007812 L 193.207031 156.214844 L 194.09375 156.464844 L 194.960938 156.761719 L 195.785156 157.09375 L 196.585938 157.472656 L 197.332031 157.878906 L 198.015625 158.3125 L 198.636719 158.765625 L 199.214844 159.257812 L 199.722656 159.765625 L 200.167969 160.289062 L 200.5625 160.847656 L 200.890625 161.417969 L 201.160156 162.019531 L 201.566406 163.21875 L 201.863281 164.445312 L 202.027344 165.480469 L 202.113281 166.535156 L 202.085938 166.617188 L 202.007812 166.660156 L 201.613281 166.734375 L 201.269531 166.855469 L 200.980469 167.023438 L 200.742188 167.238281 L 200.578125 167.460938 L 200.453125 167.71875 L 200.367188 168.011719 L 200.320312 168.335938 L 200.289062 169.097656 L 200.308594 169.828125 Z M 167.269531 165.554688 L 167.304688 164.679688 L 167.375 163.8125 L 167.484375 162.984375 L 167.628906 162.175781 L 167.808594 161.417969 L 168.027344 160.671875 L 168.277344 159.976562 L 168.828125 158.726562 L 169.472656 157.558594 L 170.207031 156.476562 L 171.035156 155.472656 L 171.597656 154.886719 L 172.195312 154.335938 L 172.832031 153.820312 L 173.503906 153.332031 L 174.207031 152.878906 L 174.949219 152.457031 L 175.726562 152.070312 L 176.542969 151.714844 L 177.898438 151.199219 L 179.269531 150.761719 L 180.65625 150.402344 L 182.054688 150.121094 L 183.367188 149.925781 L 184.691406 149.792969 L 186.027344 149.734375 L 187.378906 149.738281 L 187.492188 149.738281 C 187.492188 149.738281 187.605469 149.738281 187.605469 149.738281 L 188.957031 149.730469 L 190.292969 149.792969 L 191.617188 149.925781 L 192.929688 150.117188 L 194.328125 150.402344 L 195.714844 150.761719 L 197.085938 151.199219 L 198.445312 151.714844 L 199.257812 152.070312 L 200.035156 152.457031 L 200.777344 152.878906 L 201.484375 153.332031 L 202.15625 153.816406 L 202.789062 154.335938 L 203.390625 154.886719 L 203.953125 155.472656 L 204.78125 156.472656 L 205.515625 157.554688 L 206.160156 158.722656 L 206.710938 159.976562 L 206.960938 160.667969 L 207.179688 161.417969 L 207.359375 162.175781 L 207.503906 162.984375 L 207.613281 163.8125 L 207.6875 164.679688 L 207.71875 165.554688 L 207.71875 166.460938 L 207.675781 166.5625 L 207.566406 166.609375 L 203.160156 166.609375 L 203.089844 166.582031 L 203.0625 166.515625 L 203.015625 165.671875 L 202.921875 164.839844 L 202.757812 163.9375 L 202.53125 163.042969 L 202.25 162.15625 L 201.90625 161.28125 L 201.667969 160.769531 L 201.410156 160.308594 L 201.132812 159.894531 L 200.839844 159.53125 L 200.308594 158.976562 L 199.75 158.457031 L 199.148438 157.960938 L 198.515625 157.5 L 197.847656 157.066406 L 197.152344 156.671875 L 196.417969 156.304688 L 195.664062 155.976562 L 194.878906 155.683594 L 194.082031 155.429688 L 193.253906 155.210938 L 192.414062 155.03125 L 191.558594 154.894531 L 190.695312 154.796875 L 189.832031 154.742188 L 188.972656 154.730469 L 187.496094 154.734375 L 186.023438 154.730469 L 185.160156 154.742188 L 184.296875 154.800781 L 183.4375 154.894531 L 182.578125 155.035156 L 181.738281 155.210938 L 180.910156 155.429688 L 180.113281 155.683594 L 179.328125 155.976562 L 178.574219 156.304688 L 177.84375 156.671875 L 177.148438 157.066406 L 176.476562 157.5 L 175.847656 157.960938 L 175.246094 158.457031 L 174.683594 158.976562 L 174.152344 159.53125 L 173.859375 159.894531 L 173.582031 160.308594 L 173.324219 160.769531 L 173.089844 161.28125 L 172.742188 162.15625 L 172.460938 163.042969 L 172.238281 163.9375 L 172.074219 164.839844 L 171.976562 165.671875 L 171.933594 166.515625 L 171.902344 166.582031 L 171.832031 166.609375 L 167.425781 166.609375 C 167.425781 166.609375 167.320312 166.566406 167.320312 166.566406 L 167.273438 166.460938 L 167.273438 165.554688 Z M 165.546875 168.523438 L 165.5625 168.335938 L 165.617188 168.160156 L 165.710938 167.996094 L 165.832031 167.855469 L 165.976562 167.738281 L 166.148438 167.652344 L 166.332031 167.597656 L 166.519531 167.578125 L 172.734375 167.578125 L 172.921875 167.597656 L 173.105469 167.652344 L 173.273438 167.738281 L 173.421875 167.855469 L 173.542969 167.996094 L 173.636719 168.160156 L 173.691406 168.335938 L 173.707031 168.523438 L 173.707031 169.855469 L 173.6875 169.898438 L 173.644531 169.921875 L 165.613281 169.921875 L 165.566406 169.898438 L 165.546875 169.855469 Z M 153.121094 183.941406 L 153.707031 176.128906 L 153.773438 175.519531 L 153.886719 174.980469 L 154.148438 174.140625 L 154.417969 173.511719 L 154.742188 172.988281 L 155.128906 172.554688 L 155.425781 172.316406 L 155.765625 172.101562 L 156.273438 171.84375 L 156.792969 171.621094 L 157.484375 171.382812 L 158.195312 171.195312 L 158.925781 171.0625 L 159.679688 170.980469 L 160.957031 170.949219 L 165.664062 170.886719 L 171.574219 170.859375 L 187.007812 170.886719 L 187.492188 170.886719 C 187.492188 170.886719 187.976562 170.886719 187.976562 170.886719 L 203.410156 170.855469 L 209.320312 170.886719 L 214.027344 170.945312 L 215.304688 170.976562 L 216.058594 171.058594 L 216.789062 171.191406 L 217.5 171.378906 L 218.1875 171.617188 L 218.707031 171.84375 L 219.214844 172.097656 L 219.558594 172.3125 L 219.851562 172.550781 L 220.242188 172.988281 L 220.5625 173.511719 L 220.835938 174.140625 L 221.09375 174.976562 L 221.210938 175.519531 L 221.277344 176.128906 L 221.867188 183.941406 L 221.894531 185.371094 L 221.882812 186.082031 L 221.8125 188.519531 L 221.738281 189.394531 L 221.625 190.167969 L 221.488281 190.769531 L 221.289062 191.382812 L 221.03125 192.011719 L 220.710938 192.652344 L 220.382812 193.203125 L 220.019531 193.714844 L 219.609375 194.195312 L 219.167969 194.632812 L 218.679688 195.035156 L 218.160156 195.390625 L 217.59375 195.707031 L 216.996094 195.980469 L 216.375 196.203125 L 215.71875 196.382812 L 215.027344 196.519531 L 214.3125 196.605469 L 211.996094 196.765625 L 211.992188 196.765625 L 211.878906 196.722656 L 211.828125 196.609375 L 211.824219 194.121094 L 211.792969 193.601562 L 211.699219 193.164062 L 211.539062 192.789062 L 211.324219 192.484375 L 211.121094 192.300781 L 210.894531 192.15625 L 210.625 192.03125 L 210.324219 191.9375 L 209.59375 191.820312 L 208.589844 191.789062 L 204.089844 191.800781 L 203.445312 191.835938 L 202.894531 191.949219 L 202.441406 192.144531 L 202.074219 192.417969 L 201.871094 192.648438 L 201.699219 192.929688 L 201.570312 193.382812 L 201.476562 194.132812 L 201.457031 195.070312 L 201.46875 196.929688 C 201.46875 196.929688 201.425781 197.03125 201.425781 197.03125 L 201.328125 197.074219 L 187.488281 197.042969 L 173.644531 197.074219 L 173.546875 197.03125 L 173.503906 196.933594 L 173.519531 195.070312 L 173.496094 194.132812 L 173.40625 193.378906 L 173.273438 192.929688 L 173.101562 192.648438 L 172.902344 192.417969 L 172.535156 192.144531 L 172.078125 191.949219 L 171.53125 191.835938 L 170.886719 191.804688 L 166.382812 191.789062 L 165.378906 191.820312 L 164.648438 191.9375 L 164.351562 192.03125 L 164.078125 192.15625 L 163.851562 192.304688 L 163.652344 192.488281 L 163.433594 192.789062 L 163.273438 193.164062 L 163.179688 193.601562 L 163.148438 194.121094 L 163.144531 196.613281 L 163.097656 196.726562 L 162.980469 196.769531 L 162.976562 196.769531 L 160.660156 196.609375 L 159.945312 196.519531 L 159.253906 196.386719 L 158.601562 196.207031 L 157.976562 195.980469 L 157.378906 195.710938 L 156.8125 195.394531 L 156.292969 195.035156 L 155.804688 194.632812 L 155.363281 194.195312 L 154.953125 193.714844 L 154.589844 193.203125 L 154.261719 192.652344 L 153.941406 192.011719 L 153.683594 191.382812 L 153.488281 190.769531 L 153.351562 190.167969 L 153.238281 189.394531 L 153.160156 188.519531 L 153.089844 186.082031 L 153.082031 185.371094 L 153.109375 183.941406 Z M 202.4375 200.289062 L 202.5 200.246094 L 210.832031 200.199219 L 210.867188 200.210938 L 210.898438 200.265625 L 210.925781 205.148438 L 210.902344 205.375 L 210.835938 205.59375 L 210.734375 205.792969 L 210.585938 205.96875 L 210.410156 206.113281 L 210.210938 206.222656 L 209.992188 206.289062 L 209.765625 206.3125 L 203.632812 206.34375 L 203.40625 206.324219 L 203.1875 206.257812 L 202.984375 206.152344 L 202.804688 206.007812 L 202.660156 205.835938 L 202.550781 205.632812 L 202.480469 205.417969 L 202.460938 205.1875 L 202.433594 200.308594 L 202.4375 200.285156 Z M 202.417969 199.167969 L 202.433594 194.066406 L 202.460938 193.808594 L 202.539062 193.5625 L 202.660156 193.339844 L 202.828125 193.140625 L 203.03125 192.976562 L 203.261719 192.855469 L 203.511719 192.785156 L 203.769531 192.761719 L 209.574219 192.78125 L 209.832031 192.804688 L 210.082031 192.882812 L 210.308594 193.003906 L 210.511719 193.167969 L 210.675781 193.367188 L 210.796875 193.59375 L 210.871094 193.839844 L 210.894531 194.097656 L 210.878906 199.199219 L 210.835938 199.261719 L 210.8125 199.265625 L 202.484375 199.238281 L 202.441406 199.21875 L 202.421875 199.171875 Z M 164.152344 200.199219 L 164.175781 200.199219 C 164.175781 200.199219 172.460938 200.253906 172.460938 200.253906 L 172.480469 200.253906 C 172.480469 200.253906 172.535156 200.289062 172.535156 200.289062 L 172.554688 200.347656 L 172.523438 205.152344 L 172.496094 205.386719 L 172.429688 205.613281 L 172.320312 205.820312 L 172.171875 206.003906 L 171.992188 206.152344 L 171.789062 206.261719 L 171.566406 206.328125 L 171.335938 206.347656 L 165.21875 206.304688 L 164.988281 206.28125 L 164.769531 206.210938 L 164.566406 206.097656 L 164.386719 205.945312 L 164.242188 205.761719 L 164.132812 205.554688 L 164.070312 205.328125 L 164.046875 205.09375 L 164.082031 200.285156 L 164.101562 200.226562 L 164.152344 200.195312 Z M 164.101562 199.179688 L 164.113281 194.042969 L 164.136719 193.792969 L 164.214844 193.554688 L 164.332031 193.332031 L 164.496094 193.140625 L 164.691406 192.984375 L 164.917969 192.867188 L 165.164062 192.792969 L 165.417969 192.769531 L 171.253906 192.78125 L 171.511719 192.804688 L 171.753906 192.878906 L 171.980469 192.996094 L 172.175781 193.15625 L 172.339844 193.351562 L 172.457031 193.570312 L 172.53125 193.8125 L 172.558594 194.058594 L 172.546875 199.195312 L 172.492188 199.257812 L 172.488281 199.257812 L 164.167969 199.242188 L 164.125 199.226562 L 164.105469 199.183594 Z M 224.625 220.878906 L 224.515625 221.527344 L 224.339844 222.050781 L 224.097656 222.542969 L 223.78125 223.007812 L 223.402344 223.429688 L 222.964844 223.8125 L 222.480469 224.140625 L 221.949219 224.414062 L 221.386719 224.628906 L 220.542969 224.863281 L 219.703125 225.03125 L 218.875 225.128906 L 218.050781 225.15625 L 188.535156 225.085938 L 187.492188 225.085938 C 187.492188 225.085938 186.449219 225.085938 186.449219 225.085938 L 156.9375 225.15625 L 156.113281 225.128906 L 155.285156 225.027344 L 154.445312 224.863281 L 153.597656 224.628906 L 153.035156 224.414062 L 152.507812 224.140625 L 152.019531 223.808594 L 151.582031 223.425781 L 151.207031 223.003906 L 150.890625 222.539062 L 150.644531 222.050781 L 150.46875 221.527344 L 150.359375 220.875 L 150.359375 220.222656 C 150.359375 220.222656 152.578125 191.160156 152.578125 191.160156 L 152.582031 191.144531 L 152.636719 191.152344 L 152.953125 192.136719 L 153.375 193.058594 L 153.777344 193.730469 L 154.246094 194.367188 L 154.777344 194.96875 L 155.375 195.535156 L 155.980469 195.996094 L 156.675781 196.402344 L 157.472656 196.753906 L 158.363281 197.050781 L 159.339844 197.292969 L 160.410156 197.480469 L 161.601562 197.628906 L 163.027344 197.742188 L 163.101562 197.773438 L 163.128906 197.847656 L 163.082031 205.5625 L 163.085938 205.589844 L 163.203125 205.957031 L 163.347656 206.265625 L 163.523438 206.527344 L 163.726562 206.738281 L 164.082031 206.976562 L 164.496094 207.132812 L 165.011719 207.230469 L 165.640625 207.269531 L 168.359375 207.304688 L 171.738281 207.304688 L 171.878906 207.285156 L 172.164062 207.191406 L 172.414062 207.070312 L 172.648438 206.921875 L 172.847656 206.746094 L 173.128906 206.386719 L 173.335938 205.933594 L 173.460938 205.394531 L 173.507812 204.769531 L 173.511719 198.144531 L 173.546875 198.066406 L 173.621094 198.035156 L 186.820312 198.074219 L 187.492188 198.074219 C 187.492188 198.074219 188.164062 198.074219 188.164062 198.074219 L 201.367188 198.035156 L 201.441406 198.070312 L 201.472656 198.144531 L 201.480469 204.769531 L 201.527344 205.394531 L 201.652344 205.933594 L 201.859375 206.386719 L 202.140625 206.75 L 202.339844 206.921875 L 202.574219 207.074219 L 202.824219 207.191406 L 203.109375 207.285156 L 203.25 207.304688 L 206.632812 207.304688 L 209.347656 207.269531 L 209.976562 207.230469 L 210.488281 207.132812 L 210.90625 206.976562 L 211.257812 206.738281 L 211.464844 206.527344 L 211.636719 206.265625 L 211.785156 205.957031 L 211.898438 205.589844 L 211.902344 205.558594 L 211.859375 197.847656 L 211.886719 197.773438 L 211.957031 197.738281 L 213.382812 197.625 L 214.578125 197.480469 L 215.648438 197.289062 L 216.625 197.050781 L 217.511719 196.753906 L 218.308594 196.398438 L 219.007812 195.996094 L 219.613281 195.535156 L 220.210938 194.96875 L 220.742188 194.367188 L 221.210938 193.730469 L 221.609375 193.058594 L 222.035156 192.136719 L 222.351562 191.15625 L 222.402344 191.144531 L 222.410156 191.160156 L 224.628906 220.226562 L 224.628906 220.875 Z M 224.625 220.878906 " fill-opacity="1" fill-rule="nonzero"/></g></svg>