<svg xmlns="http://www.w3.org/2000/svg" xmlns:xlink="http://www.w3.org/1999/xlink" width="500" zoomAndPan="magnify" viewBox="0 0 375 374.999991" height="500" preserveAspectRatio="xMidYMid meet" version="1.0"><defs><clipPath id="7092c11db5"><path d="M 2.34375 0 L 372.84375 0 L 372.84375 375 L 2.34375 375 Z M 2.34375 0 " clip-rule="nonzero"/></clipPath></defs><g clip-path="url(#7092c11db5)"><path fill="#b76e79" d="M 372.394531 345.800781 L 371.667969 335.5625 L 356.570312 138.066406 L 356.359375 133.273438 L 355.863281 128.660156 L 354.742188 123.996094 L 353.386719 120.066406 L 351.878906 116.816406 L 350.175781 114.117188 L 348.195312 111.835938 L 346.230469 110.15625 L 343.925781 108.671875 L 340.789062 107.078125 L 337.421875 105.699219 L 333.824219 104.527344 L 330.007812 103.566406 L 328.09375 103.199219 L 322.722656 102.664062 L 319.929688 102.460938 L 313.488281 102.164062 L 304.113281 102.164062 L 299.132812 102.183594 L 299.128906 102.183594 L 298.824219 102.050781 L 298.714844 101.730469 L 298.765625 98.128906 L 298.519531 94.347656 L 298.203125 92.515625 L 297.675781 90.914062 L 296.925781 89.558594 L 295.949219 88.425781 L 294.914062 87.628906 L 293.71875 87.011719 L 292.347656 86.570312 L 290.804688 86.3125 L 290.476562 86.144531 L 290.347656 85.796875 L 290.402344 81.8125 L 290.300781 77.863281 L 290.027344 73.96875 L 289.585938 70.117188 L 288.984375 66.324219 L 288.214844 62.59375 L 287.28125 58.929688 L 286.1875 55.328125 L 284.9375 51.828125 L 283.53125 48.417969 L 281.964844 45.078125 L 280.234375 41.839844 L 278.378906 38.722656 L 276.363281 35.703125 L 274.1875 32.789062 L 271.863281 29.976562 L 269.355469 27.253906 L 266.699219 24.644531 L 263.949219 22.210938 L 261.054688 19.898438 L 258.007812 17.703125 L 254.808594 15.644531 L 251.53125 13.757812 L 248.121094 12.007812 L 243.539062 9.910156 L 238.867188 8.003906 L 234.097656 6.28125 L 229.230469 4.753906 L 224.257812 3.40625 L 219.191406 2.25 L 214.027344 1.277344 L 208.757812 0.503906 L 205.628906 0.191406 L 202.113281 0.0117188 L 192.628906 0.0117188 C 192.628906 0.0117188 187.488281 0.0546875 187.488281 0.0546875 L 182.34375 0.0078125 L 172.855469 0.0078125 C 172.855469 0.0078125 169.339844 0.191406 169.339844 0.191406 L 166.210938 0.503906 L 160.941406 1.277344 L 155.777344 2.25 L 150.714844 3.40625 L 145.738281 4.753906 L 140.871094 6.28125 L 136.101562 8.003906 L 131.429688 9.910156 L 126.847656 12.007812 L 123.4375 13.765625 L 120.160156 15.644531 L 116.964844 17.710938 L 113.914062 19.90625 L 111.019531 22.21875 L 108.269531 24.652344 L 105.613281 27.257812 L 103.117188 29.980469 L 100.789062 32.789062 L 98.617188 35.710938 L 96.601562 38.730469 L 94.738281 41.835938 L 93.011719 45.085938 L 91.445312 48.417969 L 90.035156 51.835938 L 88.789062 55.332031 L 87.695312 58.929688 L 86.765625 62.605469 L 85.996094 66.339844 L 85.390625 70.132812 L 84.945312 73.980469 L 84.675781 77.878906 L 84.570312 81.824219 L 84.632812 85.808594 L 84.503906 86.152344 L 84.179688 86.328125 L 82.636719 86.589844 L 81.265625 87.019531 L 80.054688 87.644531 L 79.019531 88.4375 L 78.050781 89.574219 L 77.300781 90.933594 L 76.769531 92.53125 L 76.457031 94.363281 L 76.199219 98.132812 L 76.253906 101.742188 L 76.144531 102.054688 L 75.84375 102.195312 L 75.835938 102.195312 L 70.851562 102.179688 L 61.488281 102.179688 L 55.046875 102.472656 L 52.253906 102.675781 L 46.882812 103.210938 L 44.96875 103.578125 L 41.144531 104.539062 L 37.550781 105.707031 L 34.1875 107.089844 L 31.050781 108.683594 L 28.746094 110.171875 L 26.777344 111.847656 L 24.800781 114.128906 L 23.085938 116.832031 L 21.589844 120.074219 L 20.230469 124.003906 L 19.113281 128.667969 L 18.613281 133.277344 L 18.40625 138.074219 L 3.320312 335.570312 L 2.589844 345.804688 L 2.429688 349.984375 L 2.851562 352.722656 L 3.523438 355.285156 L 4.449219 357.730469 L 5.601562 360.007812 L 6.730469 361.753906 L 7.984375 363.375 L 9.425781 364.9375 L 10.992188 366.367188 L 12.75 367.746094 L 14.632812 368.988281 L 16.679688 370.132812 L 18.828125 371.144531 L 23.617188 372.871094 L 28.832031 374.097656 L 34.445312 374.808594 L 40.191406 374.976562 L 43.523438 374.914062 L 136.113281 374.894531 L 138.214844 374.863281 L 153.238281 374.699219 L 187.488281 374.644531 L 221.730469 374.699219 L 236.753906 374.863281 L 238.855469 374.894531 L 331.445312 374.894531 C 331.445312 374.894531 334.777344 374.96875 334.777344 374.96875 L 340.53125 374.804688 L 346.144531 374.089844 L 351.355469 372.867188 L 356.144531 371.140625 L 358.289062 370.125 L 360.339844 368.980469 L 362.21875 367.738281 L 363.988281 366.363281 L 365.550781 364.929688 L 366.988281 363.367188 L 368.257812 361.746094 L 369.375 360 L 370.53125 357.726562 L 371.457031 355.277344 L 372.128906 352.714844 L 372.554688 349.980469 Z M 122.484375 60.902344 L 124.070312 58.144531 L 125.980469 55.433594 L 128.152344 52.886719 L 130.617188 50.429688 L 133.425781 48.035156 L 136.4375 45.835938 L 139.757812 43.734375 L 143.367188 41.753906 L 147.257812 39.921875 L 151.265625 38.300781 L 155.476562 36.867188 L 159.785156 35.644531 L 164.207031 34.640625 L 168.578125 33.898438 L 172.78125 33.425781 L 180.929688 32.847656 L 187.507812 32.667969 L 194.085938 32.847656 L 202.230469 33.410156 L 206.433594 33.890625 L 210.804688 34.636719 L 215.226562 35.636719 L 219.527344 36.855469 L 223.738281 38.292969 L 227.746094 39.910156 L 231.640625 41.742188 L 235.246094 43.726562 L 238.566406 45.824219 L 241.578125 48.03125 L 244.390625 50.414062 L 246.855469 52.875 L 249.023438 55.425781 L 250.9375 58.132812 L 252.527344 60.898438 L 253.832031 63.8125 L 255.8125 69.644531 L 257.25 75.589844 L 258.042969 80.625 L 258.460938 85.738281 L 258.324219 86.140625 L 257.957031 86.34375 L 256.039062 86.703125 L 254.371094 87.289062 L 252.964844 88.105469 L 251.804688 89.144531 L 251.011719 90.226562 L 250.40625 91.476562 L 249.988281 92.902344 L 249.769531 94.488281 L 249.609375 98.171875 L 249.714844 101.730469 C 249.714844 101.730469 249.601562 102.023438 249.601562 102.023438 L 249.320312 102.148438 L 233.390625 102.171875 L 211.261719 101.933594 L 190.839844 101.773438 L 187.5 101.773438 C 187.5 101.773438 184.167969 101.773438 184.167969 101.773438 L 163.753906 101.933594 L 141.621094 102.171875 L 125.691406 102.152344 L 125.402344 102.023438 L 125.300781 101.742188 C 125.300781 101.742188 125.402344 98.171875 125.402344 98.171875 L 125.242188 94.488281 L 125.023438 92.894531 L 124.605469 91.480469 L 124.003906 90.234375 L 123.203125 89.152344 L 122.054688 88.113281 L 120.644531 87.296875 L 118.980469 86.710938 L 117.054688 86.347656 L 116.6875 86.144531 L 116.550781 85.746094 L 116.96875 80.632812 L 117.761719 75.597656 L 119.199219 69.652344 L 121.167969 63.816406 L 122.484375 60.898438 Z M 122.484375 60.902344 " fill-opacity="1" fill-rule="nonzero"/><path fill="#f5efea" d="M 372.394531 345.800781 L 371.667969 335.5625 L 356.570312 138.066406 L 356.359375 133.273438 L 355.863281 128.660156 L 354.742188 123.996094 L 353.386719 120.066406 L 351.878906 116.816406 L 350.175781 114.117188 L 348.195312 111.835938 L 346.230469 110.15625 L 343.925781 108.671875 L 340.789062 107.078125 L 337.421875 105.699219 L 333.824219 104.527344 L 330.007812 103.566406 L 328.09375 103.199219 L 322.722656 102.664062 L 319.929688 102.460938 L 313.488281 102.164062 L 304.113281 102.164062 L 299.132812 102.183594 L 299.128906 102.183594 L 298.824219 102.050781 L 298.714844 101.730469 L 298.765625 98.128906 L 298.519531 94.347656 L 298.203125 92.515625 L 297.675781 90.914062 L 296.925781 89.558594 L 295.949219 88.425781 L 294.914062 87.628906 L 293.71875 87.011719 L 292.347656 86.570312 L 290.804688 86.3125 L 290.476562 86.144531 L 290.347656 85.796875 L 290.402344 81.8125 L 290.300781 77.863281 L 290.027344 73.96875 L 289.585938 70.117188 L 288.984375 66.324219 L 288.214844 62.59375 L 287.28125 58.929688 L 286.1875 55.328125 L 284.9375 51.828125 L 283.53125 48.417969 L 281.964844 45.078125 L 280.234375 41.839844 L 278.378906 38.722656 L 276.363281 35.703125 L 274.1875 32.789062 L 271.863281 29.976562 L 269.355469 27.253906 L 266.699219 24.644531 L 263.949219 22.210938 L 261.054688 19.898438 L 258.007812 17.703125 L 254.808594 15.644531 L 251.53125 13.757812 L 248.121094 12.007812 L 243.539062 9.910156 L 238.867188 8.003906 L 234.097656 6.28125 L 229.230469 4.753906 L 224.257812 3.40625 L 219.191406 2.25 L 214.027344 1.277344 L 208.757812 0.503906 L 205.628906 0.191406 L 202.113281 0.0117188 L 192.628906 0.0117188 C 192.628906 0.0117188 187.488281 0.0546875 187.488281 0.0546875 L 182.34375 0.0078125 L 172.855469 0.0078125 C 172.855469 0.0078125 169.339844 0.191406 169.339844 0.191406 L 166.210938 0.503906 L 160.941406 1.277344 L 155.777344 2.25 L 150.714844 3.40625 L 145.738281 4.753906 L 140.871094 6.28125 L 136.101562 8.003906 L 131.429688 9.910156 L 126.847656 12.007812 L 123.4375 13.765625 L 120.160156 15.644531 L 116.964844 17.710938 L 113.914062 19.90625 L 111.019531 22.21875 L 108.269531 24.652344 L 105.613281 27.257812 L 103.117188 29.980469 L 100.789062 32.789062 L 98.617188 35.710938 L 96.601562 38.730469 L 94.738281 41.835938 L 93.011719 45.085938 L 91.445312 48.417969 L 90.035156 51.835938 L 88.789062 55.332031 L 87.695312 58.929688 L 86.765625 62.605469 L 85.996094 66.339844 L 85.390625 70.132812 L 84.945312 73.980469 L 84.675781 77.878906 L 84.570312 81.824219 L 84.632812 85.808594 L 84.503906 86.152344 L 84.179688 86.328125 L 82.636719 86.589844 L 81.265625 87.019531 L 80.054688 87.644531 L 79.019531 88.4375 L 78.050781 89.574219 L 77.300781 90.933594 L 76.769531 92.53125 L 76.457031 94.363281 L 76.199219 98.132812 L 76.253906 101.742188 L 76.144531 102.054688 L 75.84375 102.195312 L 75.835938 102.195312 L 70.851562 102.179688 L 61.488281 102.179688 L 55.046875 102.472656 L 52.253906 102.675781 L 46.882812 103.210938 L 44.96875 103.578125 L 41.144531 104.539062 L 37.550781 105.707031 L 34.1875 107.089844 L 31.050781 108.683594 L 28.746094 110.171875 L 26.777344 111.847656 L 24.800781 114.128906 L 23.085938 116.832031 L 21.589844 120.074219 L 20.230469 124.003906 L 19.113281 128.667969 L 18.613281 133.277344 L 18.40625 138.074219 L 3.320312 335.570312 L 2.589844 345.804688 L 2.429688 349.984375 L 2.851562 352.722656 L 3.523438 355.285156 L 4.449219 357.730469 L 5.601562 360.007812 L 6.730469 361.753906 L 7.984375 363.375 L 9.425781 364.9375 L 10.992188 366.367188 L 12.75 367.746094 L 14.632812 368.988281 L 16.679688 370.132812 L 18.828125 371.144531 L 23.617188 372.871094 L 28.832031 374.097656 L 34.445312 374.808594 L 40.191406 374.976562 L 43.523438 374.914062 L 136.113281 374.894531 L 138.214844 374.863281 L 153.238281 374.699219 L 187.488281 374.644531 L 221.730469 374.699219 L 236.753906 374.863281 L 238.855469 374.894531 L 331.445312 374.894531 C 331.445312 374.894531 334.777344 374.96875 334.777344 374.96875 L 340.53125 374.804688 L 346.144531 374.089844 L 351.355469 372.867188 L 356.144531 371.140625 L 358.289062 370.125 L 360.339844 368.980469 L 362.21875 367.738281 L 363.988281 366.363281 L 365.550781 364.929688 L 366.988281 363.367188 L 368.257812 361.746094 L 369.375 360 L 370.53125 357.726562 L 371.457031 355.277344 L 372.128906 352.714844 L 372.554688 349.980469 Z M 289.222656 90.792969 L 290.15625 90.871094 L 291.066406 91.132812 L 291.898438 91.550781 L 292.621094 92.109375 L 293.230469 92.789062 L 293.675781 93.566406 L 293.957031 94.414062 L 294.054688 95.292969 L 294.054688 101.835938 C 294.054688 101.835938 293.789062 102.136719 293.789062 102.136719 L 293.761719 102.136719 L 254.539062 102.195312 L 254.324219 102.109375 L 254.238281 101.894531 L 254.238281 95.355469 C 254.238281 95.355469 254.316406 94.476562 254.316406 94.476562 L 254.589844 93.632812 L 255.035156 92.847656 L 255.640625 92.164062 L 256.363281 91.605469 L 257.195312 91.1875 L 258.097656 90.921875 L 259.046875 90.835938 L 289.222656 90.785156 Z M 249.714844 101.734375 C 249.714844 101.734375 249.601562 102.03125 249.601562 102.03125 L 249.320312 102.152344 L 233.390625 102.179688 L 211.261719 101.9375 L 190.839844 101.777344 L 187.5 101.777344 C 187.5 101.777344 184.167969 101.777344 184.167969 101.777344 L 163.753906 101.9375 L 141.621094 102.179688 L 125.691406 102.160156 L 125.402344 102.03125 L 125.300781 101.746094 C 125.300781 101.746094 125.402344 98.175781 125.402344 98.175781 L 125.242188 94.492188 L 125.023438 92.902344 L 124.605469 91.488281 L 124.003906 90.238281 L 123.203125 89.15625 L 122.054688 88.117188 L 120.644531 87.300781 L 118.980469 86.71875 L 117.054688 86.355469 L 116.6875 86.152344 L 116.550781 85.753906 L 116.96875 80.636719 L 117.761719 75.601562 L 119.199219 69.65625 L 121.167969 63.824219 L 122.484375 60.902344 L 124.070312 58.144531 L 125.980469 55.433594 L 128.152344 52.886719 L 130.617188 50.429688 L 133.425781 48.035156 L 136.4375 45.835938 L 139.757812 43.734375 L 143.367188 41.753906 L 147.257812 39.921875 L 151.265625 38.300781 L 155.476562 36.867188 L 159.785156 35.644531 L 164.207031 34.640625 L 168.578125 33.898438 L 172.78125 33.425781 L 180.929688 32.847656 L 187.507812 32.667969 L 194.085938 32.847656 L 202.230469 33.410156 L 206.433594 33.890625 L 210.804688 34.636719 L 215.226562 35.636719 L 219.527344 36.855469 L 223.738281 38.292969 L 227.746094 39.910156 L 231.640625 41.742188 L 235.246094 43.726562 L 238.566406 45.824219 L 241.578125 48.03125 L 244.390625 50.414062 L 246.855469 52.875 L 249.023438 55.425781 L 250.9375 58.132812 L 252.527344 60.898438 L 253.832031 63.8125 L 255.8125 69.644531 L 257.25 75.589844 L 258.042969 80.625 L 258.460938 85.738281 L 258.324219 86.140625 L 257.957031 86.34375 L 256.039062 86.703125 L 254.371094 87.289062 L 252.964844 88.105469 L 251.804688 89.144531 L 251.011719 90.226562 L 250.40625 91.476562 L 249.988281 92.902344 L 249.769531 94.488281 L 249.609375 98.171875 L 249.714844 101.730469 Z M 89.316406 80.988281 L 89.484375 76.738281 L 89.835938 72.527344 L 90.363281 68.503906 L 91.070312 64.585938 L 91.941406 60.898438 L 93 57.277344 L 94.210938 53.90625 L 96.890625 47.835938 L 100.015625 42.160156 L 103.585938 36.902344 L 107.59375 32.035156 L 110.328125 29.199219 L 113.238281 26.527344 L 116.316406 24.011719 L 119.574219 21.652344 L 123 19.449219 L 126.601562 17.402344 L 130.382812 15.523438 L 134.328125 13.796875 L 140.925781 11.300781 L 147.578125 9.179688 L 154.304688 7.433594 L 161.089844 6.054688 L 167.460938 5.101562 L 173.894531 4.476562 L 180.386719 4.175781 L 186.933594 4.191406 L 187.488281 4.191406 C 187.488281 4.191406 188.046875 4.191406 188.046875 4.191406 L 194.59375 4.167969 L 201.085938 4.46875 L 207.523438 5.101562 L 213.890625 6.050781 L 220.679688 7.425781 L 227.402344 9.179688 L 234.0625 11.300781 L 240.652344 13.789062 L 244.597656 15.515625 L 248.378906 17.398438 L 251.980469 19.445312 L 255.417969 21.644531 L 258.671875 24 L 261.75 26.519531 L 264.664062 29.195312 L 267.394531 32.027344 L 271.414062 36.886719 L 274.984375 42.152344 L 278.109375 47.820312 L 280.789062 53.894531 L 282 57.265625 L 283.058594 60.890625 L 283.925781 64.578125 L 284.636719 68.496094 L 285.164062 72.523438 L 285.515625 76.734375 L 285.683594 80.980469 L 285.683594 85.371094 L 285.460938 85.882812 L 284.9375 86.097656 L 263.550781 86.097656 L 263.214844 85.960938 L 263.070312 85.636719 L 262.851562 81.554688 L 262.382812 77.503906 L 261.589844 73.125 L 260.503906 68.785156 L 259.125 64.488281 L 257.457031 60.238281 L 256.308594 57.757812 L 255.0625 55.511719 L 253.714844 53.507812 L 252.28125 51.738281 L 249.707031 49.039062 L 246.984375 46.519531 L 244.0625 44.109375 L 241.007812 41.882812 L 237.75 39.769531 L 234.375 37.851562 L 230.816406 36.074219 L 227.164062 34.488281 L 223.351562 33.0625 L 219.472656 31.824219 L 215.453125 30.769531 L 211.378906 29.902344 L 207.222656 29.238281 L 203.039062 28.765625 L 198.855469 28.5 L 194.667969 28.425781 L 187.511719 28.457031 L 180.351562 28.425781 L 176.171875 28.5 L 171.984375 28.769531 L 167.796875 29.238281 L 163.640625 29.90625 L 159.566406 30.761719 L 155.546875 31.820312 L 151.664062 33.054688 L 147.855469 34.480469 L 144.203125 36.074219 L 140.648438 37.851562 L 137.273438 39.769531 L 134.011719 41.882812 L 130.960938 44.109375 L 128.039062 46.519531 L 125.316406 49.039062 L 122.742188 51.738281 L 121.308594 53.507812 L 119.964844 55.511719 L 118.714844 57.757812 L 117.566406 60.238281 L 115.894531 64.488281 L 114.523438 68.785156 L 113.433594 73.125 L 112.648438 77.503906 L 112.175781 81.554688 L 111.953125 85.636719 L 111.8125 85.960938 L 111.472656 86.097656 L 90.085938 86.097656 C 90.085938 86.097656 89.5625 85.886719 89.5625 85.886719 L 89.34375 85.378906 L 89.34375 80.980469 Z M 80.949219 95.386719 L 81.035156 94.488281 L 81.308594 93.632812 L 81.75 92.839844 L 82.335938 92.152344 L 83.054688 91.574219 L 83.871094 91.15625 L 84.761719 90.890625 L 85.683594 90.804688 L 115.84375 90.804688 L 116.765625 90.890625 L 117.65625 91.15625 L 118.476562 91.574219 L 119.195312 92.152344 L 119.777344 92.839844 L 120.222656 93.632812 L 120.492188 94.488281 L 120.578125 95.386719 L 120.578125 101.851562 L 120.480469 102.074219 L 120.257812 102.171875 L 81.277344 102.171875 L 81.054688 102.074219 L 80.957031 101.851562 L 80.957031 95.386719 Z M 20.632812 170.242188 L 23.488281 132.320312 L 23.808594 129.351562 L 24.363281 126.730469 L 25.636719 122.65625 L 26.9375 119.613281 L 28.5 117.066406 L 30.386719 114.964844 L 31.824219 113.796875 L 33.484375 112.757812 L 35.949219 111.515625 L 38.472656 110.433594 L 41.816406 109.265625 L 45.265625 108.355469 L 48.816406 107.710938 L 52.476562 107.316406 L 58.671875 107.15625 L 81.523438 106.867188 L 110.21875 106.726562 L 185.140625 106.867188 L 187.480469 106.867188 C 187.480469 106.867188 189.835938 106.867188 189.835938 106.867188 L 264.757812 106.714844 L 293.453125 106.855469 L 316.304688 107.144531 L 322.5 107.304688 L 326.15625 107.699219 L 329.710938 108.34375 L 333.160156 109.246094 L 336.503906 110.414062 L 339.023438 111.503906 L 341.488281 112.746094 L 343.144531 113.777344 L 344.582031 114.945312 L 346.46875 117.0625 L 348.03125 119.601562 L 349.347656 122.648438 L 350.613281 126.726562 L 351.164062 129.34375 L 351.484375 132.3125 L 354.351562 170.238281 L 354.484375 177.171875 L 354.4375 180.621094 L 354.085938 192.460938 L 353.722656 196.710938 L 353.175781 200.464844 L 352.511719 203.378906 L 351.554688 206.355469 L 350.304688 209.402344 L 348.75 212.515625 L 347.15625 215.199219 L 345.386719 217.683594 L 343.402344 220.015625 L 341.257812 222.128906 L 338.890625 224.082031 L 336.363281 225.8125 L 333.609375 227.355469 L 330.71875 228.675781 L 327.6875 229.765625 L 324.515625 230.636719 L 321.152344 231.296875 L 317.679688 231.71875 L 306.4375 232.492188 L 306.417969 232.492188 L 305.863281 232.285156 L 305.632812 231.738281 L 305.613281 219.652344 L 305.453125 217.132812 L 304.996094 215.003906 L 304.230469 213.179688 L 303.171875 211.714844 L 302.199219 210.824219 L 301.09375 210.105469 L 299.777344 209.503906 L 298.328125 209.046875 L 294.78125 208.480469 L 289.910156 208.320312 L 268.050781 208.394531 L 264.921875 208.5625 L 262.253906 209.113281 L 260.054688 210.050781 L 258.269531 211.378906 L 257.285156 212.507812 L 256.464844 213.859375 L 255.824219 216.0625 L 255.375 219.699219 L 255.269531 224.257812 L 255.332031 233.292969 C 255.332031 233.292969 255.128906 233.777344 255.128906 233.777344 L 254.648438 233.980469 L 187.464844 233.828125 L 120.277344 233.988281 L 119.796875 233.785156 L 119.59375 233.300781 L 119.65625 224.261719 L 119.550781 219.707031 L 119.101562 216.054688 L 118.464844 213.859375 L 117.640625 212.503906 L 116.65625 211.382812 L 114.871094 210.050781 L 112.671875 209.113281 L 110.003906 208.5625 L 106.875 208.402344 L 85.015625 208.328125 L 80.140625 208.488281 L 76.597656 209.054688 L 75.148438 209.507812 L 73.832031 210.109375 L 72.726562 210.828125 L 71.753906 211.722656 L 70.695312 213.183594 L 69.921875 215.011719 L 69.472656 217.136719 L 69.3125 219.65625 L 69.296875 231.742188 L 69.0625 232.289062 L 68.507812 232.5 L 68.488281 232.5 L 57.246094 231.726562 L 53.773438 231.300781 L 50.410156 230.644531 L 47.25 229.777344 L 44.207031 228.683594 L 41.316406 227.367188 L 38.5625 225.824219 L 36.035156 224.082031 L 33.671875 222.128906 L 31.523438 220.015625 L 29.539062 217.683594 L 27.769531 215.199219 L 26.175781 212.515625 L 24.621094 209.402344 L 23.371094 206.355469 L 22.414062 203.378906 L 21.75 200.464844 L 21.203125 196.707031 L 20.835938 192.46875 L 20.488281 180.628906 L 20.441406 177.171875 L 20.574219 170.238281 Z M 260.046875 249.589844 L 260.34375 249.375 L 300.792969 249.164062 L 300.960938 249.214844 L 301.113281 249.484375 L 301.242188 273.183594 L 301.136719 274.277344 L 300.816406 275.335938 L 300.308594 276.3125 L 299.601562 277.167969 L 298.746094 277.875 L 297.769531 278.398438 L 296.710938 278.722656 L 295.605469 278.832031 L 265.84375 278.992188 L 264.738281 278.890625 L 263.675781 278.574219 L 262.691406 278.054688 L 261.824219 277.359375 L 261.109375 276.511719 L 260.582031 275.539062 L 260.257812 274.488281 L 260.144531 273.382812 L 260.023438 249.683594 L 260.039062 249.578125 Z M 259.941406 244.15625 L 260.027344 219.382812 L 260.15625 218.140625 L 260.527344 216.945312 L 261.128906 215.851562 L 261.941406 214.894531 L 262.917969 214.101562 L 264.035156 213.515625 L 265.246094 213.164062 L 266.503906 213.042969 L 294.675781 213.140625 L 295.929688 213.269531 L 297.140625 213.640625 L 298.253906 214.230469 L 299.226562 215.023438 L 300.023438 215.992188 L 300.613281 217.101562 L 300.976562 218.292969 L 301.101562 219.535156 L 301.015625 244.308594 L 300.804688 244.605469 L 300.695312 244.628906 L 260.273438 244.488281 L 260.054688 244.390625 L 259.953125 244.167969 Z M 74.1875 249.148438 L 74.3125 249.148438 C 74.3125 249.148438 114.523438 249.417969 114.523438 249.417969 L 114.609375 249.417969 C 114.609375 249.417969 114.871094 249.582031 114.871094 249.582031 L 114.976562 249.878906 L 114.816406 273.210938 L 114.695312 274.347656 L 114.367188 275.441406 L 113.835938 276.449219 L 113.113281 277.328125 L 112.242188 278.046875 L 111.253906 278.582031 L 110.183594 278.90625 L 109.0625 279.011719 L 79.363281 278.804688 L 78.253906 278.679688 L 77.183594 278.335938 L 76.199219 277.789062 L 75.332031 277.050781 L 74.625 276.160156 L 74.101562 275.144531 L 73.78125 274.050781 L 73.679688 272.90625 L 73.84375 249.578125 L 73.941406 249.296875 L 74.1875 249.128906 Z M 73.949219 244.210938 L 73.992188 219.269531 L 74.121094 218.058594 L 74.484375 216.898438 L 75.066406 215.828125 L 75.855469 214.894531 L 76.8125 214.125 L 77.90625 213.558594 L 79.09375 213.207031 L 80.328125 213.097656 L 108.664062 213.148438 L 109.90625 213.269531 L 111.09375 213.621094 L 112.179688 214.199219 L 113.140625 214.96875 L 113.925781 215.914062 L 114.503906 216.984375 L 114.867188 218.144531 L 114.988281 219.34375 L 114.945312 244.285156 L 114.683594 244.578125 L 114.652344 244.578125 L 74.261719 244.519531 L 74.046875 244.433594 L 73.96875 244.222656 Z M 367.753906 349.535156 L 367.21875 352.691406 L 366.367188 355.242188 L 365.183594 357.621094 L 363.644531 359.878906 L 361.820312 361.925781 L 359.691406 363.78125 L 357.324219 365.378906 L 354.761719 366.707031 L 352.03125 367.746094 L 347.925781 368.882812 L 343.851562 369.695312 L 339.824219 370.167969 L 335.828125 370.308594 L 192.554688 369.972656 L 187.492188 369.972656 C 187.492188 369.972656 182.433594 369.972656 182.433594 369.972656 L 39.160156 370.308594 L 35.164062 370.167969 L 31.136719 369.6875 L 27.0625 368.878906 L 22.953125 367.738281 L 20.226562 366.699219 L 17.660156 365.378906 L 15.296875 363.769531 L 13.167969 361.910156 L 11.34375 359.863281 L 9.804688 357.609375 L 8.617188 355.230469 L 7.769531 352.683594 L 7.234375 349.53125 L 7.234375 346.359375 C 7.234375 346.359375 18 205.273438 18 205.273438 L 18.03125 205.191406 L 18.289062 205.246094 L 19.820312 210.011719 L 21.878906 214.488281 L 23.835938 217.746094 L 26.097656 220.839844 L 28.683594 223.757812 L 31.578125 226.511719 L 34.523438 228.757812 L 37.898438 230.71875 L 41.773438 232.433594 L 46.082031 233.871094 L 50.828125 235.046875 L 56.015625 235.96875 L 61.8125 236.675781 L 68.734375 237.222656 L 69.078125 237.386719 L 69.222656 237.75 L 69 275.1875 L 69.019531 275.328125 L 69.585938 277.101562 L 70.292969 278.613281 L 71.140625 279.867188 L 72.128906 280.90625 L 73.84375 282.050781 L 75.867188 282.824219 L 78.355469 283.296875 L 81.40625 283.488281 L 94.605469 283.648438 L 111.007812 283.648438 L 111.695312 283.550781 L 113.070312 283.09375 L 114.296875 282.515625 L 115.425781 281.789062 L 116.402344 280.941406 L 117.761719 279.195312 L 118.769531 277.003906 L 119.378906 274.378906 L 119.59375 271.332031 L 119.632812 239.183594 L 119.785156 238.808594 L 120.152344 238.652344 L 184.234375 238.839844 L 187.492188 238.839844 C 187.492188 238.839844 190.753906 238.839844 190.753906 238.839844 L 254.835938 238.652344 L 255.203125 238.8125 L 255.355469 239.183594 L 255.398438 271.335938 L 255.613281 274.378906 L 256.222656 277.003906 L 257.230469 279.195312 L 258.589844 280.949219 L 259.566406 281.789062 L 260.699219 282.527344 L 261.921875 283.09375 L 263.300781 283.550781 L 263.988281 283.648438 L 280.394531 283.648438 L 293.589844 283.488281 L 296.636719 283.296875 L 299.128906 282.824219 L 301.148438 282.054688 L 302.863281 280.90625 L 303.855469 279.871094 L 304.703125 278.605469 L 305.410156 277.101562 L 305.976562 275.324219 L 305.992188 275.183594 L 305.773438 237.742188 L 305.914062 237.382812 L 306.257812 237.214844 L 313.179688 236.667969 L 318.976562 235.960938 L 324.167969 235.039062 L 328.910156 233.863281 L 333.214844 232.433594 L 337.089844 230.710938 L 340.476562 228.75 L 343.414062 226.519531 L 346.308594 223.765625 L 348.898438 220.84375 L 351.171875 217.753906 L 353.113281 214.492188 L 355.175781 210.011719 L 356.703125 205.261719 L 356.964844 205.199219 L 356.992188 205.285156 L 367.769531 346.371094 L 367.769531 349.53125 Z M 367.753906 349.535156 " fill-opacity="1" fill-rule="nonzero"/></g></svg>