<svg xmlns="http://www.w3.org/2000/svg" xmlns:xlink="http://www.w3.org/1999/xlink" width="500" zoomAndPan="magnify" viewBox="0 0 375 374.999991" height="500" preserveAspectRatio="xMidYMid meet" version="1.0"><defs><g/><clipPath id="a5b899a753"><path d="M 60.667969 60.667969 L 314.332031 60.667969 L 314.332031 314.332031 L 60.667969 314.332031 Z M 60.667969 60.667969 " clip-rule="nonzero"/></clipPath><clipPath id="3086870ff0"><path d="M 187.5 60.667969 C 117.453125 60.667969 60.667969 117.453125 60.667969 187.5 C 60.667969 257.546875 117.453125 314.332031 187.5 314.332031 C 257.546875 314.332031 314.332031 257.546875 314.332031 187.5 C 314.332031 117.453125 257.546875 60.667969 187.5 60.667969 Z M 187.5 60.667969 " clip-rule="nonzero"/></clipPath><clipPath id="10bc669ec7"><path d="M 0.667969 0.667969 L 254.332031 0.667969 L 254.332031 254.332031 L 0.667969 254.332031 Z M 0.667969 0.667969 " clip-rule="nonzero"/></clipPath><clipPath id="ac3d56dbea"><path d="M 127.5 0.667969 C 57.453125 0.667969 0.667969 57.453125 0.667969 127.5 C 0.667969 197.546875 57.453125 254.332031 127.5 254.332031 C 197.546875 254.332031 254.332031 197.546875 254.332031 127.5 C 254.332031 57.453125 197.546875 0.667969 127.5 0.667969 Z M 127.5 0.667969 " clip-rule="nonzero"/></clipPath><clipPath id="7ab8583833"><rect x="0" width="255" y="0" height="255"/></clipPath><clipPath id="c046486cfd"><path d="M 132.449219 159 L 172 159 L 172 216 L 132.449219 216 Z M 132.449219 159 " clip-rule="nonzero"/></clipPath><clipPath id="e9fc71239a"><path d="M 203 159 L 242.699219 159 L 242.699219 216 L 203 216 Z M 203 159 " clip-rule="nonzero"/></clipPath><clipPath id="d0cc0955ae"><path d="M 168 144.757812 L 207 144.757812 L 207 230.257812 L 168 230.257812 Z M 168 144.757812 " clip-rule="nonzero"/></clipPath></defs><rect x="-37.5" width="450" fill="#ffffff" y="-37.499999" height="449.999989" fill-opacity="1"/><rect x="-37.5" width="450" fill="#ffffff" y="-37.499999" height="449.999989" fill-opacity="1"/><g clip-path="url(#a5b899a753)"><g clip-path="url(#3086870ff0)"><g transform="matrix(1, 0, 0, 1, 60, 60)"><g clip-path="url(#7ab8583833)"><g clip-path="url(#10bc669ec7)"><g clip-path="url(#ac3d56dbea)"><path fill="#b76e79" d="M 0.667969 0.667969 L 254.332031 0.667969 L 254.332031 254.332031 L 0.667969 254.332031 Z M 0.667969 0.667969 " fill-opacity="1" fill-rule="nonzero"/></g></g></g></g></g></g><g fill="#e6cfc3" fill-opacity="1"><g transform="translate(94.504261, 158.014638)"><g><path d="M 0.734375 -1.765625 C 0.671875 -1.585938 0.570312 -1.46875 0.4375 -1.40625 C 0.3125 -1.34375 0.15625 -1.34375 -0.03125 -1.40625 L -9.078125 -4.546875 C -9.265625 -4.609375 -9.382812 -4.703125 -9.4375 -4.828125 C -9.5 -4.953125 -9.5 -5.101562 -9.4375 -5.28125 C -9.382812 -5.425781 -9.3125 -5.53125 -9.21875 -5.59375 C -9.132812 -5.664062 -9.007812 -5.71875 -8.84375 -5.75 L -0.203125 -7.109375 L -0.34375 -6.6875 L -6.3125 -13.0625 C -6.425781 -13.1875 -6.5 -13.300781 -6.53125 -13.40625 C -6.5625 -13.507812 -6.546875 -13.644531 -6.484375 -13.8125 C -6.429688 -13.976562 -6.34375 -14.09375 -6.21875 -14.15625 C -6.101562 -14.21875 -5.953125 -14.21875 -5.765625 -14.15625 L 3.28125 -11.015625 C 3.46875 -10.953125 3.597656 -10.859375 3.671875 -10.734375 C 3.742188 -10.617188 3.742188 -10.46875 3.671875 -10.28125 C 3.617188 -10.113281 3.523438 -10 3.390625 -9.9375 C 3.265625 -9.875 3.109375 -9.875 2.921875 -9.9375 L -5.03125 -12.6875 L -4.921875 -13.015625 L 0.5 -7.203125 C 0.601562 -7.085938 0.664062 -6.984375 0.6875 -6.890625 C 0.707031 -6.804688 0.691406 -6.695312 0.640625 -6.5625 C 0.597656 -6.4375 0.535156 -6.34375 0.453125 -6.28125 C 0.378906 -6.226562 0.273438 -6.191406 0.140625 -6.171875 L -7.75 -4.90625 L -7.640625 -5.234375 L 0.328125 -2.46875 C 0.515625 -2.40625 0.640625 -2.3125 0.703125 -2.1875 C 0.773438 -2.070312 0.785156 -1.929688 0.734375 -1.765625 Z M 0.734375 -1.765625 "/></g></g></g><g fill="#e6cfc3" fill-opacity="1"><g transform="translate(100.401026, 142.385527)"><g><path d="M 0.921875 -1.734375 C 0.816406 -1.546875 0.6875 -1.425781 0.53125 -1.375 C 0.382812 -1.320312 0.210938 -1.347656 0.015625 -1.453125 L -8.109375 -5.765625 C -8.304688 -5.867188 -8.425781 -6 -8.46875 -6.15625 C -8.519531 -6.3125 -8.492188 -6.484375 -8.390625 -6.671875 L -5.78125 -11.609375 C -5.695312 -11.753906 -5.59375 -11.84375 -5.46875 -11.875 C -5.351562 -11.914062 -5.226562 -11.898438 -5.09375 -11.828125 C -4.945312 -11.753906 -4.851562 -11.65625 -4.8125 -11.53125 C -4.769531 -11.40625 -4.789062 -11.269531 -4.875 -11.125 L -7.234375 -6.65625 L -4.015625 -4.953125 L -1.796875 -9.140625 C -1.722656 -9.285156 -1.625 -9.375 -1.5 -9.40625 C -1.382812 -9.445312 -1.253906 -9.429688 -1.109375 -9.359375 C -0.960938 -9.273438 -0.867188 -9.171875 -0.828125 -9.046875 C -0.785156 -8.929688 -0.800781 -8.800781 -0.875 -8.65625 L -3.09375 -4.46875 L 0.265625 -2.6875 L 2.625 -7.15625 C 2.707031 -7.300781 2.804688 -7.390625 2.921875 -7.421875 C 3.046875 -7.460938 3.175781 -7.445312 3.3125 -7.375 C 3.46875 -7.289062 3.5625 -7.1875 3.59375 -7.0625 C 3.632812 -6.945312 3.613281 -6.816406 3.53125 -6.671875 Z M -7.65625 -10.140625 C -7.613281 -10.023438 -7.613281 -9.921875 -7.65625 -9.828125 C -7.695312 -9.734375 -7.757812 -9.660156 -7.84375 -9.609375 C -7.9375 -9.566406 -8.023438 -9.554688 -8.109375 -9.578125 C -8.203125 -9.597656 -8.28125 -9.660156 -8.34375 -9.765625 L -9.421875 -11.875 C -9.492188 -12 -9.519531 -12.113281 -9.5 -12.21875 C -9.476562 -12.332031 -9.425781 -12.429688 -9.34375 -12.515625 C -9.269531 -12.597656 -9.179688 -12.648438 -9.078125 -12.671875 C -8.972656 -12.691406 -8.867188 -12.675781 -8.765625 -12.625 C -8.671875 -12.582031 -8.597656 -12.5 -8.546875 -12.375 Z M -7.65625 -10.140625 "/></g></g></g><g fill="#e6cfc3" fill-opacity="1"><g transform="translate(106.610621, 131.278074)"><g><path d="M 1.125 -1.578125 C 1 -1.410156 0.859375 -1.316406 0.703125 -1.296875 C 0.546875 -1.273438 0.390625 -1.320312 0.234375 -1.4375 L -7.390625 -6.84375 C -7.554688 -6.96875 -7.648438 -7.101562 -7.671875 -7.25 C -7.703125 -7.394531 -7.660156 -7.550781 -7.546875 -7.71875 C -7.429688 -7.882812 -7.296875 -7.976562 -7.140625 -8 C -6.992188 -8.019531 -6.835938 -7.96875 -6.671875 -7.84375 L 0.59375 -2.6875 L 3.4375 -6.6875 C 3.539062 -6.832031 3.65625 -6.921875 3.78125 -6.953125 C 3.914062 -6.984375 4.054688 -6.945312 4.203125 -6.84375 C 4.335938 -6.738281 4.414062 -6.617188 4.4375 -6.484375 C 4.457031 -6.347656 4.414062 -6.207031 4.3125 -6.0625 Z M 1.125 -1.578125 "/></g></g></g><g fill="#e6cfc3" fill-opacity="1"><g transform="translate(113.769554, 121.530197)"><g><path d="M 0.828125 -0.703125 C 0.710938 -0.585938 0.59375 -0.519531 0.46875 -0.5 C 0.34375 -0.488281 0.234375 -0.519531 0.140625 -0.59375 C 0.046875 -0.675781 -0.0351562 -0.789062 -0.109375 -0.9375 L -4.0625 -10.40625 C -4.15625 -10.59375 -4.1875 -10.757812 -4.15625 -10.90625 C -4.125 -11.0625 -4.054688 -11.195312 -3.953125 -11.3125 C -3.847656 -11.414062 -3.722656 -11.484375 -3.578125 -11.515625 C -3.441406 -11.546875 -3.269531 -11.523438 -3.0625 -11.453125 L 6.578125 -7.96875 C 6.742188 -7.925781 6.867188 -7.851562 6.953125 -7.75 C 7.035156 -7.65625 7.070312 -7.550781 7.0625 -7.4375 C 7.0625 -7.320312 7.003906 -7.203125 6.890625 -7.078125 C 6.765625 -6.953125 6.628906 -6.878906 6.484375 -6.859375 C 6.335938 -6.847656 6.175781 -6.878906 6 -6.953125 L 3.375 -7.921875 L 4.015625 -8.140625 L -0.40625 -3.484375 L -0.234375 -4.140625 L 0.875 -1.578125 C 0.945312 -1.390625 0.984375 -1.222656 0.984375 -1.078125 C 0.984375 -0.941406 0.929688 -0.816406 0.828125 -0.703125 Z M -2.828125 -10.234375 L -0.390625 -4.578125 L -0.859375 -4.515625 L 2.953125 -8.53125 L 2.953125 -8.09375 L -2.8125 -10.25 Z M -2.828125 -10.234375 "/></g></g></g><g fill="#e6cfc3" fill-opacity="1"><g transform="translate(124.198883, 110.999831)"><g><path d="M 1.5625 -1.0625 C 1.414062 -0.945312 1.269531 -0.894531 1.125 -0.90625 C 0.976562 -0.925781 0.84375 -1.019531 0.71875 -1.1875 L -5.0625 -8.75 C -5.1875 -8.90625 -5.238281 -9.054688 -5.21875 -9.203125 C -5.207031 -9.359375 -5.140625 -9.484375 -5.015625 -9.578125 C -4.890625 -9.671875 -4.78125 -9.71875 -4.6875 -9.71875 C -4.601562 -9.726562 -4.472656 -9.703125 -4.296875 -9.640625 L 6.15625 -6.734375 L 5.875 -6.515625 L 0.71875 -13.234375 C 0.601562 -13.390625 0.550781 -13.535156 0.5625 -13.671875 C 0.582031 -13.804688 0.671875 -13.929688 0.828125 -14.046875 C 0.960938 -14.160156 1.097656 -14.207031 1.234375 -14.1875 C 1.378906 -14.164062 1.507812 -14.078125 1.625 -13.921875 L 7.453125 -6.328125 C 7.566406 -6.171875 7.617188 -6.023438 7.609375 -5.890625 C 7.609375 -5.753906 7.546875 -5.640625 7.421875 -5.546875 C 7.304688 -5.453125 7.191406 -5.398438 7.078125 -5.390625 C 6.960938 -5.390625 6.832031 -5.410156 6.6875 -5.453125 L -3.78125 -8.40625 L -3.5 -8.609375 L 1.640625 -1.890625 C 1.765625 -1.722656 1.816406 -1.566406 1.796875 -1.421875 C 1.785156 -1.285156 1.707031 -1.164062 1.5625 -1.0625 Z M 1.5625 -1.0625 "/></g></g></g><g fill="#e6cfc3" fill-opacity="1"><g transform="translate(136.463776, 102.188193)"><g><path d="M 1.71875 -0.875 C 1.539062 -0.769531 1.375 -0.738281 1.21875 -0.78125 C 1.070312 -0.832031 0.953125 -0.941406 0.859375 -1.109375 L -3.96875 -9.28125 C -4.070312 -9.457031 -4.101562 -9.617188 -4.0625 -9.765625 C -4.03125 -9.921875 -3.925781 -10.050781 -3.75 -10.15625 C -3.582031 -10.257812 -3.425781 -10.285156 -3.28125 -10.234375 C -3.132812 -10.191406 -3.007812 -10.082031 -2.90625 -9.90625 L 1.921875 -1.734375 C 2.015625 -1.566406 2.046875 -1.410156 2.015625 -1.265625 C 1.992188 -1.117188 1.894531 -0.988281 1.71875 -0.875 Z M 1.71875 -0.875 "/></g></g></g><g fill="#e6cfc3" fill-opacity="1"><g transform="translate(143.34246, 98.237096)"><g><path d="M 1.796875 -0.8125 C 1.597656 -0.71875 1.421875 -0.695312 1.265625 -0.75 C 1.117188 -0.8125 1 -0.941406 0.90625 -1.140625 L -2.875 -9.53125 C -2.957031 -9.726562 -2.96875 -9.898438 -2.90625 -10.046875 C -2.851562 -10.203125 -2.726562 -10.328125 -2.53125 -10.421875 L 2.546875 -12.703125 C 2.703125 -12.773438 2.835938 -12.789062 2.953125 -12.75 C 3.066406 -12.707031 3.15625 -12.613281 3.21875 -12.46875 C 3.28125 -12.320312 3.289062 -12.1875 3.25 -12.0625 C 3.21875 -11.9375 3.125 -11.835938 2.96875 -11.765625 L -1.625 -9.703125 L -0.140625 -6.390625 L 4.171875 -8.328125 C 4.328125 -8.398438 4.460938 -8.410156 4.578125 -8.359375 C 4.691406 -8.316406 4.785156 -8.222656 4.859375 -8.078125 C 4.929688 -7.921875 4.945312 -7.78125 4.90625 -7.65625 C 4.863281 -7.539062 4.765625 -7.445312 4.609375 -7.375 L 0.296875 -5.4375 L 1.859375 -1.96875 L 6.453125 -4.03125 C 6.609375 -4.101562 6.742188 -4.117188 6.859375 -4.078125 C 6.972656 -4.035156 7.0625 -3.941406 7.125 -3.796875 C 7.195312 -3.628906 7.210938 -3.488281 7.171875 -3.375 C 7.128906 -3.257812 7.03125 -3.164062 6.875 -3.09375 Z M 1.796875 -0.8125 "/></g></g></g><g fill="#e6cfc3" fill-opacity="1"><g transform="translate(155.153859, 93.302764)"><g/></g></g><g fill="#e6cfc3" fill-opacity="1"><g transform="translate(162.706182, 90.903683)"><g><path d="M 1.9375 -0.390625 C 1.71875 -0.347656 1.539062 -0.367188 1.40625 -0.453125 C 1.269531 -0.546875 1.179688 -0.695312 1.140625 -0.90625 L -0.671875 -9.9375 C -0.710938 -10.144531 -0.6875 -10.316406 -0.59375 -10.453125 C -0.507812 -10.597656 -0.359375 -10.691406 -0.140625 -10.734375 L 3.328125 -11.421875 C 4.046875 -11.566406 4.671875 -11.582031 5.203125 -11.46875 C 5.742188 -11.363281 6.1875 -11.140625 6.53125 -10.796875 C 6.882812 -10.453125 7.117188 -9.988281 7.234375 -9.40625 C 7.359375 -8.757812 7.273438 -8.179688 6.984375 -7.671875 C 6.691406 -7.171875 6.234375 -6.785156 5.609375 -6.515625 L 5.578125 -6.734375 C 6.335938 -6.785156 6.960938 -6.632812 7.453125 -6.28125 C 7.953125 -5.925781 8.273438 -5.382812 8.421875 -4.65625 C 8.609375 -3.738281 8.453125 -2.972656 7.953125 -2.359375 C 7.460938 -1.753906 6.675781 -1.34375 5.59375 -1.125 Z M 2.265625 -1.453125 L 5.28125 -2.0625 C 6.070312 -2.21875 6.628906 -2.492188 6.953125 -2.890625 C 7.273438 -3.296875 7.375 -3.8125 7.25 -4.4375 C 7.125 -5.082031 6.832031 -5.515625 6.375 -5.734375 C 5.925781 -5.960938 5.304688 -6 4.515625 -5.84375 L 1.5 -5.234375 Z M 1.296875 -6.21875 L 4.078125 -6.78125 C 4.847656 -6.9375 5.394531 -7.207031 5.71875 -7.59375 C 6.050781 -7.976562 6.160156 -8.460938 6.046875 -9.046875 C 5.921875 -9.660156 5.632812 -10.082031 5.1875 -10.3125 C 4.738281 -10.539062 4.128906 -10.578125 3.359375 -10.421875 L 0.578125 -9.859375 Z M 1.296875 -6.21875 "/></g></g></g><g fill="#e6cfc3" fill-opacity="1"><g transform="translate(176.544924, 88.426578)"><g><path d="M 1.921875 0.015625 C 1.710938 0.0234375 1.550781 -0.0195312 1.4375 -0.125 C 1.332031 -0.238281 1.273438 -0.394531 1.265625 -0.59375 L 0.796875 -9.96875 C 0.785156 -10.175781 0.832031 -10.332031 0.9375 -10.4375 C 1.039062 -10.550781 1.195312 -10.613281 1.40625 -10.625 L 4.953125 -10.8125 C 6.066406 -10.863281 6.941406 -10.640625 7.578125 -10.140625 C 8.210938 -9.648438 8.554688 -8.914062 8.609375 -7.9375 C 8.640625 -7.320312 8.523438 -6.78125 8.265625 -6.3125 C 8.015625 -5.84375 7.628906 -5.476562 7.109375 -5.21875 C 6.597656 -4.957031 5.976562 -4.8125 5.25 -4.78125 L 5.390625 -4.984375 L 5.6875 -5 C 6.070312 -5.019531 6.410156 -4.9375 6.703125 -4.75 C 7.003906 -4.5625 7.285156 -4.253906 7.546875 -3.828125 L 9.125 -1.234375 C 9.207031 -1.085938 9.25 -0.945312 9.25 -0.8125 C 9.25 -0.6875 9.207031 -0.578125 9.125 -0.484375 C 9.039062 -0.390625 8.910156 -0.335938 8.734375 -0.328125 C 8.566406 -0.328125 8.425781 -0.363281 8.3125 -0.4375 C 8.207031 -0.507812 8.109375 -0.617188 8.015625 -0.765625 L 6.234375 -3.71875 C 5.984375 -4.132812 5.707031 -4.40625 5.40625 -4.53125 C 5.101562 -4.65625 4.710938 -4.703125 4.234375 -4.671875 L 2.3125 -4.578125 L 2.5 -0.65625 C 2.507812 -0.457031 2.46875 -0.296875 2.375 -0.171875 C 2.28125 -0.0546875 2.128906 0.00390625 1.921875 0.015625 Z M 2.25 -5.5625 L 5.015625 -5.703125 C 5.828125 -5.742188 6.429688 -5.941406 6.828125 -6.296875 C 7.234375 -6.660156 7.421875 -7.1875 7.390625 -7.875 C 7.347656 -8.539062 7.109375 -9.035156 6.671875 -9.359375 C 6.242188 -9.679688 5.625 -9.820312 4.8125 -9.78125 L 2.046875 -9.640625 Z M 2.25 -5.5625 "/></g></g></g><g fill="#e6cfc3" fill-opacity="1"><g transform="translate(190.481399, 87.984964)"><g><path d="M 5.421875 0.6875 C 4.734375 0.613281 4.132812 0.457031 3.625 0.21875 C 3.125 -0.0195312 2.710938 -0.335938 2.390625 -0.734375 C 2.066406 -1.140625 1.84375 -1.613281 1.71875 -2.15625 C 1.601562 -2.707031 1.582031 -3.332031 1.65625 -4.03125 L 2.25 -9.859375 C 2.269531 -10.066406 2.332031 -10.21875 2.4375 -10.3125 C 2.550781 -10.40625 2.707031 -10.441406 2.90625 -10.421875 C 3.101562 -10.398438 3.25 -10.332031 3.34375 -10.21875 C 3.4375 -10.101562 3.472656 -9.941406 3.453125 -9.734375 L 2.859375 -3.96875 C 2.753906 -2.875 2.925781 -2.03125 3.375 -1.4375 C 3.832031 -0.84375 4.550781 -0.5 5.53125 -0.40625 C 6.519531 -0.300781 7.285156 -0.492188 7.828125 -0.984375 C 8.378906 -1.484375 8.707031 -2.28125 8.8125 -3.375 L 9.40625 -9.140625 C 9.425781 -9.347656 9.492188 -9.5 9.609375 -9.59375 C 9.734375 -9.6875 9.898438 -9.722656 10.109375 -9.703125 C 10.296875 -9.679688 10.4375 -9.613281 10.53125 -9.5 C 10.625 -9.382812 10.660156 -9.222656 10.640625 -9.015625 L 10.046875 -3.1875 C 9.953125 -2.257812 9.710938 -1.488281 9.328125 -0.875 C 8.953125 -0.269531 8.4375 0.160156 7.78125 0.421875 C 7.125 0.691406 6.335938 0.78125 5.421875 0.6875 Z M 5.421875 0.6875 "/></g></g></g><g fill="#e6cfc3" fill-opacity="1"><g transform="translate(205.206349, 89.835036)"><g><path d="M 1.25 0.3125 C 1.09375 0.269531 0.972656 0.207031 0.890625 0.125 C 0.816406 0.0390625 0.769531 -0.0546875 0.75 -0.171875 C 0.738281 -0.296875 0.769531 -0.425781 0.84375 -0.5625 C 0.914062 -0.695312 1.023438 -0.828125 1.171875 -0.953125 L 9.34375 -7.9375 L 9.234375 -7.46875 L 3.484375 -8.90625 C 3.285156 -8.957031 3.148438 -9.039062 3.078125 -9.15625 C 3.003906 -9.28125 2.988281 -9.425781 3.03125 -9.59375 C 3.070312 -9.75 3.148438 -9.859375 3.265625 -9.921875 C 3.378906 -9.984375 3.535156 -9.988281 3.734375 -9.9375 L 10.015625 -8.359375 C 10.179688 -8.316406 10.304688 -8.25 10.390625 -8.15625 C 10.472656 -8.070312 10.519531 -7.972656 10.53125 -7.859375 C 10.539062 -7.753906 10.507812 -7.628906 10.4375 -7.484375 C 10.363281 -7.347656 10.253906 -7.222656 10.109375 -7.109375 L 1.9375 -0.125 L 2.0625 -0.578125 L 8.046875 0.921875 C 8.222656 0.960938 8.34375 1.039062 8.40625 1.15625 C 8.476562 1.269531 8.492188 1.410156 8.453125 1.578125 C 8.410156 1.753906 8.332031 1.867188 8.21875 1.921875 C 8.101562 1.984375 7.957031 1.992188 7.78125 1.953125 Z M 1.25 0.3125 "/></g></g></g><g fill="#e6cfc3" fill-opacity="1"><g transform="translate(217.538024, 93.152322)"><g><path d="M 0.953125 0.5 C 0.804688 0.445312 0.703125 0.363281 0.640625 0.25 C 0.578125 0.144531 0.566406 0.0351562 0.609375 -0.078125 C 0.648438 -0.203125 0.726562 -0.320312 0.84375 -0.4375 L 8.234375 -7.53125 C 8.378906 -7.6875 8.523438 -7.773438 8.671875 -7.796875 C 8.828125 -7.828125 8.976562 -7.816406 9.125 -7.765625 C 9.25 -7.703125 9.351562 -7.609375 9.4375 -7.484375 C 9.53125 -7.367188 9.578125 -7.203125 9.578125 -6.984375 L 9.8125 3.265625 C 9.832031 3.429688 9.8125 3.570312 9.75 3.6875 C 9.6875 3.8125 9.597656 3.882812 9.484375 3.90625 C 9.367188 3.9375 9.234375 3.921875 9.078125 3.859375 C 8.921875 3.796875 8.804688 3.703125 8.734375 3.578125 C 8.671875 3.453125 8.644531 3.285156 8.65625 3.078125 L 8.609375 0.296875 L 9.046875 0.828125 L 3.09375 -1.625 L 3.78125 -1.703125 L 1.796875 0.25 C 1.628906 0.382812 1.484375 0.472656 1.359375 0.515625 C 1.234375 0.566406 1.097656 0.5625 0.953125 0.5 Z M 8.515625 -6.34375 L 4.109375 -2.015625 L 3.890625 -2.4375 L 9.015625 -0.3125 L 8.609375 -0.15625 L 8.53125 -6.328125 Z M 8.515625 -6.34375 "/></g></g></g><g fill="#e6cfc3" fill-opacity="1"><g transform="translate(231.123073, 99.111212)"><g><path d="M 4.953125 3.15625 C 4.054688 2.625 3.40625 1.972656 3 1.203125 C 2.601562 0.441406 2.441406 -0.382812 2.515625 -1.28125 C 2.597656 -2.175781 2.929688 -3.097656 3.515625 -4.046875 C 3.953125 -4.773438 4.4375 -5.359375 4.96875 -5.796875 C 5.5 -6.242188 6.066406 -6.554688 6.671875 -6.734375 C 7.273438 -6.921875 7.90625 -6.960938 8.5625 -6.859375 C 9.226562 -6.765625 9.890625 -6.519531 10.546875 -6.125 C 11.066406 -5.800781 11.519531 -5.414062 11.90625 -4.96875 C 12.300781 -4.53125 12.585938 -4.0625 12.765625 -3.5625 C 12.828125 -3.414062 12.84375 -3.273438 12.8125 -3.140625 C 12.789062 -3.003906 12.734375 -2.894531 12.640625 -2.8125 C 12.546875 -2.738281 12.445312 -2.691406 12.34375 -2.671875 C 12.238281 -2.648438 12.132812 -2.671875 12.03125 -2.734375 C 11.925781 -2.796875 11.832031 -2.914062 11.75 -3.09375 C 11.59375 -3.519531 11.363281 -3.898438 11.0625 -4.234375 C 10.769531 -4.578125 10.410156 -4.878906 9.984375 -5.140625 C 9.316406 -5.546875 8.660156 -5.75 8.015625 -5.75 C 7.367188 -5.75 6.757812 -5.546875 6.1875 -5.140625 C 5.625 -4.734375 5.109375 -4.140625 4.640625 -3.359375 C 4.171875 -2.585938 3.890625 -1.851562 3.796875 -1.15625 C 3.703125 -0.46875 3.804688 0.160156 4.109375 0.734375 C 4.410156 1.304688 4.894531 1.796875 5.5625 2.203125 C 5.976562 2.453125 6.410156 2.628906 6.859375 2.734375 C 7.316406 2.835938 7.773438 2.859375 8.234375 2.796875 C 8.421875 2.796875 8.5625 2.828125 8.65625 2.890625 C 8.757812 2.960938 8.828125 3.046875 8.859375 3.140625 C 8.890625 3.234375 8.890625 3.335938 8.859375 3.453125 C 8.835938 3.566406 8.78125 3.664062 8.6875 3.75 C 8.59375 3.832031 8.472656 3.882812 8.328125 3.90625 C 7.785156 4 7.222656 3.976562 6.640625 3.84375 C 6.054688 3.71875 5.492188 3.488281 4.953125 3.15625 Z M 4.953125 3.15625 "/></g></g></g><g fill="#e6cfc3" fill-opacity="1"><g transform="translate(111.447566, 256.184304)"><g><path d="M 1.515625 3.328125 C 1.203125 2.972656 1.035156 2.664062 1.015625 2.40625 C 1.003906 2.351562 1.019531 2.3125 1.0625 2.28125 C 1.113281 2.238281 1.179688 2.222656 1.265625 2.234375 C 1.347656 2.242188 1.398438 2.28125 1.421875 2.34375 C 1.609375 2.632812 1.703125 2.78125 1.703125 2.78125 C 2.390625 3.5625 3.4375 3.960938 4.84375 3.984375 C 6.226562 4.003906 7.3125 3.671875 8.09375 2.984375 C 8.726562 2.421875 9.015625 1.703125 8.953125 0.828125 C 8.890625 0.0234375 8.554688 -0.71875 7.953125 -1.40625 C 7.535156 -1.875 7.03125 -2.300781 6.4375 -2.6875 C 5.800781 -3.082031 5.195312 -3.347656 4.625 -3.484375 C 4.050781 -3.628906 3.742188 -3.726562 3.703125 -3.78125 C 3.523438 -3.988281 3.53125 -4.179688 3.71875 -4.359375 C 3.84375 -4.472656 4.140625 -4.445312 4.609375 -4.28125 C 6.097656 -3.789062 7.363281 -2.957031 8.40625 -1.78125 C 9.070312 -1.019531 9.445312 -0.148438 9.53125 0.828125 C 9.582031 1.898438 9.238281 2.757812 8.5 3.40625 C 7.582031 4.21875 6.410156 4.632812 4.984375 4.65625 C 3.472656 4.675781 2.316406 4.234375 1.515625 3.328125 Z M 0.59375 2.25 C 0.28125 1.882812 0.398438 1.289062 0.953125 0.46875 C 1.328125 -0.125 1.757812 -0.632812 2.25 -1.0625 L 2.96875 -1.6875 C 3.21875 -1.914062 3.625 -2.195312 4.1875 -2.53125 C 4.875 -2.9375 5.28125 -3.078125 5.40625 -2.953125 C 5.5625 -2.765625 5.535156 -2.578125 5.328125 -2.390625 C 5.222656 -2.296875 5.078125 -2.195312 4.890625 -2.09375 C 4.617188 -1.96875 4.46875 -1.890625 4.4375 -1.859375 C 3.78125 -1.472656 3.222656 -1.078125 2.765625 -0.671875 C 1.253906 0.648438 0.726562 1.578125 1.1875 2.109375 C 1.25 2.179688 1.320312 2.242188 1.40625 2.296875 C 0.976562 2.398438 0.707031 2.382812 0.59375 2.25 Z M 0.59375 2.25 "/></g></g></g><g fill="#e6cfc3" fill-opacity="1"><g transform="translate(120.366992, 265.798259)"><g><path d="M 8.3125 -1.21875 C 8.25 -1.257812 8.222656 -1.304688 8.234375 -1.359375 C 8.253906 -1.410156 8.285156 -1.460938 8.328125 -1.515625 C 8.378906 -1.554688 8.421875 -1.597656 8.453125 -1.640625 C 8.554688 -1.765625 8.582031 -1.882812 8.53125 -2 C 8.5 -2.09375 8.375 -2.238281 8.15625 -2.4375 C 7.570312 -2.945312 6.597656 -3.484375 5.234375 -4.046875 C 5.171875 -4.066406 4.867188 -4.113281 4.328125 -4.1875 C 3.785156 -4.257812 3.5 -4.3125 3.46875 -4.34375 C 3.28125 -4.507812 3.273438 -4.6875 3.453125 -4.875 C 3.597656 -5.039062 4.191406 -4.953125 5.234375 -4.609375 C 5.941406 -4.359375 6.601562 -4.101562 7.21875 -3.84375 C 7.425781 -3.75 7.867188 -3.46875 8.546875 -3 C 8.617188 -2.957031 8.6875 -2.90625 8.75 -2.84375 C 8.976562 -2.632812 9.140625 -2.410156 9.234375 -2.171875 C 9.304688 -1.898438 9.257812 -1.671875 9.09375 -1.484375 C 8.988281 -1.359375 8.828125 -1.257812 8.609375 -1.1875 C 8.484375 -1.15625 8.382812 -1.164062 8.3125 -1.21875 Z M 3.515625 -1.75 C 3.617188 -1.6875 3.898438 -1.5625 4.359375 -1.375 C 4.722656 -1.21875 4.988281 -1.066406 5.15625 -0.921875 C 5.6875 -0.453125 5.882812 -0.0507812 5.75 0.28125 L 5.484375 0.5 C 5.328125 0.375 5.257812 0.226562 5.28125 0.0625 C 5.289062 -0.03125 5.191406 -0.171875 4.984375 -0.359375 C 4.816406 -0.503906 4.492188 -0.707031 4.015625 -0.96875 C 3.484375 -1.25 3.164062 -1.359375 3.0625 -1.296875 C 2.875 -1.160156 2.628906 -0.90625 2.328125 -0.53125 C 2.078125 -0.226562 1.835938 0.0664062 1.609375 0.359375 C 1.378906 0.628906 1.234375 0.847656 1.171875 1.015625 C 1.085938 1.253906 1.15625 1.472656 1.375 1.671875 C 1.601562 1.878906 2.039062 2.148438 2.6875 2.484375 C 3.351562 2.816406 3.828125 3.113281 4.109375 3.375 C 4.359375 3.582031 4.515625 3.847656 4.578125 4.171875 C 4.640625 4.523438 4.550781 4.835938 4.3125 5.109375 L 3.96875 5.046875 C 4.132812 4.523438 3.992188 4.066406 3.546875 3.671875 C 3.285156 3.441406 2.847656 3.164062 2.234375 2.84375 C 1.628906 2.53125 1.195312 2.257812 0.9375 2.03125 C 0.53125 1.664062 0.382812 1.28125 0.5 0.875 C 0.5625 0.625 0.769531 0.296875 1.125 -0.109375 C 1.257812 -0.265625 1.46875 -0.488281 1.75 -0.78125 C 2.050781 -1.082031 2.265625 -1.300781 2.390625 -1.4375 C 2.117188 -1.476562 1.953125 -1.53125 1.890625 -1.59375 C 1.734375 -1.726562 1.742188 -1.898438 1.921875 -2.109375 C 2.023438 -2.222656 2.363281 -2.195312 2.9375 -2.03125 C 3.195312 -2.28125 3.625 -2.675781 4.21875 -3.21875 C 4.96875 -3.90625 5.441406 -4.15625 5.640625 -3.96875 C 5.828125 -3.800781 5.820312 -3.601562 5.625 -3.375 C 5.625 -3.375 5.410156 -3.222656 4.984375 -2.921875 C 4.617188 -2.648438 4.128906 -2.257812 3.515625 -1.75 Z M 3.515625 -1.75 "/></g></g></g><g fill="#e6cfc3" fill-opacity="1"><g transform="translate(129.207118, 273.283078)"><g><path d="M 8.9375 -0.90625 C 7.632812 0 6.566406 0.816406 5.734375 1.546875 C 5.097656 2.109375 4.410156 2.691406 3.671875 3.296875 C 3.421875 3.484375 3.128906 3.46875 2.796875 3.25 C 2.460938 3.007812 2.5 2.304688 2.90625 1.140625 C 3.03125 0.816406 3.34375 0.09375 3.84375 -1.03125 C 4.914062 -3.4375 5.300781 -4.75 5 -4.96875 C 4.8125 -5.09375 4.40625 -5.035156 3.78125 -4.796875 C 3.15625 -4.566406 2.785156 -4.492188 2.671875 -4.578125 C 2.484375 -4.710938 2.457031 -4.875 2.59375 -5.0625 C 2.707031 -5.226562 3.085938 -5.351562 3.734375 -5.4375 C 4.347656 -5.53125 4.75 -5.546875 4.9375 -5.484375 C 5.1875 -5.441406 5.378906 -5.375 5.515625 -5.28125 C 5.859375 -5.039062 5.894531 -4.460938 5.625 -3.546875 C 5.445312 -2.992188 5.09375 -2.144531 4.5625 -1 C 4.375 -0.632812 4.0625 0.0078125 3.625 0.9375 C 3.1875 1.976562 3.023438 2.535156 3.140625 2.609375 C 3.273438 2.710938 3.625 2.507812 4.1875 2 C 5.226562 1.0625 6.320312 0.15625 7.46875 -0.71875 C 9.257812 -2.0625 10.320312 -2.617188 10.65625 -2.390625 C 10.75 -2.328125 10.800781 -2.226562 10.8125 -2.09375 C 10.832031 -1.957031 10.800781 -1.878906 10.71875 -1.859375 C 10.132812 -1.628906 9.539062 -1.3125 8.9375 -0.90625 Z M 8.9375 -0.90625 "/></g></g></g><g fill="#e6cfc3" fill-opacity="1"><g transform="translate(139.291026, 279.939777)"><g><path d="M 7.78125 -3.125 C 7.71875 -3.15625 7.6875 -3.195312 7.6875 -3.25 C 7.6875 -3.3125 7.703125 -3.367188 7.734375 -3.421875 C 7.773438 -3.472656 7.804688 -3.523438 7.828125 -3.578125 C 7.910156 -3.722656 7.914062 -3.847656 7.84375 -3.953125 C 7.78125 -4.035156 7.617188 -4.144531 7.359375 -4.28125 C 6.679688 -4.644531 5.613281 -4.9375 4.15625 -5.15625 C 4.070312 -5.164062 3.765625 -5.140625 3.234375 -5.078125 C 2.703125 -5.015625 2.410156 -4.992188 2.359375 -5.015625 C 2.140625 -5.140625 2.09375 -5.316406 2.21875 -5.546875 C 2.3125 -5.742188 2.910156 -5.796875 4.015625 -5.703125 C 4.765625 -5.640625 5.46875 -5.546875 6.125 -5.421875 C 6.34375 -5.390625 6.835938 -5.222656 7.609375 -4.921875 C 7.691406 -4.890625 7.769531 -4.851562 7.84375 -4.8125 C 8.125 -4.664062 8.332031 -4.488281 8.46875 -4.28125 C 8.601562 -4.03125 8.613281 -3.789062 8.5 -3.5625 C 8.414062 -3.414062 8.28125 -3.28125 8.09375 -3.15625 C 7.96875 -3.09375 7.863281 -3.082031 7.78125 -3.125 Z M 3 -2.53125 C 3.113281 -2.488281 3.421875 -2.429688 3.921875 -2.359375 C 4.316406 -2.285156 4.613281 -2.195312 4.8125 -2.09375 C 5.4375 -1.757812 5.710938 -1.414062 5.640625 -1.0625 L 5.4375 -0.796875 C 5.269531 -0.878906 5.171875 -1.003906 5.140625 -1.171875 C 5.140625 -1.273438 5.015625 -1.390625 4.765625 -1.515625 C 4.566406 -1.617188 4.203125 -1.742188 3.671875 -1.890625 C 3.085938 -2.023438 2.753906 -2.050781 2.671875 -1.96875 C 2.523438 -1.800781 2.347656 -1.492188 2.140625 -1.046875 C 1.960938 -0.710938 1.796875 -0.375 1.640625 -0.03125 C 1.484375 0.289062 1.394531 0.535156 1.375 0.703125 C 1.351562 0.960938 1.472656 1.160156 1.734375 1.296875 C 2.003906 1.441406 2.492188 1.601562 3.203125 1.78125 C 3.921875 1.945312 4.453125 2.125 4.796875 2.3125 C 5.078125 2.457031 5.289062 2.675781 5.4375 2.96875 C 5.570312 3.3125 5.554688 3.644531 5.390625 3.96875 L 5.046875 3.96875 C 5.078125 3.425781 4.832031 3.015625 4.3125 2.734375 C 4.007812 2.578125 3.519531 2.410156 2.84375 2.234375 C 2.175781 2.066406 1.691406 1.90625 1.390625 1.75 C 0.910156 1.488281 0.675781 1.15625 0.6875 0.75 C 0.6875 0.46875 0.8125 0.09375 1.0625 -0.375 C 1.15625 -0.550781 1.3125 -0.816406 1.53125 -1.171875 C 1.738281 -1.523438 1.894531 -1.789062 2 -1.96875 C 1.71875 -1.945312 1.539062 -1.957031 1.46875 -2 C 1.289062 -2.101562 1.265625 -2.273438 1.390625 -2.515625 C 1.460938 -2.648438 1.796875 -2.695312 2.390625 -2.65625 C 2.566406 -2.957031 2.878906 -3.441406 3.328125 -4.109375 C 3.910156 -4.953125 4.320312 -5.3125 4.5625 -5.1875 C 4.78125 -5.070312 4.816406 -4.878906 4.671875 -4.609375 C 4.671875 -4.609375 4.503906 -4.410156 4.171875 -4.015625 C 3.867188 -3.671875 3.476562 -3.175781 3 -2.53125 Z M 3 -2.53125 "/></g></g></g><g fill="#e6cfc3" fill-opacity="1"><g transform="translate(149.636186, 285.133911)"><g><path d="M 5.65625 3.25 L 5.78125 2.984375 C 6 2.535156 5.546875 2.09375 4.421875 1.65625 C 3.515625 1.300781 2.460938 1.097656 1.265625 1.046875 C 1.234375 1.054688 0.898438 1.054688 0.265625 1.046875 C -0.273438 1.046875 -0.566406 1.039062 -0.609375 1.03125 C -0.835938 0.9375 -0.90625 0.773438 -0.8125 0.546875 C -0.769531 0.441406 -0.472656 0.359375 0.078125 0.296875 C 0.191406 0.285156 0.253906 0.273438 0.265625 0.265625 C 0.960938 0.0664062 1.613281 -0.800781 2.21875 -2.34375 C 2.5625 -3.195312 2.796875 -3.835938 2.921875 -4.265625 C 3.316406 -5.566406 3.503906 -6.1875 3.484375 -6.125 C 3.585938 -6.394531 3.753906 -6.601562 3.984375 -6.75 C 4.253906 -6.925781 4.535156 -6.957031 4.828125 -6.84375 C 5.066406 -6.75 5.332031 -6.46875 5.625 -6 C 5.9375 -5.507812 6.039062 -5.132812 5.9375 -4.875 C 5.84375 -4.65625 5.6875 -4.59375 5.46875 -4.6875 C 5.300781 -4.75 5.175781 -5.023438 5.09375 -5.515625 C 5.019531 -6.003906 4.851562 -6.300781 4.59375 -6.40625 C 4.425781 -6.46875 4.25 -6.238281 4.0625 -5.71875 C 3.457031 -3.925781 3.15625 -3.03125 3.15625 -3.03125 L 2.359375 -1.015625 C 2.128906 -0.429688 1.765625 0.0625 1.265625 0.46875 C 2.660156 0.5 3.828125 0.695312 4.765625 1.0625 C 5.171875 1.226562 5.539062 1.5 5.875 1.875 C 6.28125 2.34375 6.40625 2.765625 6.25 3.140625 C 6.175781 3.335938 5.976562 3.375 5.65625 3.25 Z M 5.65625 3.25 "/></g></g></g><g fill="#e6cfc3" fill-opacity="1"><g transform="translate(160.088513, 288.98523)"><g><path d="M 1.671875 1.4375 C 0.828125 1.207031 0.304688 0.691406 0.109375 -0.109375 C -0.0546875 -0.722656 -0.0234375 -1.457031 0.203125 -2.3125 C 0.347656 -2.863281 0.597656 -3.410156 0.953125 -3.953125 C 1.191406 -4.296875 1.429688 -4.640625 1.671875 -4.984375 C 1.878906 -5.910156 2.390625 -6.609375 3.203125 -7.078125 C 3.992188 -7.546875 4.796875 -7.640625 5.609375 -7.359375 C 6.335938 -7.109375 6.828125 -6.507812 7.078125 -5.5625 C 7.304688 -4.738281 7.320312 -3.957031 7.125 -3.21875 C 6.769531 -1.90625 6.132812 -0.769531 5.21875 0.1875 C 4.082031 1.351562 2.898438 1.769531 1.671875 1.4375 Z M 5.296875 -6.859375 C 4.753906 -7.054688 4.171875 -6.984375 3.546875 -6.640625 C 2.921875 -6.304688 2.523438 -5.863281 2.359375 -5.3125 C 2.390625 -5.457031 2.507812 -5.601562 2.71875 -5.75 C 2.9375 -5.894531 3.113281 -5.953125 3.25 -5.921875 C 3.320312 -5.898438 3.382812 -5.84375 3.4375 -5.75 C 3.488281 -5.664062 3.503906 -5.578125 3.484375 -5.484375 C 3.441406 -5.367188 3.21875 -5.171875 2.8125 -4.890625 C 2.414062 -4.609375 2.210938 -4.445312 2.203125 -4.40625 C 2.191406 -4.375 2.21875 -4.300781 2.28125 -4.1875 C 2.351562 -4.082031 2.410156 -4.023438 2.453125 -4.015625 C 2.609375 -3.992188 2.695312 -3.984375 2.71875 -3.984375 C 2.738281 -3.984375 2.765625 -3.976562 2.796875 -3.96875 C 2.898438 -3.9375 2.941406 -3.875 2.921875 -3.78125 C 2.859375 -3.550781 2.6875 -3.476562 2.40625 -3.5625 C 2.144531 -3.632812 1.945312 -3.765625 1.8125 -3.953125 C 1.3125 -3.335938 0.984375 -2.722656 0.828125 -2.109375 C 0.648438 -1.453125 0.617188 -0.863281 0.734375 -0.34375 C 0.859375 0.320312 1.1875 0.726562 1.71875 0.875 C 2.78125 1.15625 3.789062 0.773438 4.75 -0.265625 C 5.550781 -1.109375 6.113281 -2.140625 6.4375 -3.359375 C 6.613281 -4.023438 6.617188 -4.695312 6.453125 -5.375 C 6.253906 -6.144531 5.867188 -6.640625 5.296875 -6.859375 Z M 5.296875 -6.859375 "/></g></g></g><g fill="#e6cfc3" fill-opacity="1"><g transform="translate(171.109951, 291.716234)"><g><path d="M 5.125 -2.171875 C 4.375 -2.046875 3.835938 -2.007812 3.515625 -2.0625 C 3.265625 -2.09375 3.039062 -2.1875 2.84375 -2.34375 C 2.59375 -2.539062 2.488281 -2.78125 2.53125 -3.0625 C 2.550781 -3.195312 2.617188 -3.316406 2.734375 -3.421875 L 3.046875 -3.375 C 2.972656 -2.976562 3.101562 -2.753906 3.4375 -2.703125 C 4.375 -2.566406 5.367188 -2.804688 6.421875 -3.421875 C 7.535156 -4.066406 8.160156 -4.832031 8.296875 -5.71875 C 8.378906 -6.289062 8.179688 -6.765625 7.703125 -7.140625 C 7.296875 -7.453125 6.769531 -7.65625 6.125 -7.75 C 5.257812 -7.875 4.34375 -7.753906 3.375 -7.390625 C 2.789062 -7.171875 1.984375 -6.742188 0.953125 -6.109375 C 0.753906 -5.992188 0.628906 -5.941406 0.578125 -5.953125 C 0.472656 -5.960938 0.375 -6.019531 0.28125 -6.125 C 0.195312 -6.226562 0.160156 -6.332031 0.171875 -6.4375 C 0.191406 -6.519531 0.351562 -6.65625 0.65625 -6.84375 C 0.882812 -7 1.078125 -7.113281 1.234375 -7.1875 C 2.328125 -7.707031 3.148438 -8.035156 3.703125 -8.171875 C 4.503906 -8.367188 5.421875 -8.390625 6.453125 -8.234375 C 7.316406 -8.109375 7.957031 -7.773438 8.375 -7.234375 C 8.800781 -6.703125 8.957031 -6.066406 8.84375 -5.328125 C 8.738281 -4.609375 8.253906 -3.921875 7.390625 -3.265625 C 6.628906 -2.671875 5.875 -2.304688 5.125 -2.171875 Z M 2.265625 1.578125 C 1.640625 1.484375 1.242188 1.03125 1.078125 0.21875 C 0.972656 -0.320312 0.972656 -0.957031 1.078125 -1.6875 C 1.097656 -1.820312 1.113281 -2.023438 1.125 -2.296875 C 1.144531 -2.578125 1.164062 -2.789062 1.1875 -2.9375 C 1.382812 -4.28125 1.597656 -5.351562 1.828125 -6.15625 C 1.921875 -6.53125 2.085938 -6.703125 2.328125 -6.671875 C 2.585938 -6.628906 2.703125 -6.476562 2.671875 -6.21875 C 2.648438 -6.0625 2.585938 -5.867188 2.484375 -5.640625 C 2.367188 -5.328125 2.304688 -5.132812 2.296875 -5.0625 C 2.046875 -4.226562 1.867188 -3.4375 1.765625 -2.6875 C 1.421875 -0.300781 1.628906 0.945312 2.390625 1.0625 C 2.421875 1.0625 2.457031 1.066406 2.5 1.078125 L 2.6875 1.296875 C 2.59375 1.503906 2.453125 1.597656 2.265625 1.578125 Z M 2.265625 1.578125 "/></g></g></g><g fill="#e6cfc3" fill-opacity="1"><g transform="translate(183.84266, 293.251945)"><g><path d="M 4.796875 -2.8125 C 4.078125 -2.59375 3.554688 -2.488281 3.234375 -2.5 C 2.984375 -2.5 2.75 -2.566406 2.53125 -2.703125 C 2.25 -2.859375 2.109375 -3.078125 2.109375 -3.359375 C 2.117188 -3.492188 2.175781 -3.617188 2.28125 -3.734375 L 2.609375 -3.71875 C 2.578125 -3.332031 2.726562 -3.132812 3.0625 -3.125 C 4.007812 -3.113281 4.96875 -3.476562 5.9375 -4.21875 C 6.957031 -5.007812 7.476562 -5.851562 7.5 -6.75 C 7.507812 -7.320312 7.25 -7.753906 6.71875 -8.046875 C 6.28125 -8.316406 5.734375 -8.457031 5.078125 -8.46875 C 4.203125 -8.476562 3.316406 -8.242188 2.421875 -7.765625 C 1.859375 -7.472656 1.101562 -6.945312 0.15625 -6.1875 C -0.0195312 -6.039062 -0.132812 -5.96875 -0.1875 -5.96875 C -0.289062 -5.96875 -0.390625 -6.015625 -0.484375 -6.109375 C -0.585938 -6.203125 -0.640625 -6.300781 -0.640625 -6.40625 C -0.640625 -6.488281 -0.5 -6.644531 -0.21875 -6.875 C -0.0078125 -7.0625 0.160156 -7.203125 0.296875 -7.296875 C 1.316406 -7.941406 2.097656 -8.375 2.640625 -8.59375 C 3.398438 -8.875 4.300781 -9.007812 5.34375 -9 C 6.21875 -8.988281 6.898438 -8.738281 7.390625 -8.25 C 7.878906 -7.769531 8.109375 -7.15625 8.078125 -6.40625 C 8.066406 -5.6875 7.679688 -4.945312 6.921875 -4.1875 C 6.234375 -3.488281 5.523438 -3.03125 4.796875 -2.8125 Z M 2.453125 1.265625 C 1.816406 1.265625 1.367188 0.867188 1.109375 0.078125 C 0.929688 -0.441406 0.847656 -1.070312 0.859375 -1.8125 C 0.859375 -1.945312 0.847656 -2.148438 0.828125 -2.421875 C 0.816406 -2.703125 0.8125 -2.914062 0.8125 -3.0625 C 0.832031 -4.414062 0.90625 -5.507812 1.03125 -6.34375 C 1.082031 -6.726562 1.226562 -6.921875 1.46875 -6.921875 C 1.726562 -6.910156 1.851562 -6.769531 1.84375 -6.5 C 1.84375 -6.34375 1.8125 -6.144531 1.75 -5.90625 C 1.664062 -5.582031 1.625 -5.382812 1.625 -5.3125 C 1.488281 -4.457031 1.414062 -3.648438 1.40625 -2.890625 C 1.363281 -0.484375 1.726562 0.722656 2.5 0.734375 C 2.53125 0.742188 2.566406 0.75 2.609375 0.75 L 2.828125 0.953125 C 2.765625 1.171875 2.640625 1.273438 2.453125 1.265625 Z M 2.453125 1.265625 "/></g></g></g><g fill="#e6cfc3" fill-opacity="1"><g transform="translate(196.656717, 293.129364)"><g><path d="M 4.6875 -6.96875 C 4.625 -6.945312 4.570312 -6.957031 4.53125 -7 C 4.5 -7.050781 4.484375 -7.109375 4.484375 -7.171875 C 4.484375 -7.242188 4.484375 -7.304688 4.484375 -7.359375 C 4.460938 -7.515625 4.390625 -7.613281 4.265625 -7.65625 C 4.171875 -7.6875 3.976562 -7.6875 3.6875 -7.65625 C 2.925781 -7.582031 1.878906 -7.226562 0.546875 -6.59375 C 0.484375 -6.5625 0.242188 -6.367188 -0.171875 -6.015625 C -0.585938 -5.671875 -0.820312 -5.492188 -0.875 -5.484375 C -1.125 -5.460938 -1.257812 -5.582031 -1.28125 -5.84375 C -1.3125 -6.0625 -0.84375 -6.4375 0.125 -6.96875 C 0.78125 -7.332031 1.414062 -7.644531 2.03125 -7.90625 C 2.226562 -8.007812 2.726562 -8.15625 3.53125 -8.34375 C 3.613281 -8.363281 3.695312 -8.378906 3.78125 -8.390625 C 4.09375 -8.421875 4.367188 -8.382812 4.609375 -8.28125 C 4.867188 -8.15625 5.015625 -7.96875 5.046875 -7.71875 C 5.054688 -7.5625 5.015625 -7.375 4.921875 -7.15625 C 4.859375 -7.039062 4.78125 -6.976562 4.6875 -6.96875 Z M 1.0625 -3.78125 C 1.175781 -3.8125 1.460938 -3.9375 1.921875 -4.15625 C 2.285156 -4.320312 2.578125 -4.414062 2.796875 -4.4375 C 3.492188 -4.507812 3.921875 -4.378906 4.078125 -4.046875 L 4.046875 -3.71875 C 3.867188 -3.6875 3.722656 -3.734375 3.609375 -3.859375 C 3.546875 -3.929688 3.375 -3.957031 3.09375 -3.9375 C 2.875 -3.90625 2.503906 -3.800781 1.984375 -3.625 C 1.410156 -3.414062 1.117188 -3.253906 1.109375 -3.140625 C 1.085938 -2.910156 1.109375 -2.550781 1.171875 -2.0625 C 1.222656 -1.695312 1.28125 -1.328125 1.34375 -0.953125 C 1.382812 -0.597656 1.445312 -0.34375 1.53125 -0.1875 C 1.65625 0.0390625 1.863281 0.140625 2.15625 0.109375 C 2.46875 0.078125 2.96875 -0.0625 3.65625 -0.3125 C 4.34375 -0.582031 4.878906 -0.738281 5.265625 -0.78125 C 5.585938 -0.8125 5.890625 -0.742188 6.171875 -0.578125 C 6.484375 -0.378906 6.660156 -0.0976562 6.703125 0.265625 L 6.40625 0.46875 C 6.132812 -0.0078125 5.703125 -0.21875 5.109375 -0.15625 C 4.765625 -0.113281 4.265625 0.0234375 3.609375 0.265625 C 2.960938 0.503906 2.46875 0.640625 2.125 0.671875 C 1.59375 0.734375 1.210938 0.585938 0.984375 0.234375 C 0.835938 0.00390625 0.734375 -0.375 0.671875 -0.90625 C 0.648438 -1.113281 0.628906 -1.414062 0.609375 -1.8125 C 0.585938 -2.238281 0.570312 -2.550781 0.5625 -2.75 C 0.332031 -2.570312 0.175781 -2.476562 0.09375 -2.46875 C -0.113281 -2.445312 -0.226562 -2.570312 -0.25 -2.84375 C -0.269531 -3 -0.0234375 -3.234375 0.484375 -3.546875 C 0.472656 -3.898438 0.46875 -4.476562 0.46875 -5.28125 C 0.46875 -6.300781 0.597656 -6.828125 0.859375 -6.859375 C 1.109375 -6.878906 1.25 -6.738281 1.28125 -6.4375 C 1.28125 -6.4375 1.253906 -6.175781 1.203125 -5.65625 C 1.140625 -5.195312 1.09375 -4.570312 1.0625 -3.78125 Z M 1.0625 -3.78125 "/></g></g></g><g fill="#e6cfc3" fill-opacity="1"><g transform="translate(208.143111, 291.639951)"><g><path d="M 3.984375 -5.015625 C 3.859375 -3.867188 3.566406 -2.695312 3.109375 -1.5 C 2.546875 -0.0507812 1.941406 0.742188 1.296875 0.890625 C 1.015625 0.953125 0.773438 0.890625 0.578125 0.703125 C 0.410156 0.535156 0.300781 0.320312 0.25 0.0625 C 0.125 -0.488281 0.0820312 -1.40625 0.125 -2.6875 C 0.175781 -3.625 0.234375 -4.554688 0.296875 -5.484375 C 0.347656 -6.492188 0.34375 -7.15625 0.28125 -7.46875 C 0.238281 -7.632812 0.148438 -7.703125 0.015625 -7.671875 C -0.140625 -7.640625 -0.363281 -7.382812 -0.65625 -6.90625 C -0.726562 -6.738281 -0.84375 -6.507812 -1 -6.21875 C -1.132812 -5.988281 -1.242188 -5.863281 -1.328125 -5.84375 C -1.472656 -5.8125 -1.617188 -5.894531 -1.765625 -6.09375 C -1.785156 -6.28125 -1.625 -6.601562 -1.28125 -7.0625 C -1.007812 -7.4375 -0.742188 -7.734375 -0.484375 -7.953125 C -0.304688 -8.117188 -0.109375 -8.222656 0.109375 -8.265625 C 0.304688 -8.316406 0.492188 -8.238281 0.671875 -8.03125 C 0.804688 -7.863281 0.898438 -7.679688 0.953125 -7.484375 C 1.078125 -6.890625 1.050781 -5.65625 0.875 -3.78125 C 0.71875 -2.132812 0.722656 -0.929688 0.890625 -0.171875 C 0.984375 0.222656 1.070312 0.410156 1.15625 0.390625 C 1.894531 0.222656 2.609375 -1.4375 3.296875 -4.59375 C 3.410156 -5.09375 3.484375 -5.753906 3.515625 -6.578125 C 3.546875 -6.773438 3.554688 -7.054688 3.546875 -7.421875 C 3.460938 -7.910156 3.421875 -8.226562 3.421875 -8.375 C 3.410156 -8.800781 3.519531 -9.039062 3.75 -9.09375 C 3.988281 -9.15625 4.140625 -9.050781 4.203125 -8.78125 C 4.222656 -8.65625 4.234375 -8.476562 4.234375 -8.25 C 4.242188 -7.914062 4.25 -7.738281 4.25 -7.71875 C 4.257812 -7.3125 4.285156 -6.945312 4.328125 -6.625 C 4.359375 -6.238281 4.488281 -5.546875 4.71875 -4.546875 C 4.71875 -4.554688 4.914062 -3.90625 5.3125 -2.59375 C 5.613281 -1.601562 5.9375 -1.148438 6.28125 -1.234375 C 6.425781 -1.265625 6.507812 -1.410156 6.53125 -1.671875 C 6.53125 -1.773438 6.578125 -1.835938 6.671875 -1.859375 C 6.816406 -1.890625 6.914062 -1.796875 6.96875 -1.578125 C 7.019531 -1.398438 6.984375 -1.226562 6.859375 -1.0625 C 6.742188 -0.894531 6.597656 -0.789062 6.421875 -0.75 C 5.835938 -0.613281 5.304688 -1.0625 4.828125 -2.09375 C 4.546875 -2.707031 4.304688 -3.453125 4.109375 -4.328125 C 4.066406 -4.503906 4.023438 -4.734375 3.984375 -5.015625 Z M 3.984375 -5.015625 "/></g></g></g><g fill="#e6cfc3" fill-opacity="1"><g transform="translate(219.713855, 288.703564)"><g><path d="M 2.96875 -7.6875 C 2.875 -7.65625 2.773438 -7.664062 2.671875 -7.71875 C 2.578125 -7.78125 2.519531 -7.851562 2.5 -7.9375 C 2.425781 -8.289062 2.390625 -8.460938 2.390625 -8.453125 C 2.242188 -8.878906 2.03125 -9.039062 1.75 -8.9375 C 1.21875 -8.75 0.554688 -8.003906 -0.234375 -6.703125 C -1.035156 -5.367188 -1.347656 -4.445312 -1.171875 -3.9375 C -1.097656 -3.71875 -0.816406 -3.625 -0.328125 -3.65625 C -0.0859375 -3.664062 0.507812 -3.753906 1.46875 -3.921875 C 2.320312 -4.054688 2.960938 -4.097656 3.390625 -4.046875 C 4.046875 -3.972656 4.460938 -3.6875 4.640625 -3.1875 C 4.847656 -2.59375 4.703125 -1.914062 4.203125 -1.15625 C 3.742188 -0.445312 3.21875 0.0078125 2.625 0.21875 L 2.328125 0.328125 C 1.953125 0.460938 1.550781 0.46875 1.125 0.34375 C 0.644531 0.21875 0.335938 -0.0351562 0.203125 -0.421875 C 0.160156 -0.523438 0.132812 -0.675781 0.125 -0.875 C 0.144531 -1.113281 0.195312 -1.242188 0.28125 -1.265625 C 0.4375 -1.316406 0.539062 -1.265625 0.59375 -1.109375 C 0.613281 -1.035156 0.625 -0.941406 0.625 -0.828125 C 0.632812 -0.722656 0.640625 -0.664062 0.640625 -0.65625 C 0.722656 -0.425781 0.914062 -0.285156 1.21875 -0.234375 C 1.46875 -0.160156 1.742188 -0.175781 2.046875 -0.28125 C 2.640625 -0.488281 3.144531 -0.863281 3.5625 -1.40625 C 4.019531 -2.007812 4.160156 -2.578125 3.984375 -3.109375 C 3.878906 -3.398438 3.554688 -3.546875 3.015625 -3.546875 C 2.742188 -3.535156 2.160156 -3.445312 1.265625 -3.28125 C 0.859375 -3.207031 0.238281 -3.132812 -0.59375 -3.0625 C -1.25 -3.050781 -1.640625 -3.234375 -1.765625 -3.609375 C -2.085938 -4.523438 -1.796875 -5.695312 -0.890625 -7.125 C -0.046875 -8.445312 0.796875 -9.253906 1.640625 -9.546875 C 2.335938 -9.796875 2.835938 -9.488281 3.140625 -8.625 C 3.179688 -8.488281 3.195312 -8.316406 3.1875 -8.109375 C 3.15625 -7.867188 3.082031 -7.726562 2.96875 -7.6875 Z M 2.96875 -7.6875 "/></g></g></g><g fill="#e6cfc3" fill-opacity="1"><g transform="translate(229.731841, 284.952521)"><g><path d="M 2.09375 -8.140625 C 2.039062 -8.097656 1.988281 -8.09375 1.9375 -8.125 C 1.882812 -8.164062 1.847656 -8.210938 1.828125 -8.265625 C 1.804688 -8.316406 1.785156 -8.367188 1.765625 -8.421875 C 1.691406 -8.566406 1.585938 -8.644531 1.453125 -8.65625 C 1.359375 -8.644531 1.179688 -8.578125 0.921875 -8.453125 C 0.222656 -8.117188 -0.648438 -7.429688 -1.703125 -6.390625 C -1.742188 -6.335938 -1.898438 -6.078125 -2.171875 -5.609375 C -2.453125 -5.140625 -2.613281 -4.894531 -2.65625 -4.875 C -2.882812 -4.769531 -3.050781 -4.835938 -3.15625 -5.078125 C -3.25 -5.273438 -2.9375 -5.785156 -2.21875 -6.609375 C -1.71875 -7.179688 -1.222656 -7.691406 -0.734375 -8.140625 C -0.578125 -8.296875 -0.148438 -8.597656 0.546875 -9.046875 C 0.609375 -9.085938 0.679688 -9.128906 0.765625 -9.171875 C 1.046875 -9.304688 1.316406 -9.363281 1.578125 -9.34375 C 1.859375 -9.3125 2.050781 -9.179688 2.15625 -8.953125 C 2.226562 -8.804688 2.253906 -8.617188 2.234375 -8.390625 C 2.222656 -8.265625 2.175781 -8.179688 2.09375 -8.140625 Z M -0.25 -3.921875 C -0.15625 -3.984375 0.0664062 -4.191406 0.421875 -4.546875 C 0.710938 -4.828125 0.957031 -5.015625 1.15625 -5.109375 C 1.789062 -5.410156 2.234375 -5.429688 2.484375 -5.171875 L 2.578125 -4.84375 C 2.410156 -4.769531 2.25 -4.765625 2.09375 -4.828125 C 2.007812 -4.878906 1.84375 -4.84375 1.59375 -4.71875 C 1.394531 -4.625 1.082031 -4.410156 0.65625 -4.078125 C 0.195312 -3.691406 -0.0195312 -3.441406 0 -3.328125 C 0.0390625 -3.109375 0.175781 -2.785156 0.40625 -2.359375 C 0.582031 -2.003906 0.765625 -1.664062 0.953125 -1.34375 C 1.117188 -1.019531 1.257812 -0.804688 1.375 -0.703125 C 1.582031 -0.515625 1.820312 -0.484375 2.09375 -0.609375 C 2.375 -0.742188 2.785156 -1.039062 3.328125 -1.5 C 3.890625 -2 4.347656 -2.332031 4.703125 -2.5 C 4.984375 -2.644531 5.285156 -2.675781 5.609375 -2.59375 C 5.972656 -2.519531 6.234375 -2.316406 6.390625 -1.984375 L 6.1875 -1.703125 C 5.769531 -2.054688 5.296875 -2.101562 4.765625 -1.84375 C 4.453125 -1.695312 4.03125 -1.40625 3.5 -0.96875 C 2.96875 -0.53125 2.546875 -0.238281 2.234375 -0.09375 C 1.742188 0.144531 1.332031 0.140625 1 -0.109375 C 0.78125 -0.273438 0.554688 -0.597656 0.328125 -1.078125 C 0.234375 -1.265625 0.113281 -1.546875 -0.03125 -1.921875 C -0.195312 -2.304688 -0.316406 -2.585938 -0.390625 -2.765625 C -0.546875 -2.535156 -0.660156 -2.40625 -0.734375 -2.375 C -0.921875 -2.28125 -1.070312 -2.351562 -1.1875 -2.59375 C -1.257812 -2.738281 -1.101562 -3.039062 -0.71875 -3.5 C -0.863281 -3.832031 -1.066406 -4.375 -1.328125 -5.125 C -1.660156 -6.09375 -1.707031 -6.632812 -1.46875 -6.75 C -1.238281 -6.863281 -1.054688 -6.785156 -0.921875 -6.515625 C -0.921875 -6.515625 -0.863281 -6.253906 -0.75 -5.734375 C -0.65625 -5.285156 -0.488281 -4.679688 -0.25 -3.921875 Z M -0.25 -3.921875 "/></g></g></g><g fill="#e6cfc3" fill-opacity="1"><g transform="translate(240.010656, 279.677809)"><g/></g></g><g fill="#e6cfc3" fill-opacity="1"><g transform="translate(247.169899, 275.092477)"><g><path d="M 1.015625 -9.03125 C 0.878906 -9.007812 0.757812 -9.070312 0.65625 -9.21875 C 0.488281 -9.445312 0.0976562 -9.335938 -0.515625 -8.890625 C -0.804688 -8.671875 -1.1875 -8.269531 -1.65625 -7.6875 C -2.09375 -7.15625 -2.425781 -6.703125 -2.65625 -6.328125 C -2.695312 -6.242188 -2.847656 -5.921875 -3.109375 -5.359375 L -3.359375 -4.8125 C -3.410156 -4.644531 -3.460938 -4.53125 -3.515625 -4.46875 C -3.703125 -4.332031 -3.867188 -4.363281 -4.015625 -4.5625 C -4.160156 -4.757812 -4.09375 -5.082031 -3.8125 -5.53125 C -2.507812 -7.644531 -1.503906 -8.960938 -0.796875 -9.484375 C -0.503906 -9.691406 -0.210938 -9.828125 0.078125 -9.890625 C 0.492188 -9.960938 0.796875 -9.867188 0.984375 -9.609375 C 1.148438 -9.390625 1.160156 -9.195312 1.015625 -9.03125 Z M -1.09375 -3.453125 C -1.019531 -3.492188 -0.894531 -3.628906 -0.71875 -3.859375 C -0.507812 -4.117188 -0.316406 -4.3125 -0.140625 -4.4375 C 0.0351562 -4.570312 0.234375 -4.675781 0.453125 -4.75 C 0.765625 -4.851562 0.976562 -4.820312 1.09375 -4.65625 L 1.078125 -4.390625 C 0.941406 -4.316406 0.773438 -4.265625 0.578125 -4.234375 C 0.421875 -4.191406 0.304688 -4.144531 0.234375 -4.09375 C 0.0859375 -3.976562 -0.109375 -3.796875 -0.359375 -3.546875 C -0.671875 -3.210938 -0.804688 -3.015625 -0.765625 -2.953125 C 0.773438 -0.859375 1.753906 -0.03125 2.171875 -0.46875 C 2.191406 -0.476562 2.210938 -0.492188 2.234375 -0.515625 C 2.398438 -0.628906 2.535156 -0.617188 2.640625 -0.484375 C 2.679688 -0.421875 2.675781 -0.335938 2.625 -0.234375 C 2.582031 -0.148438 2.535156 -0.0859375 2.484375 -0.046875 C 1.679688 0.546875 0.5 -0.203125 -1.0625 -2.296875 L -1.125 -2.1875 C -1.257812 -1.894531 -1.335938 -1.742188 -1.359375 -1.734375 C -1.546875 -1.597656 -1.703125 -1.617188 -1.828125 -1.796875 C -1.941406 -1.953125 -1.9375 -2.144531 -1.8125 -2.375 C -1.695312 -2.550781 -1.578125 -2.726562 -1.453125 -2.90625 C -1.585938 -3.164062 -1.78125 -3.492188 -2.03125 -3.890625 C -2.46875 -4.609375 -2.6875 -4.984375 -2.6875 -5.015625 C -3 -5.617188 -3.046875 -6 -2.828125 -6.15625 C -2.648438 -6.289062 -2.492188 -6.257812 -2.359375 -6.0625 C -2.328125 -6.019531 -2.265625 -5.878906 -2.171875 -5.640625 C -1.910156 -5.015625 -1.75 -4.640625 -1.6875 -4.515625 C -1.5 -4.097656 -1.300781 -3.742188 -1.09375 -3.453125 Z M -1.09375 -3.453125 "/></g></g></g><g fill="#e6cfc3" fill-opacity="1"><g transform="translate(254.535311, 269.449466)"><g><path d="M 5.59375 -3.859375 C 4.988281 -3.304688 3.953125 -3.179688 2.484375 -3.484375 C 2.078125 -3.566406 1.617188 -3.625 1.109375 -3.65625 C 0.566406 -3.695312 0.234375 -3.691406 0.109375 -3.640625 C -0.242188 -3.441406 -0.484375 -3.429688 -0.609375 -3.609375 C -0.679688 -3.722656 -0.617188 -3.875 -0.421875 -4.0625 C -0.273438 -4.195312 -0.125 -4.296875 0.03125 -4.359375 C 0.664062 -5.078125 1.066406 -6.019531 1.234375 -7.1875 C 1.421875 -8.414062 1.253906 -9.359375 0.734375 -10.015625 C 0.367188 -10.472656 -0.0625 -10.648438 -0.5625 -10.546875 C -1.007812 -10.472656 -1.472656 -10.210938 -1.953125 -9.765625 C -2.972656 -8.816406 -3.71875 -7.175781 -4.1875 -4.84375 C -4.269531 -4.394531 -4.320312 -4.160156 -4.34375 -4.140625 C -4.414062 -4.078125 -4.515625 -4.035156 -4.640625 -4.015625 C -4.773438 -4.003906 -4.867188 -4.023438 -4.921875 -4.078125 C -4.960938 -4.117188 -4.976562 -4.171875 -4.96875 -4.234375 C -4.925781 -5.140625 -4.644531 -6.1875 -4.125 -7.375 C -3.582031 -8.613281 -2.96875 -9.550781 -2.28125 -10.1875 C -1.644531 -10.769531 -1.015625 -11.070312 -0.390625 -11.09375 C 0.222656 -11.113281 0.765625 -10.867188 1.234375 -10.359375 C 1.285156 -10.296875 1.335938 -10.226562 1.390625 -10.15625 C 1.828125 -9.601562 2.019531 -8.765625 1.96875 -7.640625 C 1.894531 -6.640625 1.664062 -5.804688 1.28125 -5.140625 C 1.1875 -4.960938 1.035156 -4.707031 0.828125 -4.375 C 1.023438 -4.332031 1.316406 -4.273438 1.703125 -4.203125 C 2.484375 -4.054688 3.3125 -4 4.1875 -4.03125 C 4.726562 -4.039062 5.140625 -4.175781 5.421875 -4.4375 C 5.492188 -4.5 5.554688 -4.597656 5.609375 -4.734375 C 5.640625 -4.816406 5.703125 -5 5.796875 -5.28125 L 6.0625 -5.203125 C 6.1875 -5.035156 6.175781 -4.789062 6.03125 -4.46875 C 5.894531 -4.207031 5.75 -4.003906 5.59375 -3.859375 Z M 2.78125 -0.828125 C 2.050781 -0.160156 0.988281 -0.597656 -0.40625 -2.140625 C -1.40625 -3.265625 -2.300781 -4.472656 -3.09375 -5.765625 C -3.289062 -6.117188 -3.304688 -6.375 -3.140625 -6.53125 C -2.972656 -6.675781 -2.800781 -6.648438 -2.625 -6.453125 C -2.53125 -6.347656 -2.414062 -6.171875 -2.28125 -5.921875 C -2.21875 -5.796875 -2.128906 -5.613281 -2.015625 -5.375 C -1.609375 -4.707031 -1.128906 -4.023438 -0.578125 -3.328125 C -0.316406 -2.992188 -0.0664062 -2.695312 0.171875 -2.4375 C 1.265625 -1.25 2.03125 -0.863281 2.46875 -1.28125 C 2.5 -1.300781 2.523438 -1.328125 2.546875 -1.359375 L 2.859375 -1.359375 C 2.941406 -1.128906 2.914062 -0.953125 2.78125 -0.828125 Z M 2.78125 -0.828125 "/></g></g></g><g fill="#e6cfc3" fill-opacity="1"><g transform="translate(263.571834, 260.683912)"><g><path d="M 2 -0.890625 C 1.4375 -0.222656 0.753906 0.0234375 -0.046875 -0.140625 C -0.671875 -0.253906 -1.320312 -0.597656 -2 -1.171875 C -2.4375 -1.535156 -2.828125 -2 -3.171875 -2.5625 C -3.378906 -2.914062 -3.585938 -3.273438 -3.796875 -3.640625 C -4.535156 -4.234375 -4.945312 -5 -5.03125 -5.9375 C -5.101562 -6.851562 -4.84375 -7.613281 -4.25 -8.21875 C -3.707031 -8.757812 -2.953125 -8.945312 -1.984375 -8.78125 C -1.148438 -8.632812 -0.441406 -8.3125 0.140625 -7.8125 C 1.171875 -6.9375 1.921875 -5.875 2.390625 -4.625 C 2.960938 -3.101562 2.832031 -1.859375 2 -0.890625 Z M -3.921875 -7.703125 C -4.335938 -7.304688 -4.523438 -6.753906 -4.484375 -6.046875 C -4.453125 -5.347656 -4.222656 -4.800781 -3.796875 -4.40625 C -3.921875 -4.5 -4 -4.671875 -4.03125 -4.921875 C -4.070312 -5.179688 -4.046875 -5.363281 -3.953125 -5.46875 C -3.898438 -5.53125 -3.820312 -5.566406 -3.71875 -5.578125 C -3.625 -5.585938 -3.539062 -5.5625 -3.46875 -5.5 C -3.375 -5.414062 -3.285156 -5.128906 -3.203125 -4.640625 C -3.128906 -4.148438 -3.078125 -3.894531 -3.046875 -3.875 C -3.023438 -3.851562 -2.945312 -3.851562 -2.8125 -3.875 C -2.675781 -3.894531 -2.597656 -3.921875 -2.578125 -3.953125 C -2.492188 -4.066406 -2.441406 -4.132812 -2.421875 -4.15625 C -2.410156 -4.1875 -2.398438 -4.210938 -2.390625 -4.234375 C -2.316406 -4.316406 -2.242188 -4.328125 -2.171875 -4.265625 C -1.992188 -4.109375 -2 -3.921875 -2.1875 -3.703125 C -2.363281 -3.492188 -2.566406 -3.375 -2.796875 -3.34375 C -2.453125 -2.625 -2.039062 -2.054688 -1.5625 -1.640625 C -1.039062 -1.203125 -0.519531 -0.921875 0 -0.796875 C 0.65625 -0.640625 1.164062 -0.769531 1.53125 -1.1875 C 2.238281 -2.03125 2.332031 -3.101562 1.8125 -4.40625 C 1.375 -5.488281 0.675781 -6.4375 -0.28125 -7.25 C -0.800781 -7.695312 -1.40625 -7.992188 -2.09375 -8.140625 C -2.882812 -8.285156 -3.492188 -8.140625 -3.921875 -7.703125 Z M -3.921875 -7.703125 "/></g></g></g><g fill="#e6cfc3" fill-opacity="1"><g transform="translate(270.75619, 251.893728)"><g><path d="M 4.265625 -5.5625 C 3.984375 -5.132812 3.398438 -5.078125 2.515625 -5.390625 C 1.984375 -5.566406 1.160156 -5.972656 0.046875 -6.609375 C -0.515625 -6.929688 -1.304688 -7.359375 -2.328125 -7.890625 C -3.015625 -8.203125 -3.421875 -8.269531 -3.546875 -8.09375 C -3.628906 -7.957031 -3.269531 -7.320312 -2.46875 -6.1875 C -1.59375 -4.9375 -0.984375 -4.101562 -0.640625 -3.6875 C 0.109375 -2.78125 0.867188 -2.078125 1.640625 -1.578125 C 1.929688 -1.378906 2 -1.171875 1.84375 -0.953125 C 1.695312 -0.734375 1.484375 -0.71875 1.203125 -0.90625 C 0.960938 -1.0625 0.609375 -1.332031 0.140625 -1.71875 C -0.316406 -2.101562 -0.671875 -2.378906 -0.921875 -2.546875 C -1.191406 -2.734375 -1.597656 -3.023438 -2.140625 -3.421875 C -2.679688 -3.816406 -3.09375 -4.101562 -3.375 -4.28125 C -4.15625 -4.800781 -4.597656 -4.976562 -4.703125 -4.8125 C -4.835938 -4.601562 -4.738281 -3.960938 -4.40625 -2.890625 C -4.332031 -2.660156 -4.304688 -2.519531 -4.328125 -2.46875 C -4.328125 -2.425781 -4.332031 -2.398438 -4.34375 -2.390625 C -4.382812 -2.316406 -4.46875 -2.273438 -4.59375 -2.265625 C -4.6875 -2.265625 -4.769531 -2.289062 -4.84375 -2.34375 C -5.050781 -2.476562 -5.1875 -2.953125 -5.25 -3.765625 C -5.300781 -4.535156 -5.253906 -5.03125 -5.109375 -5.25 C -4.796875 -5.707031 -4.328125 -5.71875 -3.703125 -5.28125 L -1.359375 -3.671875 C -1.691406 -4.109375 -2.179688 -4.75 -2.828125 -5.59375 C -3.859375 -7.019531 -4.195312 -8 -3.84375 -8.53125 C -3.601562 -8.882812 -3.164062 -8.9375 -2.53125 -8.6875 C -2.375 -8.644531 -1.9375 -8.425781 -1.21875 -8.03125 C -0.707031 -7.726562 0.171875 -7.242188 1.421875 -6.578125 C 2.835938 -5.878906 3.628906 -5.65625 3.796875 -5.90625 C 3.816406 -5.9375 3.828125 -6.054688 3.828125 -6.265625 C 3.816406 -6.328125 3.820312 -6.40625 3.84375 -6.5 L 4.09375 -6.625 C 4.25 -6.507812 4.335938 -6.328125 4.359375 -6.078125 C 4.378906 -5.859375 4.347656 -5.6875 4.265625 -5.5625 Z M 4.265625 -5.5625 "/></g></g></g><g fill="#e6cfc3" fill-opacity="1"><g transform="translate(277.490538, 241.178255)"><g><path d="M -2.984375 -9.375 C -2.972656 -9.269531 -2.976562 -9.195312 -3 -9.15625 C -3.039062 -9.0625 -3.132812 -9.066406 -3.28125 -9.171875 C -3.414062 -9.316406 -3.492188 -9.394531 -3.515625 -9.40625 C -3.859375 -9.582031 -4.335938 -9.066406 -4.953125 -7.859375 C -5.367188 -7.046875 -5.617188 -5.960938 -5.703125 -4.609375 C -5.703125 -4.273438 -5.707031 -3.816406 -5.71875 -3.234375 C -5.738281 -2.796875 -5.769531 -2.53125 -5.8125 -2.4375 C -5.925781 -2.207031 -6.085938 -2.144531 -6.296875 -2.25 C -6.515625 -2.363281 -6.550781 -3.003906 -6.40625 -4.171875 C -6.3125 -5.035156 -6.195312 -5.765625 -6.0625 -6.359375 C -5.882812 -7.097656 -5.640625 -7.773438 -5.328125 -8.390625 C -5.117188 -8.804688 -4.859375 -9.179688 -4.546875 -9.515625 C -4.109375 -9.960938 -3.726562 -10.101562 -3.40625 -9.9375 C -3.144531 -9.800781 -3.003906 -9.613281 -2.984375 -9.375 Z M 2.953125 -3.453125 C 2.972656 -3.328125 2.957031 -3.210938 2.90625 -3.109375 C 2.644531 -2.585938 2.003906 -2.425781 0.984375 -2.625 C 0.285156 -2.75 -0.40625 -2.988281 -1.09375 -3.34375 L -2.15625 -3.890625 C -2.15625 -3.890625 -3.007812 -4.390625 -4.71875 -5.390625 C -5.289062 -5.722656 -5.503906 -6.03125 -5.359375 -6.3125 C -5.242188 -6.53125 -5.0625 -6.578125 -4.8125 -6.453125 C -4.675781 -6.378906 -4.503906 -6.25 -4.296875 -6.0625 C -4.023438 -5.820312 -3.863281 -5.675781 -3.8125 -5.625 C -2.96875 -4.988281 -1.898438 -4.398438 -0.609375 -3.859375 C -0.242188 -3.703125 0.320312 -3.492188 1.09375 -3.234375 C 1.488281 -3.148438 1.78125 -3.113281 1.96875 -3.125 C 2.25 -3.144531 2.460938 -3.273438 2.609375 -3.515625 C 2.671875 -3.609375 2.742188 -3.632812 2.828125 -3.59375 C 2.878906 -3.570312 2.921875 -3.523438 2.953125 -3.453125 Z M 2.953125 -3.453125 "/></g></g></g><g fill="#e6cfc3" fill-opacity="1"><g transform="translate(282.152571, 231.388996)"><g><path d="M -1 -4.75 C -1.09375 -4.613281 -1.234375 -4.492188 -1.421875 -4.390625 C -1.535156 -4.285156 -1.613281 -4.195312 -1.65625 -4.125 C -1.75 -3.988281 -1.820312 -3.84375 -1.875 -3.6875 C -1.988281 -3.394531 -2.097656 -2.660156 -2.203125 -1.484375 C -2.203125 -1.421875 -2.210938 -1.367188 -2.234375 -1.328125 C -2.359375 -1.128906 -2.507812 -1.082031 -2.6875 -1.1875 C -2.820312 -1.269531 -2.835938 -1.644531 -2.734375 -2.3125 C -2.648438 -2.8125 -2.566406 -3.21875 -2.484375 -3.53125 C -2.378906 -3.851562 -2.269531 -4.109375 -2.15625 -4.296875 C -2.039062 -4.503906 -1.894531 -4.675781 -1.71875 -4.8125 C -1.46875 -5.019531 -1.253906 -5.070312 -1.078125 -4.96875 Z M -1 -4.75 "/></g></g></g><g fill="#e6cfc3" fill-opacity="1"><g transform="translate(285.37, 222.518394)"><g><path d="M -4.796875 -6.890625 C -4.804688 -6.816406 -4.835938 -6.769531 -4.890625 -6.75 C -4.941406 -6.738281 -5 -6.742188 -5.0625 -6.765625 C -5.125 -6.796875 -5.179688 -6.816406 -5.234375 -6.828125 C -5.390625 -6.867188 -5.515625 -6.847656 -5.609375 -6.765625 C -5.671875 -6.679688 -5.738281 -6.5 -5.8125 -6.21875 C -6.019531 -5.476562 -6.066406 -4.363281 -5.953125 -2.875 C -5.941406 -2.8125 -5.847656 -2.519531 -5.671875 -2 C -5.492188 -1.488281 -5.414062 -1.210938 -5.4375 -1.171875 C -5.5 -0.921875 -5.65625 -0.832031 -5.90625 -0.90625 C -6.113281 -0.957031 -6.300781 -1.53125 -6.46875 -2.625 C -6.5625 -3.382812 -6.617188 -4.097656 -6.640625 -4.765625 C -6.660156 -4.972656 -6.613281 -5.488281 -6.5 -6.3125 C -6.476562 -6.394531 -6.457031 -6.476562 -6.4375 -6.5625 C -6.363281 -6.863281 -6.238281 -7.109375 -6.0625 -7.296875 C -5.84375 -7.484375 -5.613281 -7.546875 -5.375 -7.484375 C -5.21875 -7.441406 -5.054688 -7.335938 -4.890625 -7.171875 C -4.804688 -7.078125 -4.773438 -6.984375 -4.796875 -6.890625 Z M -3.140625 -2.375 C -3.128906 -2.476562 -3.140625 -2.785156 -3.171875 -3.296875 C -3.191406 -3.703125 -3.175781 -4.007812 -3.125 -4.21875 C -2.9375 -4.894531 -2.660156 -5.242188 -2.296875 -5.265625 L -2 -5.109375 C -2.039062 -4.929688 -2.140625 -4.8125 -2.296875 -4.75 C -2.390625 -4.71875 -2.472656 -4.566406 -2.546875 -4.296875 C -2.597656 -4.085938 -2.640625 -3.710938 -2.671875 -3.171875 C -2.671875 -2.566406 -2.617188 -2.234375 -2.515625 -2.171875 C -2.316406 -2.066406 -1.984375 -1.957031 -1.515625 -1.84375 C -1.140625 -1.757812 -0.765625 -1.675781 -0.390625 -1.59375 C -0.046875 -1.507812 0.207031 -1.484375 0.375 -1.515625 C 0.632812 -1.535156 0.804688 -1.6875 0.890625 -1.96875 C 0.972656 -2.269531 1.019531 -2.785156 1.03125 -3.515625 C 1.019531 -4.265625 1.066406 -4.820312 1.171875 -5.1875 C 1.253906 -5.5 1.425781 -5.753906 1.6875 -5.953125 C 1.976562 -6.171875 2.300781 -6.234375 2.65625 -6.140625 L 2.734375 -5.796875 C 2.203125 -5.710938 1.859375 -5.382812 1.703125 -4.8125 C 1.609375 -4.476562 1.554688 -3.960938 1.546875 -3.265625 C 1.535156 -2.578125 1.484375 -2.066406 1.390625 -1.734375 C 1.253906 -1.210938 0.976562 -0.914062 0.5625 -0.84375 C 0.300781 -0.78125 -0.0820312 -0.816406 -0.59375 -0.953125 C -0.789062 -1.003906 -1.085938 -1.09375 -1.484375 -1.21875 C -1.878906 -1.351562 -2.171875 -1.453125 -2.359375 -1.515625 C -2.285156 -1.242188 -2.257812 -1.066406 -2.28125 -0.984375 C -2.332031 -0.785156 -2.488281 -0.722656 -2.75 -0.796875 C -2.894531 -0.835938 -3.019531 -1.148438 -3.125 -1.734375 C -3.457031 -1.847656 -4.003906 -2.050781 -4.765625 -2.34375 C -5.703125 -2.707031 -6.132812 -3.019531 -6.0625 -3.28125 C -6 -3.53125 -5.820312 -3.613281 -5.53125 -3.53125 C -5.53125 -3.53125 -5.300781 -3.410156 -4.84375 -3.171875 C -4.4375 -2.941406 -3.867188 -2.675781 -3.140625 -2.375 Z M -3.140625 -2.375 "/></g></g></g><g fill="#e6cfc3" fill-opacity="1"><g transform="translate(288.147592, 211.26722)"><g><path d="M 1.46875 -6.859375 C 1.394531 -6.359375 0.890625 -6.050781 -0.046875 -5.9375 C -0.597656 -5.875 -1.519531 -5.890625 -2.8125 -5.984375 C -3.445312 -6.035156 -4.34375 -6.082031 -5.5 -6.125 C -6.25 -6.125 -6.640625 -6.015625 -6.671875 -5.796875 C -6.691406 -5.628906 -6.097656 -5.207031 -4.890625 -4.53125 C -3.566406 -3.78125 -2.648438 -3.285156 -2.140625 -3.046875 C -1.085938 -2.554688 -0.109375 -2.253906 0.796875 -2.140625 C 1.140625 -2.085938 1.289062 -1.925781 1.25 -1.65625 C 1.21875 -1.394531 1.039062 -1.285156 0.71875 -1.328125 C 0.425781 -1.367188 -0.0078125 -1.460938 -0.59375 -1.609375 C -1.175781 -1.765625 -1.617188 -1.863281 -1.921875 -1.90625 C -2.242188 -1.945312 -2.734375 -2.03125 -3.390625 -2.15625 C -4.054688 -2.28125 -4.554688 -2.367188 -4.890625 -2.421875 C -5.816406 -2.554688 -6.289062 -2.523438 -6.3125 -2.328125 C -6.351562 -2.078125 -5.992188 -1.539062 -5.234375 -0.71875 C -5.066406 -0.53125 -4.976562 -0.410156 -4.96875 -0.359375 C -4.957031 -0.328125 -4.953125 -0.300781 -4.953125 -0.28125 C -4.960938 -0.195312 -5.019531 -0.125 -5.125 -0.0625 C -5.21875 -0.0195312 -5.304688 -0.00390625 -5.390625 -0.015625 C -5.628906 -0.0546875 -5.953125 -0.429688 -6.359375 -1.140625 C -6.734375 -1.804688 -6.898438 -2.269531 -6.859375 -2.53125 C -6.785156 -3.070312 -6.367188 -3.285156 -5.609375 -3.171875 L -2.8125 -2.734375 C -3.289062 -2.972656 -4.003906 -3.34375 -4.953125 -3.84375 C -6.492188 -4.675781 -7.222656 -5.410156 -7.140625 -6.046875 C -7.078125 -6.460938 -6.703125 -6.703125 -6.015625 -6.765625 C -5.859375 -6.785156 -5.363281 -6.773438 -4.53125 -6.734375 C -3.957031 -6.679688 -2.957031 -6.617188 -1.53125 -6.546875 C 0.0390625 -6.523438 0.847656 -6.660156 0.890625 -6.953125 C 0.890625 -6.992188 0.847656 -7.109375 0.765625 -7.296875 C 0.722656 -7.347656 0.695312 -7.425781 0.6875 -7.53125 L 0.84375 -7.734375 C 1.039062 -7.703125 1.203125 -7.578125 1.328125 -7.359375 C 1.441406 -7.171875 1.488281 -7.003906 1.46875 -6.859375 Z M 1.46875 -6.859375 "/></g></g></g><g fill="#e6cfc3" fill-opacity="1"><g transform="translate(289.663023, 198.679537)"><g><path d="M 1.109375 -3.484375 C 1.097656 -3.003906 1.015625 -2.664062 0.859375 -2.46875 C 0.828125 -2.425781 0.785156 -2.40625 0.734375 -2.40625 C 0.671875 -2.40625 0.609375 -2.4375 0.546875 -2.5 C 0.492188 -2.570312 0.476562 -2.640625 0.5 -2.703125 C 0.570312 -3.023438 0.609375 -3.1875 0.609375 -3.1875 C 0.617188 -4.226562 0.113281 -5.234375 -0.90625 -6.203125 C -1.914062 -7.140625 -2.941406 -7.617188 -3.984375 -7.640625 C -4.835938 -7.648438 -5.535156 -7.316406 -6.078125 -6.640625 C -6.566406 -5.992188 -6.816406 -5.210938 -6.828125 -4.296875 C -6.835938 -3.671875 -6.75 -3.015625 -6.5625 -2.328125 C -6.363281 -1.609375 -6.097656 -1.003906 -5.765625 -0.515625 C -5.441406 -0.0234375 -5.28125 0.25 -5.28125 0.3125 C -5.289062 0.59375 -5.425781 0.734375 -5.6875 0.734375 C -5.851562 0.734375 -6.050781 0.515625 -6.28125 0.078125 C -7.0625 -1.296875 -7.441406 -2.769531 -7.421875 -4.34375 C -7.410156 -5.351562 -7.101562 -6.242188 -6.5 -7.015625 C -5.832031 -7.847656 -5.003906 -8.257812 -4.015625 -8.25 C -2.796875 -8.226562 -1.644531 -7.742188 -0.5625 -6.796875 C 0.570312 -5.796875 1.128906 -4.691406 1.109375 -3.484375 Z M 1.0625 -2.0625 C 1.050781 -1.582031 0.566406 -1.21875 -0.390625 -0.96875 C -1.054688 -0.789062 -1.71875 -0.707031 -2.375 -0.71875 L -3.328125 -0.734375 C -3.660156 -0.734375 -4.148438 -0.800781 -4.796875 -0.9375 C -5.585938 -1.09375 -5.984375 -1.257812 -5.984375 -1.4375 C -5.972656 -1.6875 -5.828125 -1.8125 -5.546875 -1.8125 C -5.410156 -1.8125 -5.242188 -1.785156 -5.046875 -1.734375 C -4.753906 -1.648438 -4.585938 -1.601562 -4.546875 -1.59375 C -3.796875 -1.4375 -3.113281 -1.351562 -2.5 -1.34375 C -0.488281 -1.320312 0.519531 -1.664062 0.53125 -2.375 C 0.53125 -2.46875 0.515625 -2.5625 0.484375 -2.65625 C 0.867188 -2.4375 1.0625 -2.238281 1.0625 -2.0625 Z M 1.0625 -2.0625 "/></g></g></g><path fill="#b76e79" d="M 167.183594 214.449219 C 166.574219 214.449219 165.972656 214.246094 165.496094 213.867188 L 134.703125 189.640625 C 134.042969 189.117188 133.664062 188.339844 133.664062 187.496094 C 133.664062 186.65625 134.042969 185.875 134.703125 185.351562 L 165.496094 161.128906 C 165.972656 160.75 166.574219 160.542969 167.183594 160.542969 C 168.023438 160.542969 168.808594 160.921875 169.324219 161.585938 C 169.773438 162.15625 169.976562 162.871094 169.890625 163.59375 C 169.804688 164.316406 169.441406 164.960938 168.867188 165.414062 L 140.804688 187.496094 L 168.867188 209.578125 C 169.441406 210.03125 169.804688 210.679688 169.890625 211.398438 C 169.976562 212.125 169.773438 212.832031 169.324219 213.410156 C 168.808594 214.070312 168.023438 214.449219 167.183594 214.449219 " fill-opacity="1" fill-rule="nonzero"/><g clip-path="url(#c046486cfd)"><path fill="#e6cfc3" d="M 167.183594 159.382812 C 166.3125 159.382812 165.464844 159.675781 164.78125 160.214844 L 133.984375 184.441406 C 133.039062 185.1875 132.5 186.300781 132.5 187.496094 C 132.5 188.695312 133.042969 189.8125 133.984375 190.554688 L 164.78125 214.78125 C 165.457031 215.316406 166.3125 215.613281 167.183594 215.613281 C 168.386719 215.613281 169.5 215.070312 170.238281 214.125 C 170.882812 213.3125 171.167969 212.296875 171.046875 211.265625 C 170.921875 210.234375 170.40625 209.308594 169.589844 208.667969 L 142.683594 187.496094 L 169.589844 166.328125 C 170.40625 165.683594 170.921875 164.761719 171.046875 163.730469 C 171.167969 162.699219 170.882812 161.683594 170.238281 160.863281 C 169.5 159.921875 168.378906 159.382812 167.183594 159.382812 Z M 167.183594 161.707031 C 167.644531 161.707031 168.105469 161.910156 168.414062 162.300781 C 168.953125 162.984375 168.832031 163.96875 168.152344 164.503906 L 138.921875 187.496094 L 168.152344 210.492188 C 168.832031 211.027344 168.953125 212.011719 168.414062 212.691406 C 168.105469 213.085938 167.644531 213.289062 167.183594 213.289062 C 166.84375 213.289062 166.503906 213.183594 166.214844 212.953125 L 135.421875 188.730469 C 135.046875 188.429688 134.824219 187.976562 134.824219 187.496094 C 134.824219 187.015625 135.046875 186.5625 135.421875 186.265625 L 166.214844 162.039062 C 166.5 161.8125 166.84375 161.707031 167.183594 161.707031 " fill-opacity="1" fill-rule="nonzero"/></g><path fill="#b76e79" d="M 207.8125 214.449219 C 206.96875 214.449219 206.191406 214.070312 205.664062 213.410156 C 204.734375 212.230469 204.941406 210.511719 206.125 209.578125 L 234.191406 187.496094 L 206.125 165.414062 C 204.941406 164.484375 204.734375 162.765625 205.664062 161.585938 C 206.191406 160.921875 206.96875 160.542969 207.8125 160.542969 C 208.417969 160.542969 209.019531 160.75 209.496094 161.128906 L 240.292969 185.351562 C 240.953125 185.875 241.328125 186.65625 241.328125 187.496094 C 241.328125 188.339844 240.953125 189.117188 240.289062 189.640625 L 209.496094 213.867188 C 209.019531 214.246094 208.417969 214.449219 207.8125 214.449219 " fill-opacity="1" fill-rule="nonzero"/><g clip-path="url(#e9fc71239a)"><path fill="#e6cfc3" d="M 207.8125 159.382812 C 206.613281 159.382812 205.496094 159.921875 204.753906 160.863281 C 203.425781 162.550781 203.71875 165 205.40625 166.328125 L 232.3125 187.496094 L 205.40625 208.667969 C 203.71875 209.992188 203.425781 212.445312 204.753906 214.125 C 205.496094 215.070312 206.613281 215.613281 207.8125 215.613281 C 208.679688 215.613281 209.53125 215.316406 210.210938 214.78125 L 241.007812 190.554688 C 241.949219 189.8125 242.488281 188.695312 242.488281 187.496094 C 242.488281 186.300781 241.949219 185.1875 241.011719 184.441406 L 210.21875 160.214844 C 209.535156 159.675781 208.679688 159.382812 207.8125 159.382812 Z M 207.8125 161.707031 C 208.148438 161.707031 208.492188 161.8125 208.777344 162.039062 L 239.570312 186.265625 C 239.949219 186.5625 240.167969 187.015625 240.167969 187.496094 C 240.167969 187.976562 239.949219 188.429688 239.570312 188.730469 L 208.777344 212.953125 C 208.492188 213.183594 208.148438 213.289062 207.8125 213.289062 C 207.347656 213.289062 206.886719 213.085938 206.578125 212.691406 C 206.046875 212.011719 206.160156 211.027344 206.839844 210.492188 L 236.070312 187.496094 L 206.839844 164.503906 C 206.160156 163.96875 206.046875 162.984375 206.578125 162.300781 C 206.886719 161.910156 207.351562 161.707031 207.8125 161.707031 " fill-opacity="1" fill-rule="nonzero"/></g><path fill="#b76e79" d="M 172.195312 229.070312 C 171.855469 229.070312 171.523438 229.003906 171.210938 228.882812 C 170.53125 228.621094 169.992188 228.109375 169.699219 227.445312 C 169.402344 226.773438 169.386719 226.035156 169.648438 225.359375 L 199.722656 147.667969 C 200.128906 146.625 201.148438 145.925781 202.265625 145.925781 C 202.601562 145.925781 202.9375 145.992188 203.253906 146.109375 C 204.652344 146.65625 205.355469 148.238281 204.808594 149.640625 L 174.738281 227.328125 C 174.335938 228.367188 173.308594 229.070312 172.195312 229.070312 " fill-opacity="1" fill-rule="nonzero"/><g clip-path="url(#d0cc0955ae)"><path fill="#e6cfc3" d="M 202.265625 144.765625 C 200.671875 144.765625 199.210938 145.765625 198.640625 147.25 L 168.566406 224.933594 C 168.195312 225.90625 168.21875 226.960938 168.636719 227.914062 C 169.058594 228.859375 169.820312 229.59375 170.792969 229.964844 C 171.242188 230.144531 171.710938 230.230469 172.195312 230.230469 C 173.789062 230.230469 175.246094 229.234375 175.824219 227.746094 L 205.890625 150.058594 C 206.667969 148.058594 205.667969 145.800781 203.667969 145.027344 C 203.222656 144.851562 202.746094 144.765625 202.265625 144.765625 Z M 202.265625 147.085938 C 202.453125 147.085938 202.644531 147.125 202.832031 147.195312 C 203.640625 147.503906 204.039062 148.410156 203.726562 149.21875 L 173.652344 226.90625 C 173.417969 227.527344 172.820312 227.910156 172.195312 227.910156 C 172.003906 227.910156 171.8125 227.875 171.628906 227.800781 C 170.820312 227.492188 170.417969 226.578125 170.734375 225.777344 L 200.804688 148.089844 C 201.046875 147.46875 201.636719 147.085938 202.265625 147.085938 " fill-opacity="1" fill-rule="nonzero"/></g></svg>