<svg xmlns="http://www.w3.org/2000/svg" xmlns:xlink="http://www.w3.org/1999/xlink" width="500" zoomAndPan="magnify" viewBox="0 0 375 374.999991" height="500" preserveAspectRatio="xMidYMid meet" version="1.0"><defs><clipPath id="651a3f3dff"><path d="M 0 0 L 375 0 L 375 375 L 0 375 Z M 0 0 " clip-rule="nonzero"/></clipPath><clipPath id="6f04eb56a1"><path d="M 187.5 0 C 83.945312 0 0 83.945312 0 187.5 C 0 291.054688 83.945312 375 187.5 375 C 291.054688 375 375 291.054688 375 187.5 C 375 83.945312 291.054688 0 187.5 0 Z M 187.5 0 " clip-rule="nonzero"/></clipPath><clipPath id="48dd5a80fa"><path d="M 0 0 L 375 0 L 375 375 L 0 375 Z M 0 0 " clip-rule="nonzero"/></clipPath><clipPath id="6e9bba2839"><path d="M 187.5 0 C 83.945312 0 0 83.945312 0 187.5 C 0 291.054688 83.945312 375 187.5 375 C 291.054688 375 375 291.054688 375 187.5 C 375 83.945312 291.054688 0 187.5 0 Z M 187.5 0 " clip-rule="nonzero"/></clipPath><clipPath id="94ddde74cb"><rect x="0" width="375" y="0" height="375"/></clipPath><clipPath id="96f1a13e63"><path d="M 75.203125 106.238281 L 300 106.238281 L 300 269 L 75.203125 269 Z M 75.203125 106.238281 " clip-rule="nonzero"/></clipPath><clipPath id="6fc3f3ab74"><rect x="0" width="375" y="0" height="375"/></clipPath></defs><g transform="matrix(1, 0, 0, 1, 0, 0)"><g clip-path="url(#6fc3f3ab74)"><g clip-path="url(#651a3f3dff)"><g clip-path="url(#6f04eb56a1)"><g transform="matrix(1, 0, 0, 1, 0, 0)"><g clip-path="url(#94ddde74cb)"><g clip-path="url(#48dd5a80fa)"><g clip-path="url(#6e9bba2839)"><rect x="-136.5" width="648" fill="#b76e79" y="-136.499997" height="647.999984" fill-opacity="1"/></g></g></g></g></g></g><g clip-path="url(#96f1a13e63)"><path fill="#f5efea" d="M 280.3125 106.238281 L 94.636719 106.238281 C 83.957031 106.238281 75.292969 114.902344 75.292969 125.578125 L 75.292969 249.363281 C 75.292969 260.039062 83.957031 268.707031 94.636719 268.707031 L 280.3125 268.707031 C 290.988281 268.707031 299.65625 260.039062 299.65625 249.363281 L 299.65625 125.578125 C 299.65625 114.902344 290.988281 106.238281 280.3125 106.238281 Z M 227.203125 179.8125 L 290.601562 120.277344 C 291.414062 121.902344 291.917969 123.683594 291.917969 125.578125 L 291.917969 249.363281 C 291.917969 250.835938 291.609375 252.226562 291.105469 253.542969 Z M 280.3125 113.972656 C 281.976562 113.972656 283.5625 114.320312 284.957031 114.980469 L 187.472656 206.503906 L 89.992188 114.980469 C 91.386719 114.320312 92.972656 113.972656 94.636719 113.972656 Z M 83.84375 253.542969 C 83.339844 252.226562 83.03125 250.835938 83.03125 249.363281 L 83.03125 125.578125 C 83.03125 123.683594 83.53125 121.902344 84.34375 120.316406 L 147.746094 179.851562 Z M 94.636719 260.96875 C 92.546875 260.96875 90.652344 260.390625 88.949219 259.421875 L 153.394531 185.113281 L 184.804688 214.628906 C 185.539062 215.324219 186.507812 215.671875 187.433594 215.671875 C 188.363281 215.671875 189.332031 215.324219 190.066406 214.628906 L 221.476562 185.113281 L 286 259.421875 C 284.296875 260.390625 282.402344 260.96875 280.3125 260.96875 Z M 94.636719 260.96875 " fill-opacity="1" fill-rule="nonzero"/></g></g></g></svg>