<svg xmlns="http://www.w3.org/2000/svg" xmlns:xlink="http://www.w3.org/1999/xlink" width="500" zoomAndPan="magnify" viewBox="0 0 375 374.999991" height="500" preserveAspectRatio="xMidYMid meet" version="1.0"><defs><clipPath id="65adfdadae"><path d="M 153.09375 153.09375 L 221.90625 153.09375 L 221.90625 221.90625 L 153.09375 221.90625 Z M 153.09375 153.09375 " clip-rule="nonzero"/></clipPath><clipPath id="9a67040699"><path d="M 187.5 153.09375 C 168.5 153.09375 153.09375 168.5 153.09375 187.5 C 153.09375 206.5 168.5 221.90625 187.5 221.90625 C 206.5 221.90625 221.90625 206.5 221.90625 187.5 C 221.90625 168.5 206.5 153.09375 187.5 153.09375 Z M 187.5 153.09375 " clip-rule="nonzero"/></clipPath><clipPath id="ae58c41416"><path d="M 0.09375 0.09375 L 68.90625 0.09375 L 68.90625 68.90625 L 0.09375 68.90625 Z M 0.09375 0.09375 " clip-rule="nonzero"/></clipPath><clipPath id="3524e98a52"><path d="M 34.5 0.09375 C 15.5 0.09375 0.09375 15.5 0.09375 34.5 C 0.09375 53.5 15.5 68.90625 34.5 68.90625 C 53.5 68.90625 68.90625 53.5 68.90625 34.5 C 68.90625 15.5 53.5 0.09375 34.5 0.09375 Z M 34.5 0.09375 " clip-rule="nonzero"/></clipPath><clipPath id="c3cf48ea39"><rect x="0" width="69" y="0" height="69"/></clipPath><clipPath id="b725d1a47a"><path d="M 166.894531 172.589844 L 208.144531 172.589844 L 208.144531 202.589844 L 166.894531 202.589844 Z M 166.894531 172.589844 " clip-rule="nonzero"/></clipPath></defs><g clip-path="url(#65adfdadae)"><g clip-path="url(#9a67040699)"><g transform="matrix(1, 0, 0, 1, 153, 153)"><g clip-path="url(#c3cf48ea39)"><g clip-path="url(#ae58c41416)"><g clip-path="url(#3524e98a52)"><path fill="#b76e79" d="M 0.09375 0.09375 L 68.90625 0.09375 L 68.90625 68.90625 L 0.09375 68.90625 Z M 0.09375 0.09375 " fill-opacity="1" fill-rule="nonzero"/></g></g></g></g></g></g><g clip-path="url(#b725d1a47a)"><path fill="#f5efea" d="M 204.53125 172.589844 L 170.460938 172.589844 C 168.5 172.589844 166.910156 174.179688 166.910156 176.136719 L 166.910156 198.851562 C 166.910156 200.8125 168.5 202.402344 170.460938 202.402344 L 204.53125 202.402344 C 206.488281 202.402344 208.078125 200.8125 208.078125 198.851562 L 208.078125 176.136719 C 208.078125 174.179688 206.488281 172.589844 204.53125 172.589844 Z M 194.785156 186.089844 L 206.417969 175.164062 C 206.566406 175.464844 206.660156 175.789062 206.660156 176.136719 L 206.660156 198.851562 C 206.660156 199.121094 206.605469 199.378906 206.511719 199.617188 Z M 204.53125 174.007812 C 204.835938 174.007812 205.128906 174.070312 205.382812 174.191406 L 187.496094 190.988281 L 169.609375 174.191406 C 169.863281 174.070312 170.15625 174.007812 170.460938 174.007812 Z M 168.480469 199.617188 C 168.386719 199.378906 168.328125 199.121094 168.328125 198.851562 L 168.328125 176.136719 C 168.328125 175.789062 168.421875 175.464844 168.570312 175.171875 L 180.207031 186.097656 Z M 170.460938 200.980469 C 170.078125 200.980469 169.726562 200.875 169.417969 200.699219 L 181.242188 187.0625 L 187.003906 192.476562 C 187.140625 192.605469 187.316406 192.667969 187.488281 192.667969 C 187.660156 192.667969 187.835938 192.605469 187.972656 192.476562 L 193.734375 187.0625 L 205.574219 200.699219 C 205.261719 200.875 204.914062 200.980469 204.53125 200.980469 Z M 170.460938 200.980469 " fill-opacity="1" fill-rule="nonzero"/></g></svg>