<svg xmlns="http://www.w3.org/2000/svg" xmlns:xlink="http://www.w3.org/1999/xlink" width="500" zoomAndPan="magnify" viewBox="0 0 375 374.999991" height="500" preserveAspectRatio="xMidYMid meet" version="1.0"><defs><g/><clipPath id="ad6524a378"><path d="M 187.5 0 C 83.945312 0 0 83.945312 0 187.5 C 0 291.054688 83.945312 375 187.5 375 C 291.054688 375 375 291.054688 375 187.5 C 375 83.945312 291.054688 0 187.5 0 Z M 187.5 0 " clip-rule="nonzero"/></clipPath><clipPath id="9d1da30b34"><path d="M 0 0 L 375 0 L 375 375 L 0 375 Z M 0 0 " clip-rule="nonzero"/></clipPath><clipPath id="0aaa7dae8a"><path d="M 187.5 0 C 83.945312 0 0 83.945312 0 187.5 C 0 291.054688 83.945312 375 187.5 375 C 291.054688 375 375 291.054688 375 187.5 C 375 83.945312 291.054688 0 187.5 0 Z M 187.5 0 " clip-rule="nonzero"/></clipPath><clipPath id="9cf1a9fa12"><rect x="0" width="375" y="0" height="375"/></clipPath></defs><g clip-path="url(#ad6524a378)"><g transform="matrix(1, 0, 0, 1, 0, 0)"><g clip-path="url(#9cf1a9fa12)"><g clip-path="url(#9d1da30b34)"><g clip-path="url(#0aaa7dae8a)"><rect x="-82.5" width="540" fill="#b76e79" height="539.999987" y="-82.499998" fill-opacity="1"/></g></g></g></g></g><g fill="#f5efea" fill-opacity="1"><g transform="translate(107.498429, 252.374983)"><g><path d="M 23.203125 1 C 20.535156 1 18.535156 0.234375 17.203125 -1.296875 C 15.867188 -2.828125 15.203125 -4.992188 15.203125 -7.796875 L 15.203125 -89.59375 C 15.203125 -92.394531 15.867188 -94.53125 17.203125 -96 C 18.535156 -97.46875 20.535156 -98.203125 23.203125 -98.203125 C 25.734375 -98.203125 27.734375 -97.46875 29.203125 -96 C 30.671875 -94.53125 31.40625 -92.394531 31.40625 -89.59375 L 31.40625 -7.796875 C 31.40625 -4.992188 30.703125 -2.828125 29.296875 -1.296875 C 27.898438 0.234375 25.867188 1 23.203125 1 Z M 23.203125 -120.59375 C 19.867188 -120.59375 17.265625 -121.492188 15.390625 -123.296875 C 13.523438 -125.097656 12.59375 -127.53125 12.59375 -130.59375 C 12.59375 -133.800781 13.523438 -136.238281 15.390625 -137.90625 C 17.265625 -139.570312 19.867188 -140.40625 23.203125 -140.40625 C 26.671875 -140.40625 29.300781 -139.570312 31.09375 -137.90625 C 32.894531 -136.238281 33.796875 -133.800781 33.796875 -130.59375 C 33.796875 -127.53125 32.894531 -125.097656 31.09375 -123.296875 C 29.300781 -121.492188 26.671875 -120.59375 23.203125 -120.59375 Z M 23.203125 -120.59375 "/></g></g></g><g fill="#f5efea" fill-opacity="1"><g transform="translate(153.897191, 252.374983)"><g><path d="M 23.203125 1.40625 C 20.535156 1.40625 18.535156 0.671875 17.203125 -0.796875 C 15.867188 -2.265625 15.203125 -4.332031 15.203125 -7 L 15.203125 -90.40625 C 15.203125 -93.070312 15.867188 -95.101562 17.203125 -96.5 C 18.535156 -97.894531 20.46875 -98.59375 23 -98.59375 C 25.53125 -98.59375 27.492188 -97.894531 28.890625 -96.5 C 30.296875 -95.101562 31 -93.070312 31 -90.40625 L 31 -73.203125 L 28.796875 -75.59375 C 31.597656 -83.332031 36.164062 -89.164062 42.5 -93.09375 C 48.832031 -97.03125 56.132812 -99 64.40625 -99 C 72.132812 -99 78.566406 -97.597656 83.703125 -94.796875 C 88.835938 -91.992188 92.671875 -87.757812 95.203125 -82.09375 C 97.734375 -76.425781 99 -69.257812 99 -60.59375 L 99 -7 C 99 -4.332031 98.296875 -2.265625 96.890625 -0.796875 C 95.492188 0.671875 93.53125 1.40625 91 1.40625 C 88.332031 1.40625 86.296875 0.671875 84.890625 -0.796875 C 83.492188 -2.265625 82.796875 -4.332031 82.796875 -7 L 82.796875 -59.59375 C 82.796875 -68.664062 81.03125 -75.300781 77.5 -79.5 C 73.96875 -83.695312 68.332031 -85.796875 60.59375 -85.796875 C 51.664062 -85.796875 44.566406 -83.03125 39.296875 -77.5 C 34.035156 -71.96875 31.40625 -64.601562 31.40625 -55.40625 L 31.40625 -7 C 31.40625 -1.394531 28.671875 1.40625 23.203125 1.40625 Z M 23.203125 1.40625 "/></g></g></g></svg>