<svg xmlns="http://www.w3.org/2000/svg" xmlns:xlink="http://www.w3.org/1999/xlink" width="500" zoomAndPan="magnify" viewBox="0 0 375 374.999991" height="500" preserveAspectRatio="xMidYMid meet" version="1.0"><defs><clipPath id="09c2f59588"><path d="M 153.09375 153.09375 L 221.90625 153.09375 L 221.90625 221.90625 L 153.09375 221.90625 Z M 153.09375 153.09375 " clip-rule="nonzero"/></clipPath><clipPath id="78dc1f5baf"><path d="M 187.5 153.09375 C 168.5 153.09375 153.09375 168.5 153.09375 187.5 C 153.09375 206.5 168.5 221.90625 187.5 221.90625 C 206.5 221.90625 221.90625 206.5 221.90625 187.5 C 221.90625 168.5 206.5 153.09375 187.5 153.09375 Z M 187.5 153.09375 " clip-rule="nonzero"/></clipPath><clipPath id="22efac12f1"><path d="M 0.09375 0.09375 L 68.90625 0.09375 L 68.90625 68.90625 L 0.09375 68.90625 Z M 0.09375 0.09375 " clip-rule="nonzero"/></clipPath><clipPath id="ffc97db81e"><path d="M 34.5 0.09375 C 15.5 0.09375 0.09375 15.5 0.09375 34.5 C 0.09375 53.5 15.5 68.90625 34.5 68.90625 C 53.5 68.90625 68.90625 53.5 68.90625 34.5 C 68.90625 15.5 53.5 0.09375 34.5 0.09375 Z M 34.5 0.09375 " clip-rule="nonzero"/></clipPath><clipPath id="2b61ec3f4e"><rect x="0" width="69" y="0" height="69"/></clipPath><clipPath id="27c22fff58"><path d="M 172 180 L 178 180 L 178 204.644531 L 172 204.644531 Z M 172 180 " clip-rule="nonzero"/></clipPath><clipPath id="3af77c3573"><path d="M 183 180 L 204.332031 180 L 204.332031 204.644531 L 183 204.644531 Z M 183 180 " clip-rule="nonzero"/></clipPath><clipPath id="d91d318cb0"><path d="M 170.582031 170.144531 L 180 170.144531 L 180 180 L 170.582031 180 Z M 170.582031 170.144531 " clip-rule="nonzero"/></clipPath></defs><g clip-path="url(#09c2f59588)"><g clip-path="url(#78dc1f5baf)"><g transform="matrix(1, 0, 0, 1, 153, 153)"><g clip-path="url(#2b61ec3f4e)"><g clip-path="url(#22efac12f1)"><g clip-path="url(#ffc97db81e)"><path fill="#b76e79" d="M 0.09375 0.09375 L 68.90625 0.09375 L 68.90625 68.90625 L 0.09375 68.90625 Z M 0.09375 0.09375 " fill-opacity="1" fill-rule="nonzero"/></g></g></g></g></g></g><g clip-path="url(#27c22fff58)"><path fill="#f5efea" d="M 177.285156 204.84375 L 173.082031 204.84375 C 172.945312 204.84375 172.828125 204.792969 172.734375 204.695312 C 172.636719 204.601562 172.585938 204.484375 172.585938 204.347656 L 172.585938 181.246094 C 172.585938 181.109375 172.636719 180.992188 172.734375 180.894531 C 172.828125 180.800781 172.945312 180.75 173.082031 180.75 L 177.285156 180.75 C 177.421875 180.75 177.539062 180.800781 177.632812 180.894531 C 177.730469 180.992188 177.777344 181.109375 177.777344 181.246094 L 177.777344 204.347656 C 177.777344 204.484375 177.730469 204.601562 177.632812 204.695312 C 177.539062 204.792969 177.421875 204.84375 177.285156 204.84375 Z M 173.578125 203.851562 L 176.789062 203.851562 L 176.789062 181.742188 L 173.578125 181.742188 Z M 173.578125 203.851562 " fill-opacity="1" fill-rule="nonzero"/></g><g clip-path="url(#3af77c3573)"><path fill="#f5efea" d="M 203.914062 204.84375 L 199.714844 204.84375 C 199.578125 204.84375 199.460938 204.792969 199.363281 204.695312 C 199.269531 204.601562 199.21875 204.484375 199.21875 204.347656 L 199.21875 191.03125 C 199.21875 188.144531 198.378906 184.699219 194.371094 184.699219 C 191.640625 184.699219 189.8125 186.683594 189.210938 188.644531 C 189.210938 188.652344 189.207031 188.660156 189.203125 188.671875 C 189.039062 189.117188 188.945312 189.769531 188.945312 190.457031 L 188.945312 204.347656 C 188.945312 204.484375 188.898438 204.601562 188.800781 204.695312 C 188.707031 204.792969 188.589844 204.84375 188.453125 204.84375 L 184.25 204.84375 C 184.113281 204.84375 183.996094 204.792969 183.902344 204.695312 C 183.804688 204.601562 183.757812 204.484375 183.757812 204.347656 L 183.757812 187.5 C 183.757812 184.914062 183.699219 183.054688 183.566406 181.28125 C 183.554688 181.140625 183.597656 181.015625 183.695312 180.910156 C 183.796875 180.804688 183.917969 180.75 184.058594 180.75 L 187.78125 180.75 C 187.914062 180.75 188.027344 180.796875 188.121094 180.882812 C 188.21875 180.972656 188.269531 181.085938 188.277344 181.214844 L 188.433594 183.667969 C 189.0625 182.867188 189.808594 182.191406 190.671875 181.648438 C 192.148438 180.71875 193.90625 180.226562 195.753906 180.226562 C 196.703125 180.226562 197.632812 180.375 198.535156 180.671875 C 199.601562 181.023438 200.554688 181.570312 201.363281 182.296875 C 202.304688 183.136719 203.042969 184.210938 203.550781 185.488281 C 204.121094 186.921875 204.410156 188.625 204.410156 190.550781 L 204.410156 204.347656 C 204.410156 204.484375 204.363281 204.601562 204.265625 204.695312 C 204.167969 204.792969 204.050781 204.84375 203.914062 204.84375 Z M 200.210938 203.851562 L 203.417969 203.851562 L 203.417969 190.554688 C 203.417969 187.175781 202.503906 184.648438 200.703125 183.035156 C 198.871094 181.394531 196.628906 181.214844 195.753906 181.214844 C 192.015625 181.214844 189.585938 183.324219 188.558594 185.292969 C 188.464844 185.472656 188.316406 185.558594 188.117188 185.558594 L 188.023438 185.558594 C 187.890625 185.558594 187.777344 185.515625 187.683594 185.425781 C 187.585938 185.335938 187.535156 185.226562 187.527344 185.09375 L 187.316406 181.742188 L 184.589844 181.742188 C 184.699219 183.382812 184.746094 185.144531 184.746094 187.5 L 184.746094 203.851562 L 187.957031 203.851562 L 187.957031 190.457031 C 187.957031 189.652344 188.066406 188.902344 188.265625 188.34375 C 188.671875 187.035156 189.410156 185.953125 190.472656 185.089844 C 191.597656 184.1875 192.945312 183.710938 194.367188 183.710938 C 195.402344 183.710938 196.320312 183.910156 197.101562 184.304688 C 197.835938 184.679688 198.453125 185.230469 198.9375 185.945312 C 199.78125 187.1875 200.210938 188.902344 200.210938 191.03125 Z M 200.210938 203.851562 " fill-opacity="1" fill-rule="nonzero"/></g><g clip-path="url(#d91d318cb0)"><path fill="#f5efea" d="M 175.160156 179.3125 C 174.964844 179.3125 174.820312 179.226562 174.726562 179.054688 L 173.351562 176.539062 L 170.835938 175.167969 C 170.664062 175.070312 170.578125 174.925781 170.578125 174.730469 C 170.578125 174.535156 170.664062 174.390625 170.835938 174.296875 L 173.351562 172.921875 L 174.726562 170.40625 C 174.820312 170.234375 174.964844 170.148438 175.160156 170.148438 C 175.355469 170.148438 175.5 170.234375 175.59375 170.40625 L 176.96875 172.921875 L 179.484375 174.296875 C 179.65625 174.390625 179.742188 174.535156 179.742188 174.730469 C 179.742188 174.925781 179.65625 175.070312 179.484375 175.167969 L 176.96875 176.539062 L 175.59375 179.054688 C 175.5 179.226562 175.355469 179.3125 175.160156 179.3125 Z M 172.105469 174.730469 L 173.953125 175.742188 C 174.039062 175.789062 174.105469 175.851562 174.152344 175.9375 L 175.160156 177.785156 L 176.171875 175.9375 C 176.21875 175.851562 176.285156 175.789062 176.367188 175.742188 L 178.214844 174.730469 L 176.367188 173.722656 C 176.285156 173.675781 176.21875 173.609375 176.171875 173.523438 L 175.160156 171.679688 L 174.152344 173.523438 C 174.105469 173.609375 174.039062 173.675781 173.953125 173.722656 Z M 172.105469 174.730469 " fill-opacity="1" fill-rule="nonzero"/></g></svg>