<svg xmlns="http://www.w3.org/2000/svg" xmlns:xlink="http://www.w3.org/1999/xlink" width="500" zoomAndPan="magnify" viewBox="0 0 375 374.999991" height="500" preserveAspectRatio="xMidYMid meet" version="1.0"><defs><clipPath id="4465382b06"><path d="M 0 3.09375 L 371.90625 3.09375 L 371.90625 375 L 0 375 Z M 0 3.09375 " clip-rule="nonzero"/></clipPath><clipPath id="aaa7afe3df"><path d="M 185.953125 3.09375 C 83.253906 3.09375 0 86.347656 0 189.046875 C 0 291.746094 83.253906 375 185.953125 375 C 288.652344 375 371.90625 291.746094 371.90625 189.046875 C 371.90625 86.347656 288.652344 3.09375 185.953125 3.09375 Z M 185.953125 3.09375 " clip-rule="nonzero"/></clipPath><clipPath id="35f966116b"><path d="M 0 0.09375 L 371.90625 0.09375 L 371.90625 372 L 0 372 Z M 0 0.09375 " clip-rule="nonzero"/></clipPath><clipPath id="bc9200ffd5"><path d="M 185.953125 0.09375 C 83.253906 0.09375 0 83.347656 0 186.046875 C 0 288.746094 83.253906 372 185.953125 372 C 288.652344 372 371.90625 288.746094 371.90625 186.046875 C 371.90625 83.347656 288.652344 0.09375 185.953125 0.09375 Z M 185.953125 0.09375 " clip-rule="nonzero"/></clipPath><clipPath id="de7b8723b3"><rect x="0" width="372" y="0" height="372"/></clipPath><clipPath id="ff767dd006"><path d="M 103.183594 72.058594 L 268.933594 72.058594 L 268.933594 306.058594 L 103.183594 306.058594 Z M 103.183594 72.058594 " clip-rule="nonzero"/></clipPath></defs><g clip-path="url(#4465382b06)"><g clip-path="url(#aaa7afe3df)"><g transform="matrix(1, 0, 0, 1, 0, 3)"><g clip-path="url(#de7b8723b3)"><g clip-path="url(#35f966116b)"><g clip-path="url(#bc9200ffd5)"><path fill="#b76e79" d="M 0 0.09375 L 371.90625 0.09375 L 371.90625 372 L 0 372 Z M 0 0.09375 " fill-opacity="1" fill-rule="nonzero"/></g></g></g></g></g></g><g clip-path="url(#ff767dd006)"><path fill="#f5efea" d="M 222.449219 251.789062 C 207.316406 273.550781 192.011719 290.441406 185.984375 296.851562 C 179.953125 290.441406 164.648438 273.550781 149.519531 251.789062 C 131.84375 226.371094 110.773438 188.914062 110.773438 154.832031 C 110.773438 113.363281 144.511719 79.625 185.984375 79.625 C 227.453125 79.625 261.191406 113.363281 261.191406 154.832031 C 261.191406 188.914062 240.121094 226.371094 222.449219 251.789062 Z M 185.984375 72.082031 C 140.355469 72.082031 103.234375 109.207031 103.234375 154.832031 C 103.234375 183.792969 116.746094 217.894531 143.398438 256.199219 C 163.105469 284.511719 183.109375 304.757812 183.308594 304.957031 C 184.015625 305.671875 184.980469 306.070312 185.984375 306.070312 C 186.988281 306.070312 187.953125 305.671875 188.660156 304.957031 C 188.859375 304.757812 208.863281 284.511719 228.570312 256.199219 C 255.21875 217.894531 268.734375 183.792969 268.734375 154.832031 C 268.734375 109.207031 231.613281 72.082031 185.984375 72.082031 " fill-opacity="1" fill-rule="nonzero"/></g><path fill="#f5efea" d="M 186.398438 188.875 C 168.886719 188.875 154.640625 174.628906 154.640625 157.117188 C 154.640625 139.605469 168.886719 125.359375 186.398438 125.359375 C 203.910156 125.359375 218.15625 139.605469 218.15625 157.117188 C 218.15625 174.628906 203.910156 188.875 186.398438 188.875 Z M 186.398438 117.816406 C 164.730469 117.816406 147.101562 135.445312 147.101562 157.117188 C 147.101562 178.785156 164.730469 196.414062 186.398438 196.414062 C 208.066406 196.414062 225.695312 178.785156 225.695312 157.117188 C 225.695312 135.445312 208.066406 117.816406 186.398438 117.816406 " fill-opacity="1" fill-rule="nonzero"/></svg>