<svg xmlns="http://www.w3.org/2000/svg" xmlns:xlink="http://www.w3.org/1999/xlink" width="500" zoomAndPan="magnify" viewBox="0 0 375 374.999991" height="500" preserveAspectRatio="xMidYMid meet" version="1.0"><defs><clipPath id="cc4751af23"><path d="M 153.09375 153.09375 L 221.90625 153.09375 L 221.90625 221.90625 L 153.09375 221.90625 Z M 153.09375 153.09375 " clip-rule="nonzero"/></clipPath><clipPath id="f02a092a30"><path d="M 187.5 153.09375 C 168.5 153.09375 153.09375 168.5 153.09375 187.5 C 153.09375 206.5 168.5 221.90625 187.5 221.90625 C 206.5 221.90625 221.90625 206.5 221.90625 187.5 C 221.90625 168.5 206.5 153.09375 187.5 153.09375 Z M 187.5 153.09375 " clip-rule="nonzero"/></clipPath><clipPath id="951fd84b42"><path d="M 0.09375 0.09375 L 68.90625 0.09375 L 68.90625 68.90625 L 0.09375 68.90625 Z M 0.09375 0.09375 " clip-rule="nonzero"/></clipPath><clipPath id="c848ba5f06"><path d="M 34.5 0.09375 C 15.5 0.09375 0.09375 15.5 0.09375 34.5 C 0.09375 53.5 15.5 68.90625 34.5 68.90625 C 53.5 68.90625 68.90625 53.5 68.90625 34.5 C 68.90625 15.5 53.5 0.09375 34.5 0.09375 Z M 34.5 0.09375 " clip-rule="nonzero"/></clipPath><clipPath id="06c2475cb0"><rect x="0" width="69" y="0" height="69"/></clipPath><clipPath id="719b27386e"><path d="M 172.1875 165.855469 L 202.9375 165.855469 L 202.9375 209.355469 L 172.1875 209.355469 Z M 172.1875 165.855469 " clip-rule="nonzero"/></clipPath></defs><g clip-path="url(#cc4751af23)"><g clip-path="url(#f02a092a30)"><g transform="matrix(1, 0, 0, 1, 153, 153)"><g clip-path="url(#06c2475cb0)"><g clip-path="url(#951fd84b42)"><g clip-path="url(#c848ba5f06)"><path fill="#b76e79" d="M 0.09375 0.09375 L 68.90625 0.09375 L 68.90625 68.90625 L 0.09375 68.90625 Z M 0.09375 0.09375 " fill-opacity="1" fill-rule="nonzero"/></g></g></g></g></g></g><g clip-path="url(#719b27386e)"><path fill="#f5efea" d="M 194.25 199.105469 C 191.449219 203.132812 188.617188 206.257812 187.503906 207.445312 C 186.386719 206.257812 183.554688 203.132812 180.753906 199.105469 C 177.484375 194.402344 173.585938 187.472656 173.585938 181.167969 C 173.585938 173.496094 179.828125 167.253906 187.503906 167.253906 C 195.175781 167.253906 201.417969 173.496094 201.417969 181.167969 C 201.417969 187.472656 197.519531 194.402344 194.25 199.105469 Z M 187.503906 165.859375 C 179.058594 165.859375 172.191406 172.726562 172.191406 181.167969 C 172.191406 186.527344 174.691406 192.835938 179.621094 199.921875 C 183.269531 205.160156 186.96875 208.90625 187.007812 208.945312 C 187.136719 209.078125 187.316406 209.148438 187.503906 209.148438 C 187.6875 209.148438 187.867188 209.078125 187.996094 208.945312 C 188.035156 208.90625 191.734375 205.160156 195.382812 199.921875 C 200.3125 192.835938 202.8125 186.527344 202.8125 181.167969 C 202.8125 172.726562 195.945312 165.859375 187.503906 165.859375 " fill-opacity="1" fill-rule="nonzero"/></g><path fill="#f5efea" d="M 187.578125 187.46875 C 184.339844 187.46875 181.703125 184.832031 181.703125 181.589844 C 181.703125 178.351562 184.339844 175.714844 187.578125 175.714844 C 190.820312 175.714844 193.453125 178.351562 193.453125 181.589844 C 193.453125 184.832031 190.820312 187.46875 187.578125 187.46875 Z M 187.578125 174.320312 C 183.570312 174.320312 180.308594 177.582031 180.308594 181.589844 C 180.308594 185.601562 183.570312 188.863281 187.578125 188.863281 C 191.589844 188.863281 194.847656 185.601562 194.847656 181.589844 C 194.847656 177.582031 191.589844 174.320312 187.578125 174.320312 " fill-opacity="1" fill-rule="nonzero"/></svg>